<?xml version="1.0" encoding="utf-8"?>
<!-- Generator: Adobe Illustrator 21.0.2, SVG Export Plug-In . SVG Version: 6.00 Build 0)  -->
<svg version="1.1" id="Layer_1" xmlns="http://www.w3.org/2000/svg" xmlns:xlink="http://www.w3.org/1999/xlink" x="0px" y="0px"
	 viewBox="0 0 960 920" style="enable-background:new 0 0 960 920;" xml:space="preserve">
<style type="text/css">
	.st0{fill:none;stroke:#FFFFFF;stroke-width:4;stroke-linejoin:bevel;stroke-miterlimit:10;}
	.st1{fill:none;stroke:#FFFFFF;stroke-width:4;}
	.st2{fill:none;stroke:#FFFFFF;stroke-width:1.9199;stroke-linecap:round;stroke-linejoin:round;stroke-miterlimit:22.9256;}
	.st3{fill:none;stroke:#FFFFFF;stroke-width:1.4;stroke-linecap:round;stroke-linejoin:round;stroke-miterlimit:22.9256;}
	.st4{fill:none;stroke:#FFFFFF;stroke-width:1.44;stroke-linecap:round;stroke-linejoin:round;stroke-miterlimit:22.9256;}
	.st5{fill:none;stroke:#FFFFFF;stroke-width:1.44;stroke-miterlimit:22.9256;}
	.st6{fill:none;stroke:#FFFFFF;stroke-width:1.4397;stroke-linecap:round;stroke-linejoin:round;stroke-miterlimit:22.9256;}
	.st7{fill:#FFFFFF;}
	.st8{fill:#FFFFFF;stroke:#FFFFFF;stroke-miterlimit:10;}
	.st9{fill:#7CAD63;}
	.st10{fill:none;stroke:#FFFFFF;stroke-width:3;stroke-miterlimit:10;}
	.st11{fill:#FFFFFF;stroke:#7CAD63;stroke-width:3;stroke-miterlimit:10;}
	.st12{fill:none;stroke:#7CAD63;stroke-width:3;stroke-miterlimit:10;}
	.st13{fill:none;stroke:#FFFFFF;stroke-width:2;stroke-linecap:round;stroke-linejoin:round;stroke-miterlimit:22.9256;}
	.st14{fill:#FFFFFF;stroke:#FFFFFF;stroke-width:2;stroke-miterlimit:10;}
	.st15{fill:none;stroke:#FFFFFF;stroke-width:1.4398;stroke-linecap:round;stroke-linejoin:round;stroke-miterlimit:22.9256;}
	.st16{fill:none;stroke:#FFFFFF;stroke-width:1.9199;stroke-miterlimit:22.9256;}
	.st17{fill:#FFFFFF;stroke:#FFFFFF;stroke-width:4;stroke-linecap:round;stroke-linejoin:round;stroke-miterlimit:10;}
	.st18{fill:none;stroke:#FFFFFF;stroke-width:4;stroke-miterlimit:10;}
	.st19{fill:none;stroke:#FFFFFF;stroke-width:4;stroke-linecap:round;stroke-linejoin:bevel;stroke-miterlimit:10;}
	.st20{fill:#FFFFFF;stroke:#FFFFFF;stroke-width:4;stroke-miterlimit:10;}
	.st21{fill:#324C5E;stroke:#FFFFFF;stroke-width:1.4397;stroke-miterlimit:22.9256;}
	.st22{fill:none;stroke:#FFFFFF;stroke-width:1.4397;stroke-miterlimit:22.9256;}
	.st23{fill:none;stroke:#FFFFFF;stroke-width:7;stroke-miterlimit:10;}
	.st24{fill:none;stroke:#FFFFFF;stroke-width:8;stroke-miterlimit:10;}
	.st25{fill:#005949;}
</style>
<symbol  id="fl-icon-24-hours" viewBox="-47.9 -49.8 95.8 99.6">
	<path class="st0" d="M0,47.8c-25.4,0-45.9-20.5-45.9-45.9c0-11.3,4.1-21.7,10.9-29.7l-10.7-20.3l19.5,12.3C-18.8-40.9-9.8-44,0-44
		c25.4,0,45.9,20.6,45.9,45.9C45.9,27.3,25.4,47.8,0,47.8z"/>
	<path class="st1" d="M-16-25.8c1.5-0.8,3.1-1.5,4.7-2.1c7.4-2.6,15.7-2.6,23.4,0.9c16,7.1,23.3,25.8,16.2,41.8
		C21.3,30.8,2.6,38-13.4,31c-16-7.1-23.3-25.8-16.2-41.8"/>
	<polyline class="st1" points="-24.8,1.7 -29.1,-13.1 -40.6,-3.6 	"/>
	<g>
		<path class="st1" d="M-19.8,9.9c0,4.3,3.5,7.9,7.9,7.9l0,0c4.3,0,7.9-3.5,7.9-7.9v-1C-4.1,4.5-17.5-13-17.5-13h14.9"/>
		<line class="st1" x1="13.1" y1="-14.7" x2="13.1" y2="18.9"/>
		<polyline class="st1" points="19.9,-2.6 1,-2.6 6.9,7.6 12.9,17.8 		"/>
	</g>
</symbol>
<symbol  id="fl-icon-address" viewBox="-13.4 -16.9 26.7 33.7">
	<path class="st2" d="M0,15.9c3.4,0,6.5-1.4,8.8-3.6c2.2-2.2,3.6-5.4,3.6-8.8c0-2-0.5-3.9-1.3-5.6C9.5-5.3,3-12.8,0-15.9
		c-3,3-9.5,10.5-11.1,13.7c-0.8,1.7-1.3,3.6-1.3,5.6C-12.4,10.3-6.9,15.9,0,15.9L0,15.9z"/>
	<polygon class="st2" points="0,11.9 2.6,6.9 8.1,6 4.3,1.9 5,-3.6 0,-1.2 -5,-3.6 -4.3,1.9 -8.1,6 -2.6,6.9 	"/>
</symbol>
<symbol  id="fl-icon-bespoke" viewBox="-16.8 -16.5 33.7 32.9">
	<path class="st3" d="M4.8,13.1c0.8,0,1.5-0.1,2.2-0.3l0.3-2.8c0.6-0.2,1.1-0.4,1.6-0.7l2.2,1.8c0.6-0.4,1.2-0.8,1.7-1.4
		c0.5-0.5,1-1.1,1.4-1.7l-1.8-2.2c0.3-0.5,0.5-1.1,0.7-1.6l2.8-0.3c0.2-0.7,0.3-1.5,0.3-2.2c0-0.8-0.1-1.5-0.3-2.2l-2.9-0.2
		c-0.2-0.6-0.4-1.1-0.7-1.6l1.8-2.2c-0.4-0.6-0.8-1.2-1.4-1.7c-0.5-0.5-1.1-1-1.7-1.4L8.8-5.9C8.3-6.1,7.8-6.4,7.1-6.5L6.9-9.3
		C6.2-9.6,5.4-9.6,4.8-9.6c-0.8,0-1.5,0.1-2.2,0.3L2.2-6.5C1.6-6.4,1.1-6.1,0.6-5.9l-2.2-1.8c-0.6,0.4-1.2,0.8-1.7,1.4
		c-0.5,0.5-1,1.1-1.4,1.7l1.8,2.2c-0.3,0.5-0.5,1.1-0.7,1.6l-2.8,0.3C-6.6,0.2-6.7,1-6.7,1.7c0,0.8,0.1,1.5,0.3,2.2l2.8,0.3
		c0.2,0.6,0.4,1.1,0.7,1.6L-4.7,8c0.4,0.6,0.8,1.2,1.4,1.7c0.5,0.5,1.1,1,1.7,1.4l2.2-1.8c0.5,0.3,1.1,0.5,1.6,0.7l0.3,2.8
		C3.2,12.9,3.9,13.1,4.8,13.1L4.8,13.1z"/>
	<path class="st3" d="M4.8,6.2c2.5,0,4.6-2,4.6-4.6c0-2.5-2-4.6-4.6-4.6c-2.5,0-4.6,2-4.6,4.6S2.2,6.2,4.8,6.2L4.8,6.2z"/>
	<line class="st3" x1="3.2" y1="6.1" x2="3.2" y2="-2.5"/>
	<path class="st3" d="M3.2-10.4v-2.8c0-1.4-1.1-2.5-2.5-2.5h-14.4c-1.4,0-2.5,1.1-2.5,2.5v26.5c0,1.4,1.1,2.5,2.5,2.5H0.7
		c1.4,0,2.5-1.1,2.5-2.5"/>
	<path class="st3" d="M0.1-7.5c0-0.9-0.8-1.7-1.7-1.7h-9.8c-0.9,0-1.7,0.8-1.7,1.7v18.1c0,0.9,0.8,1.7,1.7,1.7h9.8
		c0.9,0,1.7-0.8,1.7-1.7"/>
	<line class="st3" x1="-10.4" y1="-12.3" x2="-2.6" y2="-12.3"/>
</symbol>
<symbol  id="fl-icon-calendar" viewBox="-17.6 -17.4 35.1 34.8">
	<path class="st4" d="M-13.1,14.5h26.2c2.1,0,3.8-1.7,3.8-3.8v-25.4c0-2.1-0.3-2-2.3-2h-29.4c-2.1,0-2,0-2,2v25.4
		C-16.9,12.8-15.2,14.5-13.1,14.5L-13.1,14.5z M-10.3,16.7V12 M-3.4,16.7V12 M3.4,16.7V12 M10.3,16.7V12"/>
	<line class="st5" x1="-16.4" y1="7.2" x2="16.9" y2="7.2"/>
	<path class="st4" d="M-10.3,11.5c0.4,0,0.7-0.3,0.7-0.7S-9.9,10-10.3,10c-0.4,0-0.7,0.3-0.7,0.7S-10.7,11.5-10.3,11.5L-10.3,11.5z
		 M-3.4,11.5c0.4,0,0.7-0.3,0.7-0.7S-3,10-3.4,10s-0.7,0.3-0.7,0.7S-3.8,11.5-3.4,11.5L-3.4,11.5z M3.4,11.5c0.4,0,0.7-0.3,0.7-0.7
		S3.8,10,3.4,10s-0.7,0.3-0.7,0.7S3,11.5,3.4,11.5L3.4,11.5z M10.3,11.5c0.4,0,0.7-0.3,0.7-0.7S10.7,10,10.3,10s-0.7,0.3-0.7,0.7
		S9.9,11.5,10.3,11.5L10.3,11.5z"/>
	<path class="st6" d="M-12.6,3.5h25.2 M-12.6-1.9c8.4,0,16.8,0,25.2,0 M-12.6-7.4c8.4,0,16.8,0,25.2,0 M-12.6-12.8h25.2 M-12.6-12.8
		l0.1,16.3 M-6.3-12.8c0,5.4,0,10.9,0.1,16.3 M0-12.8C0-7.4,0-1.9,0,3.5 M6.3-12.8c0,5.4,0,10.9,0.1,16.3 M12.6-12.8l0.1,16.3"/>
</symbol>
<symbol  id="fl-icon-call" viewBox="-40.9 -40.9 81.8 81.8">
	<g>
		<path class="st7" d="M14-40.9c-4,0-18.5,1.4-36,18.9s-18.9,32-18.9,36c0,6.7,8.4,17,11.9,17h4.2c1.7,0,3.2-1.1,3.7-2.7l5.2-16.3
			c0.4-1.4,0.1-2.9-1-3.9l-6-6c-0.2-0.2-0.2-0.5-0.1-0.7c1.4-2.5,4.7-7.6,10.8-13.7S-1-21.7,1.5-23.1C1.7-23.2,2-23.2,2.2-23l6,6
			c1,1,2.5,1.4,3.9,1l16.3-5.2c1.6-0.5,2.7-2,2.7-3.7V-29C31-32.5,20.7-40.9,14-40.9z M-28.9,27.8c-1.9-0.7-8.7-8.5-8.7-13.8
			c0-3.7,1.3-17.1,17.9-33.7s30-17.9,33.7-17.9c5.3,0,13.1,6.8,13.8,8.7v4c0,0.3-0.2,0.5-0.4,0.6l-16.3,5.2c-0.2,0.1-0.5,0-0.6-0.1
			l-6-6c-1.2-1.2-3.2-1.5-4.6-0.6c-2.7,1.5-8.1,5-14.4,11.3C-21-8.3-24.4-2.9-25.9-0.2c-0.9,1.5-0.6,3.4,0.6,4.6l6,6
			c0.2,0.2,0.2,0.4,0.1,0.6l-5.2,16.3c-0.1,0.3-0.3,0.4-0.6,0.4L-28.9,27.8z"/>
		<path class="st7" d="M16.3,40.9c-13.5,0-24.5-11-24.5-24.5c0-4.6,1.3-9.1,3.7-13L-8.1-6c-0.2-0.6-0.1-1.3,0.4-1.7
			C-7.4-8-7-8.2-6.5-8.2c0.2,0,0.4,0,0.6,0.1l9.3,3.6c3.9-2.4,8.3-3.7,13-3.7c13.5,0,24.5,11,24.5,24.5S29.9,40.9,16.3,40.9z
			 M16.3-5.1C12-5.1,7.9-3.8,4.4-1.5C4.2-1.3,3.9-1.2,3.6-1.2c-0.2,0-0.4,0-0.5-0.1L-4-4l2.7,7c0.2,0.4,0.1,1-0.2,1.3
			C-3.9,7.8-5.1,12-5.1,16.2c0,11.8,9.6,21.4,21.4,21.4S37.7,28,37.7,16.2S28.2-5.1,16.3-5.1z"/>
		<path class="st7" d="M19.6,16.3c0-1.8-1.5-3.3-3.3-3.3S13,14.5,13,16.3s1.5,3.3,3.3,3.3C18.2,19.6,19.6,18.2,19.6,16.3z"/>
		<path class="st7" d="M8.2,16.3c0-1.8-1.5-3.3-3.3-3.3s-3.3,1.5-3.3,3.3s1.5,3.3,3.3,3.3C6.7,19.6,8.2,18.2,8.2,16.3z"/>
		<path class="st7" d="M31.1,16.3c0-1.8-1.5-3.3-3.3-3.3s-3.3,1.5-3.3,3.3s1.5,3.3,3.3,3.3C29.6,19.6,31.1,18.2,31.1,16.3z"/>
	</g>
</symbol>
<symbol  id="fl-icon-check" viewBox="-33.3 -40.5 66.5 81">
	<g>
		<path class="st8" d="M-28.1,10.2c0,1.2,1.6,0.8,2.2,0.9c3.3,0.5,6.7,1.1,10,1.5c1.7,0.2,2.4-0.5,1.9-2c-3.3-0.3-6.4-0.6-9.5-1
			c-2.6-0.4-2.8-0.7-2.8-3.3C-26.5-2-26.6-10.2-26-18.5c0.2-3,0.3-5.9,0.6-8.9c0.1-1.4,0.5-2.9,0.8-4.4c3.6-0.6,7-0.2,10.3,0.3
			c3.4,0.5,3.8,0.4,6.6-2.4C-8.4-34-9-34-9.5-34c-3.2-0.1-6.3-0.2-9.5-0.4c-8.7-0.6-7.5,0.9-7.8,7c-0.4,7.1,0,14.2-0.7,21.3
			C-28-0.7-27.2,4.6-28.1,10.2z"/>
		<g>
			<path class="st8" d="M4.3,19.3c1,2.6,1.9,5,2.8,7.4c1.4,3.5,2.8,7.1,4.4,10.6c0.3,0.7,1.2,1.5,2,1.7c1.9,0.5,3.9,0.9,5.9,1
				c4.2,0.1,8.5,0,12.9,0c0.8-1.4,0.3-2.8-0.5-4.3c-2.5-5.3-5-10.7-7.7-16.1c0.5-0.4,2-0.6,2.4-0.7c1.7-0.6,1-2.2,1-3.8
				c0-1.5-0.1-3-0.1-4.5c-0.1-7,0.1-14-0.3-21c-0.3-6.5-1.1-12.9-1.7-19.3c-0.1-0.8-0.3-1.7-0.6-2.5c-1.7-5.7-1.7-5.3-7.7-6.2
				c-11.4-1.8-22.9-0.7-34.3-1.3c-2.4-0.1-4.8-0.4-7.2-0.2c-1.9,0.2-3.8,0.7-5.5,1.5c-0.9,0.4-1.8,1.6-2,2.6
				c-0.5,2.3-0.7,4.6-0.7,6.9c0,4.9,0.2,9.8,0.2,14.7c-0.1,8.2-0.3,16.3-0.4,24.5c0,1.9,0.3,3.8,0.9,5.6c0.6,1.9,2,2.9,4.2,2.7
				c1.7-0.1,3.4-0.2,5.1-0.1C-13.5,18.7-4.6,19.1,4.3,19.3z M3.5,16.7c-1.4,0-2.5,0-3.7,0c-6.7-0.1-13.4-0.3-20-0.4
				c-1.9,0-3.8,0.2-5.7,0.2c-3.6,0-4.6-0.7-4.9-4.3c-0.3-3.7-0.3-7.4-0.3-11.1c0.1-9.3,0.2-18.7,0.4-28c0-2.2,0.3-4.4,0.6-6.6
				c0.2-1.9,1.3-3.1,3.2-3.5c1.9-0.3,3.8-0.7,5.7-0.7c7.6,0.1,15.3,0.4,22.9,0.4c5.9,0,11.8,0.5,17.7,1.3c1.7,0.2,2.8,0.8,3.2,2.5
				c0.6,2.6,1.4,5.1,1.8,7.7c0.1,0.8,0.2,1.6,0.3,2.4c1.1,9,0.8,18.1,0.9,27.2c0,2.3,0,4.5,0.1,6.8c0,1.6,0.5,3.6,0,5.2
				c-0.4,1.4-1.7,1.8-2.7,0.6c-1.1-1.2-1.3-3.4-2-4.9c-1.5-3.5-3.1-7-4.1-10.7c-2.1-7-3.5-14.2-5.3-21.3c-0.4-1.4-1-2.7-2.4-3.6
				C7-25.5,5-27.2,2.8-28.8c-1.2-0.9-2.3-1.8-3.6-2.6c-1.7-1-2.6-0.8-3.9,0.7c-1.6,1.9-3.1,3.8-4.6,5.7c-2.6,3.2-5.2,6.5-7.9,9.5
				c-2.2,2.5-4.9,4.6-6.1,7.6c2.8,7.1,7.4,12.4,13.1,16.7c4.1-1.8,5.9-5.5,9-8.4C0.9,5.9,2.7,10.9,3.5,16.7z M21,36.6
				c-4,0.2-4.3,0-5.8-2.8c-0.5-0.9-0.9-1.9-1.3-2.9c-2.4-6.1-5-12.2-7.2-18.4C4.4,6.3,1.4,0.4,0.5-6.2C0.3-7.5-0.3-8.5-1.8-9
				C-4.7-4.4-6.6,0.8-11,4.6c-4.2-3.8-8.5-7.2-11.5-12.7c0.9-1.1,1.8-2.4,3-3.4c6-4.7,11.3-10.2,16.2-16.1c0.5-0.6,1-1.1,1.6-1.7
				c2.8,2.2,5.5,4.2,8,6.3c0.9,0.8,1.5,2,1.8,3.1c2.7,9.6,4.4,19.4,8.4,28.6c1.9,4.3,3.9,8.6,5.9,12.9c2.1,4.5,4.1,9,6.2,13.5
				C29.3,36.6,23.7,36.4,21,36.6z"/>
			<path class="st8" d="M18.1-29.7c0.3,5.7-0.3,11.2,0.8,16.7c0,0.1,0.4,0.1,0.6,0.2c0.2-0.2,0.5-0.4,0.5-0.7c0.1-0.5,0.1-1,0.1-1.6
				C20-20.6,19.8-26,19.7-31.6C12.8-33,6-33.3-0.9-33.1C5.1-30.4,11.7-31.8,18.1-29.7z"/>
		</g>
	</g>
</symbol>
<symbol  id="fl-icon-checkmark" viewBox="-19.7 -19.7 39.4 39.4">
	<path class="st9" d="M19.7,0c0,10.9-8.8,19.7-19.7,19.7S-19.7,10.9-19.7,0S-10.9-19.7,0-19.7S19.7-10.9,19.7,0z"/>
	<polyline class="st10" points="13.4,9.8 -6.8,-9.8 -13.4,-1.9 	"/>
</symbol>
<symbol  id="fl-icon-checkmark-pending" viewBox="-21.2 -21.2 42.4 42.4">
	<path class="st11" d="M19.7,0c0,10.9-8.8,19.7-19.7,19.7S-19.7,10.9-19.7,0S-10.9-19.7,0-19.7S19.7-10.9,19.7,0z"/>
	<polyline class="st12" points="-2,10.4 -2,-2 9.4,-2 	"/>
</symbol>
<symbol  id="fl-icon-checkmark-unchecked" viewBox="-19.7 -19.7 39.4 39.4">
	<g>
		<path class="st7" d="M0-18.2C-10-18.2-18.2-10-18.2,0S-10,18.2,0,18.2S18.2,10,18.2,0S10-18.2,0-18.2z"/>
		<path class="st9" d="M0,16.7c9.2,0,16.7-7.5,16.7-16.7S9.2-16.7,0-16.7S-16.7-9.2-16.7,0S-9.2,16.7,0,16.7 M0,19.7
			c-10.9,0-19.7-8.8-19.7-19.7S-10.9-19.7,0-19.7S19.7-10.9,19.7,0S10.9,19.7,0,19.7L0,19.7z"/>
	</g>
</symbol>
<symbol  id="fl-icon-contact-us" viewBox="-36.7 -47.6 73.4 95.1">
	<path class="st7" d="M-5.2,7.8C-5,8.7-4.8,9.5-5,12.6c-0.1,3-3.1,13.9-11.6,22.5l-1.1,1.1L-19,36h-0.5c-1.3-0.2-13-2.1-16.8-16.7
		c-3.9-14.7,19.1-40.6,21.8-43.5l0,0c1.8-1.9,18-18.7,30.1-23.2l0.5-0.2h0.7c7.1,0,19.4,4.1,19.8,19.3l0.1,2l-21,12.8l-0.5,0.1
		c-0.5,0.1-1,0.2-1.6,0.2c-2.1,0-3.9-0.9-5-2.4c-0.2-0.3-0.5-0.8-0.8-1.4s-0.7-1.2-1-1.6l-0.5-0.6l-0.6,0.5
		c-1.4,1.3-3.5,3.5-6.1,6.6c-1.9,2.2-3.9,4.4-5.7,6.3l-0.3,0.3C-8.1-3.6-10.7-0.9-12,1l-0.5,0.7l0.8,0.5C-6.6,5.3-5.5,6.2-5.2,7.8z
		 M-16.5-2.2c1.5-2.1,4.2-5,6-6.9l0.3-0.3c1.7-1.9,3.7-4,5.5-6.2c2.8-3.3,5-5.7,6.7-7.2L6.9-27l4.2,4.8c0.7,0.8,1.3,1.8,1.7,2.6
		c0.3,0.6,0.5,0.8,0.5,0.8s0.2,0.1,0.4,0.1l17.2-10.5c-1-11.4-11-12.5-13.8-12.6C8.2-38.5-4.8-26.4-10.5-20.3
		C-22.2-7.4-33,9.9-30.9,18c2.4,9.2,8.6,11.7,11.1,12.4c6.7-7.3,9.2-16.1,9.3-18c0.1-1.5,0.1-2.2,0-2.6c-0.5-0.4-1.6-1.1-4.1-2.6
		l-6.2-3.6L-16.5-2.2z"/>
	<path class="st7" d="M3.3,38.2c-0.6,0-1.2-0.2-1.7-0.7c-0.4-0.4-0.7-1-0.7-1.6s0.3-1.2,0.7-1.7C4.9,31,6.7,26.7,6.7,22
		c0-4.6-1.8-9-5.1-12.2c-0.9-0.9-0.9-2.4,0-3.3c0.4-0.4,1-0.7,1.6-0.7C3.9,5.8,4.5,6,5,6.5c4.1,4.2,6.4,9.7,6.4,15.5
		c0,5.9-2.3,11.5-6.5,15.6C4.5,38,3.9,38.2,3.3,38.2z"/>
	<path class="st7" d="M11.9-2.8c0.4-0.4,1-0.7,1.7-0.7c0.6,0,1.2,0.2,1.6,0.7C21.8,3.8,25.4,12.6,25.4,22S21.7,40.2,15,46.9
		c-0.4,0.4-1,0.7-1.6,0.7s-1.2-0.2-1.7-0.7c-0.4-0.4-0.7-1-0.7-1.6s0.2-1.2,0.7-1.6c5.8-5.8,9-13.4,9-21.6c0-8.1-3.2-15.8-8.9-21.5
		C11-0.4,11-1.9,11.9-2.8z"/>
</symbol>
<symbol  id="fl-icon-email" viewBox="-53.9 -53.6 107.8 107.1">
	<path class="st7" d="M47.8,15.9L6.1,51.5c-0.8,0.7-1.8,1.2-2.8,1.6c-0.5,0.2-1.1,0.3-1.6,0.4c-0.5,0.1-1.1,0.1-1.6,0.1
		c-2.2,0-4.4-0.7-6.1-2.1l-41.7-35.6l0,0c-3.5-2.8-6.2-8.8-6.2-13.2v-48.2c0-2.8,1.5-5.3,3.7-6.7c1.2-0.8,2.7-1.3,4.3-1.3h2.8h86.2
		h2.8c1.6,0,3,0.5,4.3,1.3c2.2,1.4,3.7,3.9,3.7,6.7V2.7C53.9,7.1,51.2,13.1,47.8,15.9z M-1.5,46.2c0.1,0.1,0.2,0.1,0.3,0.2
		c0.2,0.1,0.5,0.2,0.8,0.2c0.1,0,0.3,0,0.5,0s0.3,0,0.5,0c0.4-0.1,0.8-0.2,1.1-0.4l41.6-35.4L10.9-16.8l-4.8,4.1
		c-1.7,1.4-3.9,2.1-6.1,2.1s-4.4-0.7-6.1-2.1l-4.8-4.1l-32.2,27.5L-1.5,46.2z M-45.9-46.5c-0.5,0-1,0.5-1,1V2.7
		c0,0.5,0.1,1.2,0.3,1.8l30.4-25.9l-29.4-25.1H-45.9z M-34.9-46.5l24,20.5l5.4,4.6l3.9,3.3c0.3,0.3,0.9,0.5,1.5,0.5s1.2-0.2,1.5-0.5
		l3.9-3.3l5.4-4.6l24-20.5H-34.9z M16.3-21.4l30.3,26c0.2-0.7,0.3-1.3,0.3-1.8v-48.2c0-0.5-0.5-1-1-1h-0.2L16.3-21.4z M8.7-4.6
		C5.1-6.2,1.9-6.7-2.4-6.7c-10,0-18.9,7.2-18.9,19.1c0,12.3,9,23.1,22.6,23.1c10.6,0,18.3-7.3,18.3-17.5c0-8.8-5-14.4-11.5-14.4
		C5.3,3.5,3.2,4.9,2.9,8.1H2.8C0.9,5.1-1.8,3.5-5,3.5c-3.9,0-6.8,2.9-6.8,7.9c0,7.4,5.4,14.1,14.2,14.1c2.7,0,5.7-0.7,7.2-1.5
		L7.8,12.7C7.2,9.2,7.6,7.5,9.3,7.5c2.6-0.1,5.9,3.3,5.9,10.2c0,7.9-5.1,14-14.5,14c-9.3,0-17.4-7.3-17.4-18.8
		C-16.7,2.8-10.2-3-1.2-3c3.1,0,6.4,0.7,8.8,1.9L8.7-4.6z M3.3,20.4c-0.5,0.1-1.1,0.2-1.9,0.2c-4,0-7.1-3.9-7.1-8.6
		c0-2.3,1-3.8,3-3.8c2.2,0,4.6,2.8,5.1,6.4L3.3,20.4z"/>
</symbol>
<symbol  id="fl-icon-honesty" viewBox="-17.1 -17.6 34.2 35.2">
	<line class="st13" x1="-13.5" y1="6.8" x2="-2.1" y2="10.9"/>
	<line class="st13" x1="1.9" y1="12.4" x2="13.5" y2="16.6"/>
	<line class="st13" x1="0" y1="-16.6" x2="0" y2="9.5"/>
	<line class="st13" x1="-8.2" y1="-16.6" x2="8.2" y2="-16.6"/>
	<path class="st13" d="M0,13.5c1.1,0,2-0.9,2-2s-0.9-2-2-2s-2,0.9-2,2S-1.1,13.5,0,13.5L0,13.5z"/>
	<line class="st13" x1="-16.1" y1="-8.4" x2="-4.3" y2="-8.4"/>
	<path class="st13" d="M-15.8-9.5c1.1-2.1,3.2-3.7,5.6-3.7s4.4,1.5,5.6,3.6c0.4,0.8,0.4,1.3,0.1,2.2L-9.3,5.2
		c-0.1,0.2-0.2,0.4-0.5,0.5c-0.4,0.1-0.8-0.1-0.9-0.4l0,0c-1.7-5-3.4-7.7-5.2-12.7C-16.2-8.3-16.2-8.8-15.8-9.5L-15.8-9.5z"/>
	<line class="st13" x1="4.3" y1="-1" x2="16.1" y2="-1"/>
	<path class="st13" d="M4.6-2.2c1.1-2.1,3.2-3.7,5.6-3.7s4.4,1.5,5.6,3.6c0.4,0.8,0.4,1.3,0.1,2.2L11,12.5c-0.1,0.2-0.2,0.4-0.5,0.5
		c-0.4,0.1-0.8-0.1-0.9-0.4l0,0C8,7.6,6.2,4.8,4.5-0.1C4.2-1,4.2-1.5,4.6-2.2L4.6-2.2z"/>
</symbol>
<symbol  id="fl-icon-human" viewBox="-111 -127 222 254">
	<g>
		<path class="st7" d="M43.3-0.7L0-31.2L-43.3-0.7c-57.4,0-67.7-44.6-67.7-87.5V-127H0h111v38.8C111-45.3,100.7-0.7,43.3-0.7z
			 M83.9-98.9H-83.9V-75c0,37.9,13.6,54.9,45.3,55.9L0-38l38.6,18.8c31.7-1,45.3-13.1,45.3-55.9C83.9-75.1,83.9-98.9,83.9-98.9z"/>
		<path class="st7" d="M0,127c-36.7,0-66.4-29.7-66.4-66.4S-36.7-5.8,0-5.8s66.4,29.7,66.4,66.4C66.4,97.2,36.7,127,0,127z M0,5.5
			c-23.7,0-42.9,19.2-42.9,42.9S-23.7,91.3,0,91.3s42.9-19.2,42.9-42.9S23.7,5.5,0,5.5z"/>
	</g>
</symbol>
<symbol  id="fl-icon-idea" viewBox="-38.8 -48.7 77.6 97.4">
	<path class="st14" d="M37.5,25.9c0.6-0.9,0.4-2-0.5-2.6l-13-8.9c-0.3-0.2-0.7-0.3-1-0.3c-0.6,0-1.2,0.3-1.5,0.8
		c-0.6,0.9-0.4,2,0.5,2.6l13,8.9C35.7,27,36.9,26.8,37.5,25.9z"/>
	<path class="st14" d="M22.6,40.2c0.9-0.6,1.1-1.7,0.5-2.6l-8.6-13.2c-0.4-0.6-1-0.9-1.6-0.9c-0.4,0-0.7,0.1-1,0.3
		c-0.9,0.6-1.1,1.7-0.5,2.6L20,39.7C20.6,40.6,21.8,40.8,22.6,40.2z"/>
	<path class="st14" d="M7.2-42.7c0.9,0,1.1-0.4,0.5-0.9l-4-3.1C3.4-46.8,3.2-46.9,3-47c0,0,0,0,0-0.1c0-0.3-0.2-0.6-0.5-0.6H-3
		c-0.3,0-0.5,0.3-0.5,0.6l0,0c-0.2,0.1-0.4,0.2-0.7,0.4l-3.4,2.5c-0.6,0.5-0.4,1,0.5,1L7.2-42.7z"/>
	<path class="st14" d="M1.6,45.8V30c0-1-0.8-1.9-1.9-1.9c-1,0-1.9,0.8-1.9,1.9v15.8c0,1,0.8,1.9,1.9,1.9C0.7,47.7,1.6,46.8,1.6,45.8
		z"/>
	<path class="st14" d="M-7.6-42C-7.6-42-7.7-42-7.6-42c-0.5,0-0.9,0.3-0.9,0.7s0.3,0.8,0.8,0.8l15.3,0.7c0.5,0,0.9-0.3,0.9-0.7
		c0-0.2-0.1-0.4-0.2-0.5c-0.2-0.2-0.4-0.2-0.6-0.2L-7.6-42z"/>
	<path class="st14" d="M-7.8-37.9l15.5,0.7c0.5,0,0.9-0.3,0.9-0.7s-0.3-0.7-0.8-0.8l-15.5-0.7l0,0c-0.5,0-0.9,0.3-0.9,0.7
		S-8.3-37.9-7.8-37.9z"/>
	<path class="st14" d="M-7.9-35.3l15.7,0.7c0.5,0,0.9-0.3,1-0.7c0-0.2-0.1-0.4-0.2-0.5C8.4-35.9,8.2-36,7.9-36l-15.7-0.7
		c0,0,0,0-0.1,0c-0.5,0-0.9,0.3-0.9,0.7C-8.8-35.7-8.4-35.3-7.9-35.3z"/>
	<path class="st14" d="M-12.7,26.5c0.6-0.9,0.3-2-0.5-2.6c-0.3-0.2-0.7-0.3-1-0.3c-0.6,0-1.2,0.3-1.6,0.9l-8.6,13.2
		c-0.6,0.9-0.3,2,0.6,2.6s2,0.3,2.6-0.5L-12.7,26.5z"/>
	<path class="st14" d="M0,23c12.1,0,22-9.9,22-22c0-4.2-1.2-8.4-3.5-11.9l-2.4-4.6l-1.8-3.6c-0.1-0.1-1.5-2.8-1.4-5.1
		c0,0,0-0.6,0-0.9c0-2.1-1.1-4-3.1-5.5c-0.1-0.4-0.3-1.9-1-2.2C8-33.1-1.7-33.8-7.5-34c-1.8-0.1-2.3,3.5-2.3,3.6
		c-0.1,0.1-0.1,0.1-0.2,0.2c-0.1,0-0.1,0.1-0.2,0.1c-0.7,0.6-1.3,1.3-1.7,2.1c-0.8,1.3-1.1,2.6-1,4c0.1,2.3-1.4,5-1.4,5.1v0.1
		l-1.8,3.6l-2.1,4C-20.8-7.7-22-3.4-22,1C-22,13.2-12.1,23,0,23z M19.2,1c0,10.6-8.6,19.2-19.2,19.2S-19.2,11.6-19.2,1
		c0-3.9,1.2-7.6,3.4-10.8l0.1-0.1l2.1-4.1l1.8-3.6c0.3-0.6,1.9-3.6,1.8-6.6c0-0.8,0.2-1.6,0.7-2.4l0,0c0.3-0.5,0.6-0.9,1.1-1.4l0,0
		l0.1-0.1h4.9c0,4.8-0.3,13-0.3,14.3L-8.2-2.6c-0.3,0-0.8,0.3-1.3,1.9c-0.3,1-0.4,1.7-0.1,2.1C-9.5,1.6-9.3,1.8-9,1.9V2h0.2
		c0.2,0,0.9,0,1.5-2c0.1-0.3,0.1-0.5,0.2-0.8l0.3-0.7c0.1,0,0.2-0.1,0.2-0.1c0.5,0,0.9,0.6,0.9,1.2c0,0.5,0.4,0.9,0.9,0.9
		C-4.4,0.7-4,0.3-4-0.2c0-0.7,0.4-1.2,0.9-1.2s0.9,0.6,0.9,1.2c0,0.5,0.4,0.9,0.9,0.9l0,0l0,0c0.5,0,0.9-0.4,0.9-0.9
		c0-0.7,0.4-1.2,0.9-1.2s0.9,0.6,0.9,1.2c0,0.5,0.4,0.9,0.9,0.9C2.6,0.7,3,0.3,3-0.2c0-0.7,0.4-1.2,0.9-1.2s0.9,0.6,0.9,1.2
		c0,0.5,0.4,0.9,0.9,0.9s0.8-0.4,0.8-0.9c0-0.7,0.4-1.2,0.9-1.2c0.1,0,0.2,0,0.4,0.1L8-0.7C8-0.5,8.1-0.2,8.1,0c0.7,2,1.3,2,1.6,2
		h0.1h0.1c0.4-0.1,0.8-0.4,0.7-1.4c0-0.4-0.1-0.8-0.3-1.2c-0.4-1.7-1-2-1.3-2L4.4-13.9c0-1.2-0.3-9.4-0.3-14.3h4.3
		c1.1,0.9,1.6,2,1.6,3c0,0.3,0,0.8,0,0.8c-0.2,2.9,1.4,6,1.8,6.6l1.8,3.6l2.5,4.8C18.1-6.3,19.2-2.7,19.2,1z M2.4-28.2
		c0,5.2,0.3,14.4,0.3,14.5v0.2L7-3.1C6.5-3,6-2.8,5.6-2.4C5.1-2.8,4.5-3.2,3.9-3.2c-0.7,0-1.3,0.3-1.7,0.8C1.7-2.8,1.1-3.2,0.4-3.2
		s-1.3,0.3-1.8,0.8c-0.5-0.5-1.1-0.8-1.7-0.8c-0.7,0-1.3,0.3-1.7,0.8C-5.2-2.7-5.6-3-6.1-3.1l4.3-10.5v-0.2c0-0.1,0.3-9.2,0.3-14.5
		L2.4-28.2L2.4-28.2z"/>
	<path class="st14" d="M-21.8,17.5c0.8-0.6,1.1-1.7,0.5-2.6c-0.4-0.5-1-0.8-1.5-0.8c-0.4,0-0.7,0.1-1.1,0.3l-13,8.9
		c-0.9,0.6-1.1,1.8-0.5,2.6c0.6,0.9,1.8,1.1,2.6,0.5L-21.8,17.5z"/>
</symbol>
<symbol  id="fl-icon-info" viewBox="-17 -17 34 33.9">
	<path class="st4" d="M0,16.2c-9,0-16.3-6.5-16.3-14.4c0-8,7.3-14.4,16.3-14.4c1.8,0,3.5,0.3,5.1,0.7c1.8-1.7,4.2-3.2,7.2-4.4
		l-1,7.8c3.1,2.6,5,6.3,5,10.4C16.3,9.8,9,16.2,0,16.2L0,16.2z"/>
	<path class="st4" d="M2.5,2.2c0-0.7-0.2-1.6-0.6-3.1s-0.6-2.5-0.6-3s0.1-0.7,0.3-0.7s0.5,0.1,1,0.2l0.2,0.1l0.4-1.2
		C2.6-5.9,1.9-6.3,1.1-6.6C0.3-6.9-0.5-7.1-1.1-7.1c-0.7,0-1.2,0.2-1.6,0.6s-0.6,0.9-0.6,1.6s0.2,1.8,0.6,3.3s0.6,2.1,0.6,2.5
		c0,0.6-0.2,1.2-0.6,1.7l-0.2,0.3l0.1,0.4c0.9,0.3,2.5,0.4,5,0.4C2.4,3.4,2.5,2.9,2.5,2.2L2.5,2.2z"/>
	<path class="st4" d="M0.7,6.2C0,6.2-0.6,6.4-1,6.8s-0.6,0.9-0.6,1.5s0.3,1.1,0.8,1.5s1.1,0.6,1.9,0.6s1.3-0.2,1.7-0.5
		s0.6-0.8,0.6-1.4S3.1,7.3,2.7,6.9C2,6.4,1.4,6.2,0.7,6.2L0.7,6.2z"/>
</symbol>
<symbol  id="fl-icon-interview" viewBox="-37.8 -37.6 75.6 75.2">
	<path class="st7" d="M17.7,1.9c-0.2-1-0.5-3.8,3.7-5.2c0,0-9.7-0.6-9.9,5.2h-14c-2.7,0-4.8,2.1-5,4.7h8.8c4.4,0,8.1,3.6,8.1,8.1
		v11.1h8.2c2.7,0,5-2.2,5-5v-14C22.6,4.2,20.4,2,17.7,1.9z M-28.9,14.7v16.9c0,3.3,2.7,6,6,6H1.4c3.3,0,6-2.7,6-6V14.7
		c0-3.3-2.7-6-6-6h-16.9c-0.2-7-12-6.3-12-6.3c5.2,1.7,4.8,5.1,4.5,6.3C-26.3,8.7-28.9,11.4-28.9,14.7z M3.8,14.7v16.9
		c0,1.3-1.1,2.4-2.4,2.4h-24.3c-1.3,0-2.4-1.1-2.4-2.4V14.7c0-1.3,1.1-2.4,2.4-2.4H1.4C2.7,12.3,3.8,13.4,3.8,14.7z M-5.2,23.2
		c0-1.7,1.4-3.2,3.2-3.2c1.7,0,3.2,1.4,3.2,3.2c0,1.7-1.4,3.2-3.2,3.2C-3.8,26.3-5.2,24.9-5.2,23.2z M-22.8,23.2
		c0-1.7,1.4-3.2,3.2-3.2c1.7,0,3.2,1.4,3.2,3.2c0,1.7-1.4,3.2-3.2,3.2C-21.4,26.3-22.8,24.9-22.8,23.2z M-14,23.2
		c0-1.7,1.4-3.2,3.2-3.2c1.7,0,3.2,1.4,3.2,3.2c0,1.7-1.4,3.2-3.2,3.2C-12.6,26.3-14,24.9-14,23.2z M-31.6-12.9
		c0-4.3,3.5-7.8,7.8-7.8s7.8,3.5,7.8,7.8s-3.5,7.8-7.8,7.8C-28.1-5.2-31.6-8.7-31.6-12.9z M-9.8-32.6c0,5.7-6.3,10.4-14,10.4
		s-14-4.6-14-10.4c0-1.6,0.5-3.2,1.4-4.6c4.1-0.3,8.3-0.4,12.6-0.4s8.5,0.2,12.6,0.4C-10.3-35.8-9.8-34.3-9.8-32.6z M16.1-12.9
		c0-4.3,3.5-7.8,7.8-7.8s7.8,3.5,7.8,7.8s-3.5,7.8-7.8,7.8C19.5-5.2,16.1-8.7,16.1-12.9z M37.8-32.6c0,5.7-6.3,10.4-14,10.4
		s-14-4.6-14-10.4c0-1.6,0.5-3.2,1.4-4.6c4.1-0.3,8.3-0.4,12.6-0.4s8.5,0.2,12.6,0.4C37.3-35.8,37.8-34.3,37.8-32.6z"/>
</symbol>
<symbol  id="fl-icon-lock" viewBox="-119.4 -140 238.9 280">
	<path class="st7" d="M98.8,57.3H71.1v56.2c0,14.6-11.9,26.5-26.5,26.5h-89.1c-14.6,0-26.5-11.8-26.5-26.5V57.3h-27.7
		c-11.4,0-20.7-9.2-20.7-20.6v-156.1c0-11.4,9.2-20.6,20.7-20.6H98.8c11.4,0,20.7,9.2,20.7,20.6v156C119.4,48,110.2,57.3,98.8,57.3z
		 M13.9-59.9v-27.6c0-3.4-1.3-6.5-3.3-8.9v-0.1h-0.1c-2.5-2.9-6.2-4.8-10.4-4.8c-4.1,0-7.8,1.9-10.3,4.8h-0.1v0.1
		c-2.1,2.4-3.3,5.5-3.3,8.9v27.6C-21-55.3-26-47.1-26-37.7c0,14.4,11.7,26.1,26.1,26.1s26.1-11.7,26.1-26.1
		C26.2-47.1,21.3-55.3,13.9-59.9z M44.5,57.3h-88.7v50.2c0,3.2,2.6,5.8,5.8,5.8h77.1c3.2,0,5.8-2.6,5.8-5.8V57.3z"/>
</symbol>
<symbol  id="fl-icon-mobile" viewBox="-42.1 -82.8 84.2 165.7">
	<path class="st7" d="M30.7,62.4h-48.3v16.5c0,2.1-1.7,3.9-3.9,3.9h-7.3c-2.1,0-3.9-1.7-3.9-3.9V62.2c-5.3-1.1-9.4-5.8-9.4-11.4
		V-71.2c0-6.4,5.2-11.6,11.6-11.6h61c6.4,0,11.6,5.2,11.6,11.6V50.8C42.4,57.2,37.1,62.4,30.7,62.4z M30.7,50.4v-64.9
		c0-1.1-0.9-1.9-1.9-1.9h-58.5c-1.1,0-1.9,0.9-1.9,1.9v64.9c0,1.1,0.9,1.9,1.9,1.9h58.5C29.9,52.4,30.7,51.5,30.7,50.4z M-13.9-69.5
		c0-1.1-0.9-1.9-1.9-1.9h-13.9c-1.1,0-1.9,0.9-1.9,1.9v4.2c0,1.1,0.9,1.9,1.9,1.9h13.9c1.1,0,1.9-0.9,1.9-1.9V-69.5z M-13.9-57.1
		c0-1.1-0.9-1.9-1.9-1.9h-13.9c-1.1,0-1.9,0.9-1.9,1.9v4.2c0,1.1,0.9,1.9,1.9,1.9h13.9c1.1,0,1.9-0.9,1.9-1.9V-57.1z M-13.9-44.7
		c0-1.1-0.9-1.9-1.9-1.9h-13.9c-1.1,0-1.9,0.9-1.9,1.9v4.2c0,1.1,0.9,1.9,1.9,1.9h13.9c1.1,0,1.9-0.9,1.9-1.9V-44.7z M-13.9-32.2
		c0-1.1-0.9-1.9-1.9-1.9h-13.9c-1.1,0-1.9,0.9-1.9,1.9v4.2c0,1.1,0.9,1.9,1.9,1.9h13.9c1.1,0,1.9-0.9,1.9-1.9V-32.2z M9.1-69.5
		c0-1.1-0.9-1.9-1.9-1.9H-6.7c-1.1,0-1.9,0.9-1.9,1.9v4.2c0,1.1,0.9,1.9,1.9,1.9H7.1c1.1,0,1.9-0.9,1.9-1.9L9.1-69.5L9.1-69.5z
		 M9.1-57.1c0-1.1-0.9-1.9-1.9-1.9H-6.7c-1.1,0-1.9,0.9-1.9,1.9v4.2c0,1.1,0.9,1.9,1.9,1.9H7.1C8.2-51,9-51.9,9-52.9L9.1-57.1
		L9.1-57.1z M9.1-44.7c0-1.1-0.9-1.9-1.9-1.9H-6.7c-1.1,0-1.9,0.9-1.9,1.9v4.2c0,1.1,0.9,1.9,1.9,1.9H7.1c1.1,0,1.9-0.9,1.9-1.9
		L9.1-44.7L9.1-44.7z M9.1-32.2c0-1.1-0.9-1.9-1.9-1.9H-6.7c-1.1,0-1.9,0.9-1.9,1.9v4.2c0,1.1,0.9,1.9,1.9,1.9H7.1
		C8.2-26.1,9-27,9-28L9.1-32.2L9.1-32.2z M32-69.5c0-1.1-0.9-1.9-1.9-1.9H16.2c-1.1,0-1.9,0.9-1.9,1.9v4.2c0,1.1,0.9,1.9,1.9,1.9
		h13.9c1.1,0,1.9-0.9,1.9-1.9V-69.5z M32-57.1c0-1.1-0.9-1.9-1.9-1.9H16.2c-1.1,0-1.9,0.9-1.9,1.9v4.2c0,1.1,0.9,1.9,1.9,1.9h13.9
		c1.1,0,1.9-0.9,1.9-1.9V-57.1z M32-44.7c0-1.1-0.9-1.9-1.9-1.9H16.2c-1.1,0-1.9,0.9-1.9,1.9v4.2c0,1.1,0.9,1.9,1.9,1.9h13.9
		c1.1,0,1.9-0.9,1.9-1.9V-44.7z M32-32.2c0-1.1-0.9-1.9-1.9-1.9H16.2c-1.1,0-1.9,0.9-1.9,1.9v4.2c0,1.1,0.9,1.9,1.9,1.9h13.9
		c1.1,0,1.9-0.9,1.9-1.9V-32.2z"/>
</symbol>
<symbol  id="fl-icon-pencil" viewBox="-17.6 -17.6 35.2 35.2">
	<polygon class="st15" points="16.9,12.1 12.1,16.9 -12.7,-7.9 -14.9,-14.9 -7.9,-12.7 	"/>
	<line class="st15" x1="8.2" y1="12.9" x2="13" y2="8.2"/>
	<path class="st6" d="M-11.9-7.1l4.8-4.8 M10.6,10.6l-20.1-20 M-14.9-14.9l-2-2"/>
</symbol>
<symbol  id="fl-icon-phone" viewBox="-25 -21.5 50 42.9">
	<g>
		<path class="st7" d="M20.4,1.1L20.4,1.1c-0.6,0-1.2,0.2-1.7,0.5l-7.2,5.1C11.2,7,11,7.2,11,7.6v4c0,1.7-1.3,3-3,3H-8
			c-1.7,0-3-1.3-3-3v-4c0-0.3-0.2-0.6-0.4-0.8l-7.2-5.1c-1.1-0.8-2.7-0.7-3.8,0.2c-0.4,0.4-1,0.9-1.6,1.5s-1,1.8-1,3.6
			c0,2.9,0.9,6.9,3,8.8c1.4,1.3,7.1,5.7,22,5.7s20.6-4.4,22-5.7c2-2,3-6,3-8.8c0-1.7-0.3-2.9-1-3.6c-0.7-0.6-1.2-1.2-1.6-1.5
			C21.8,1.4,21.1,1.1,20.4,1.1z M13,8.1l6.8-4.8c0.4-0.2,0.9-0.2,1.2,0.1c0.4,0.4,0.9,0.9,1.6,1.5c0.8,0.8,0.4,7.2-2,9.5
			c-1.3,1.2-6.4,5.3-20.6,5.3s-19.4-4.1-20.6-5.3c-2.4-2.3-2.8-8.7-2-9.5c0.6-0.6,1.2-1.1,1.6-1.5c0.3-0.3,0.9-0.3,1.3-0.1l6.7,4.8
			v3.5c0,2.8,2.2,5,5,5H8c2.8,0,5-2.2,5-5V8.1z"/>
		<path class="st7" d="M0-14.4c-5,0-9,4-9,9s4,9,9,9s9-4,9-9S5-14.4,0-14.4z M0,1.7c-3.9,0-7.1-3.2-7.1-7.1s3.2-7.1,7.1-7.1
			s7.1,3.2,7.1,7.1S3.9,1.7,0,1.7z"/>
		<path class="st7" d="M16-21.5h-32c-2.8,0-5,2.2-5,5v4c0,0.1,0,0.2,0.1,0.3l3.8,11.2c0.1,0.2,0.2,0.4,0.4,0.5L-9,5.1v4.5
			c0,1.7,1.3,3,3,3s3-1.3,3-3h6c0,1.7,1.3,3,3,3s3-1.3,3-3V5.1l7.8-5.5c0.2-0.1,0.3-0.3,0.4-0.5L21-12.1c0-0.1,0.1-0.2,0.1-0.3v-4
			C21-19.2,18.8-21.5,16-21.5z M-19-12.6v-3.8c0-1.7,1.3-3,3-3h32c1.7,0,3,1.3,3,3v3.8L15.4-1.8l-8,5.6C7.2,4,7,4.2,7,4.6v5
			c0,0.6-0.4,1-1,1s-1-0.4-1-1v-1c0-0.6-0.4-1-1-1h-8c-0.6,0-1,0.4-1,1v1c0,0.6-0.4,1-1,1s-1-0.4-1-1v-5C-7,4.2-7.2,4-7.4,3.8
			l-7.9-5.6L-19-12.6z"/>
	</g>
</symbol>
<symbol  id="fl-icon-q-and-a" viewBox="-27 -24 54 48">
	<path class="st7" d="M6.9-13l1.4,4h5.4l1.4-4H17L12,1h-2L5-13H6.9z M11-1.4L13-7H9L11-1.4z M6,5v14c0,2.8-2.2,5-5,5h-23
		c-2.8,0-5-2.2-5-5V5c0-2.8,2.2-5,5-5h3v-5c0-0.4,0.2-0.8,0.6-0.9C-18.3-6-18.1-6-18-6c0.2,0,0.5,0.1,0.7,0.3l6.2,5.7H1
		C3.8,0,6,2.2,6,5z M-11.5,2c-0.3,0-0.5-0.1-0.7-0.3L-17-2.7V1c0,0.6-0.4,1-1,1h-4c-1.7,0-3,1.3-3,3v14c0,1.7,1.3,3,3,3H1
		c1.7,0,3-1.3,3-3V5c0-1.7-1.3-3-3-3H-11.5z M-5,12c0,3.9-2.7,7-6,7s-6-3.1-6-7s2.7-7,6-7c1,0,2,0.3,2.8,0.8l2-2l1.4,1.4l-1.9,1.9
		C-5.7,8.4-5,10.1-5,12z M-7.9,8.3l-1.9,1.9l-1.4-1.4l1.7-1.7c-0.5-0.2-1-0.4-1.5-0.4c-2.3,0-4.2,2.4-4.2,5.3s1.9,5.3,4.2,5.3
		s4.2-2.4,4.2-5.3C-6.8,10.6-7.2,9.3-7.9,8.3z M22,6H8V4h14c1.7,0,3-1.3,3-3v-14c0-1.7-1.3-3-3-3h-4c-0.6,0-1-0.4-1-1v-3.7l-4.8,4.5
		C12-16.1,11.8-16,11.5-16H-1c-1.7,0-3,1.3-3,3v11h-2v-11c0-2.8,2.2-5,5-5h12.1l6.2-5.7c0.2-0.2,0.4-0.3,0.7-0.3
		c0.1,0,0.3,0,0.4,0.1c0.4,0.2,0.6,0.5,0.6,0.9v5h3c2.8,0,5,2.2,5,5V1C27,3.8,24.8,6,22,6z"/>
</symbol>
<symbol  id="fl-icon-register" viewBox="-38.5 -33.6 77 67.2">
	<path class="st7" d="M27.4,33.6h-54.7c-3.4,0-6.1-2.8-6.1-6.1V-8.6h66.9v36.1C33.5,30.8,30.8,33.6,27.4,33.6z M28.2-2.8h-56.3v30.9
		h56.3V-2.8z M37.9-24.9l-4.4,14.2h-67l-4.4-14.2c-1.5-4.8-0.1-8.7,3-8.7h69.8C38.1-33.6,39.4-29.7,37.9-24.9z M24.6-12h1.7
		c0.7,0,1.3-0.2,1.5-0.4l0.3-0.6c0.1-0.2-0.3-0.4-1-0.4h-1.8c-0.7,0-1.3,0.2-1.5,0.4l-0.3,0.5C23.4-12.2,23.9-12,24.6-12z M18.3-12
		H20c0.7,0,1.3-0.2,1.4-0.4l0.2-0.5c0.1-0.2-0.4-0.4-1.1-0.4h-1.8c-0.7,0-1.3,0.2-1.4,0.4l-0.2,0.5C17.1-12.2,17.6-12,18.3-12z
		 M5.5-12h1.7c0.7,0,1.3-0.2,1.3-0.4L8.6-13c0-0.2-0.5-0.4-1.2-0.4H5.6c-0.7,0-1.3,0.2-1.3,0.4l-0.1,0.5C4.3-12.2,4.8-12,5.5-12z
		 M-2.1-12.4c0,0.2,0.6,0.4,1.2,0.4h1.7c0.7,0,1.3-0.2,1.3-0.4V-13c0-0.2-0.5-0.4-1.2-0.4h-1.8c-0.7,0-1.3,0.2-1.2,0.4V-12.4z
		 M-2.1-14.6c0,0.2,0.6,0.4,1.3,0.4H1c0.7,0,1.3-0.2,1.3-0.4v-0.5c0-0.2-0.6-0.4-1.3-0.4h-1.9c-0.7,0-1.3,0.2-1.3,0.4L-2.1-14.6z
		 M-8.5-12.4c0,0.2,0.6,0.4,1.3,0.4h1.7c0.7,0,1.2-0.2,1.2-0.4V-13c0-0.2-0.6-0.4-1.3-0.4h-1.8c-0.7,0-1.2,0.2-1.2,0.4L-8.5-12.4z
		 M-8.8-14.6c0,0.2,0.6,0.4,1.4,0.4h1.8c0.7,0,1.3-0.2,1.2-0.4v-0.5c0-0.2-0.6-0.4-1.4-0.4h-1.8c-0.7,0-1.3,0.2-1.2,0.4V-14.6z
		 M-14.9-12.4c0.1,0.2,0.7,0.4,1.3,0.4h1.7c0.7,0,1.2-0.2,1.1-0.4l-0.1-0.5c0-0.2-0.7-0.4-1.4-0.4h-1.6c-0.7,0-1.2,0.2-1.1,0.4
		L-14.9-12.4z M-15.5-14.6c0.1,0.2,0.7,0.4,1.4,0.4h1.8c0.7,0,1.2-0.2,1.2-0.4l-0.1-0.5c0-0.2-0.7-0.4-1.4-0.4h-1.8
		c-0.7,0-1.3,0.2-1.2,0.4L-15.5-14.6z M-21.5-13l0.2,0.5c0.1,0.2,0.7,0.4,1.4,0.4h1.7c0.7,0,1.2-0.2,1.1-0.4l-0.2-0.5
		c-0.1-0.2-0.7-0.4-1.4-0.4h-1.8C-21.1-13.4-21.6-13.2-21.5-13z M-27.9-13l0.3,0.5c0.1,0.2,0.8,0.4,1.5,0.4h1.7c0.7,0,1.1-0.2,1-0.4
		l-0.3-0.5c-0.1-0.2-0.8-0.4-1.5-0.4h-1.7C-27.6-13.4-28.1-13.2-27.9-13z M-29.2-15.2l0.3,0.5c0.1,0.2,0.8,0.4,1.5,0.4h8.5
		c0.7,0,1.2-0.2,1.1-0.4l-0.2-0.5c-0.1-0.2-0.7-0.4-1.5-0.4h-8.7C-28.9-15.6-29.4-15.4-29.2-15.2z M-25.7-17l-0.3-0.5
		c-0.1-0.2-0.8-0.4-1.6-0.4h-1.9c-0.8,0-1.3,0.2-1.1,0.4l0.3,0.5c0.1,0.2,0.8,0.4,1.6,0.4h1.9C-26.1-16.6-25.6-16.8-25.7-17z
		 M-23.7-17.6l0.3,0.6c0.1,0.2,0.8,0.4,1.5,0.4H6.8c0.7,0,1.4-0.2,1.4-0.4l0.1-0.6C8.3-17.8,7.7-18,7-18h-29.4
		C-23.2-18-23.8-17.8-23.7-17.6z M-8.6-25.3l3.5,4.5H5.3l3.5-4.5H-8.6z M7.8-15.6H5.9c-0.7,0-1.3,0.2-1.4,0.4l-0.1,0.5
		c0,0.2,0.5,0.4,1.2,0.4h1.8c0.7,0,1.3-0.2,1.4-0.4l0.1-0.5C9.1-15.4,8.5-15.6,7.8-15.6z M10.8-13l-0.1,0.5c0,0.2,0.5,0.4,1.1,0.4
		h1.7c0.7,0,1.3-0.2,1.3-0.4L15-13c0.1-0.2-0.4-0.4-1.1-0.4h-1.8C11.4-13.4,10.8-13.2,10.8-13z M11.3-15.2l-0.1,0.5
		c0,0.2,0.5,0.4,1.2,0.4h1.8c0.7,0,1.3-0.2,1.4-0.4l0.2-0.5c0.1-0.2-0.5-0.4-1.2-0.4h-1.8C12-15.6,11.4-15.4,11.3-15.2z M16.6-17.9
		h-1.9c-0.8,0-1.4,0.2-1.5,0.4c-0.1,0.2,0.5,0.4,1.3,0.4h1.9c0.7,0,1.4-0.2,1.5-0.4C17.9-17.8,17.3-17.9,16.6-17.9z M18.1-15.2
		l-0.2,0.5c-0.1,0.2,0.4,0.4,1.1,0.4h8.5c0.7,0,1.4-0.2,1.5-0.4l0.3-0.5c0.1-0.2-0.4-0.4-1.1-0.4h-8.7
		C18.9-15.6,18.2-15.4,18.1-15.2z M19.2-16.4c-0.1,0.2,0.5,0.4,1.2,0.4h1.9c0.7,0,1.4-0.2,1.5-0.4c0.1-0.2-0.4-0.4-1.2-0.4h-1.9
		C20-16.8,19.3-16.6,19.2-16.4z M23.1-17.9h-1.9c-0.8,0-1.4,0.2-1.5,0.4c-0.1,0.2,0.5,0.4,1.2,0.4h1.9c0.7,0,1.4-0.2,1.5-0.4
		C24.4-17.8,23.9-17.9,23.1-17.9z M29.6-17.9h-1.9c-0.8,0-1.5,0.2-1.6,0.4c-0.1,0.2,0.4,0.4,1.2,0.4h1.9c0.7,0,1.5-0.2,1.6-0.4
		C30.9-17.8,30.4-17.9,29.6-17.9z M-14.7,9.6l-3.8,4.7l-1.6-3l-3.3,11.1l10.2-5.4l-3.3-1l3.8-4.7L-14.7,9.6z"/>
</symbol>
<symbol  id="fl-icon-register-tablet" viewBox="-53.4 -43.1 106.7 86.1">
	<path class="st7" d="M-31.9,24.5c1.6,0,2.8-1.3,2.8-2.8c0-1.6-1.3-2.8-2.8-2.8c-1.6,0-2.8,1.3-2.8,2.8
		C-34.8,23.2-33.5,24.5-31.9,24.5 M-26.9,13.6c0,2.5-2.3,4.6-5.1,4.6c-2.8,0-5.1-2-5.1-4.6c0-0.7,0.2-1.4,0.5-2
		c1.5-0.1,3-0.2,4.6-0.2c1.6,0,3.1,0.1,4.6,0.2C-27.1,12.2-26.9,12.9-26.9,13.6 M40.4-0.4c-0.8-0.3-1.5-0.8-2-1.3
		C37.1-0.6,35-0.3,33-1.1c-0.9-0.4-1.7-1-2.3-1.7c-1.3,1.1-3.4,1.4-5.4,0.7c-0.8-0.3-1.4-0.7-1.9-1.3l-3,7.5c-1.2,3-4.4,4.7-7.1,3.6
		c-2.8-1.1-3.9-4.5-2.7-7.5l7.1-17.6L15.9-17c-2.8,0.7-5,0.2-6.6-1.7c-0.7-0.8-1-1.8-0.9-2.8c0.3-2,2.3-3.4,2.5-3.6
		c0.1,0,6.9-4.9,9.5-7.3c3.9-3.5,11.1-10.2,11.1-10.3c0.4-0.4,1-0.5,1.6-0.3l19.3,7.8c0.6,0.2,1,0.8,0.9,1.4
		c0,0.4-0.6,10.9-1.7,15.5c-1.1,4.8-5.1,15.4-5.3,15.9C45.5-0.2,42.9,0.6,40.4-0.4 M21.3,4.5l0.3-0.8c1.1,2.3,1.2,4.9,0.2,7.4
		c-1.9,4.8-7.3,7.1-12,5.2C5,14.3,2.7,8.8,4.6,4.2c1-2.5,3-4.3,5.3-5.2L9.6-0.2C9.3,0.5,9.1,1.2,9.1,1.9C8,2.7,7.1,3.7,6.6,5
		c-1.5,3.6,0.3,7.8,3.9,9.3s7.8-0.3,9.3-3.9c0.5-1.3,0.6-2.6,0.4-3.9C20.7,5.8,21,5.2,21.3,4.5 M12.5-7.4l-0.9,2.3
		c-4.5,0.6-8.5,3.5-10.3,8C-1.4,9.4,1.8,17,8.5,19.6c6.6,2.7,14.2-0.5,16.8-7.2c1.8-4.5,0.9-9.4-1.9-12.9l0.5-1.2
		c0.3,0.2,0.7,0.4,1.1,0.5c0.3,0.1,0.6,0.2,0.8,0.3c2.7,4,3.5,9.3,1.5,14.2C24.2,21,15.4,24.9,7.6,21.8C-0.2,18.6-3.9,9.6-0.8,2
		C1.5-3.6,6.8-7.1,12.5-7.4 M18.4-34.5c-2.2,2-8.1,6.2-9.2,7c-0.4,0.3-1.7,1.2-2.7,2.8h-49.9v57.3h80.2V2.2c0.4-0.1,0.9-0.2,1.3-0.3
		c0.4,0.2,0.8,0.4,1.2,0.6C40.4,2.9,41.5,3,42.6,3c1.7,0,3.2-0.5,4.4-1.4v37.5c0,2.2-1.8,3.9-3.9,3.9h-92.6c-2.2,0-3.9-1.8-3.9-3.9
		v-70.4c0-2.2,1.8-3.9,3.9-3.9h68.8C18.9-34.8,18.6-34.6,18.4-34.5 M-3.3,40.2c1.2,0,2.1-0.9,2.1-2.1c0-1.2-1-2.1-2.1-2.1
		c-1.2,0-2.1,0.9-2.1,2.1C-5.5,39.2-4.5,40.2-3.3,40.2 M1.6-31.3h-9.8c-0.9,0-1.6,0.7-1.6,1.6s0.7,1.6,1.6,1.6h9.8
		c0.9,0,1.6-0.7,1.6-1.6C3.1-30.6,2.4-31.3,1.6-31.3 M-3.3,22.8c0,0.8-0.7,1.5-1.5,1.5h-16.8c-0.8,0-1.5-0.7-1.5-1.5
		s0.7-1.5,1.5-1.5h16.8C-4,21.2-3.3,21.9-3.3,22.8 M-3.3-6.5C-3.3-5.7-4-5-4.8-5h-33.4c-0.8,0-1.5-0.7-1.5-1.5s0.7-1.5,1.5-1.5h33.4
		C-4-8.1-3.3-7.4-3.3-6.5 M-3.3,3.2C-3.3,4-4,4.7-4.8,4.7h-33.4c-0.8,0-1.5-0.7-1.5-1.5s0.7-1.5,1.5-1.5h33.4
		C-4,1.7-3.3,2.4-3.3,3.2 M-3.3,12.9c0,0.8-0.7,1.5-1.5,1.5h-16.8c-0.8,0-1.5-0.7-1.5-1.5s0.7-1.5,1.5-1.5h16.8
		C-4,11.4-3.3,12.1-3.3,12.9"/>
</symbol>
<symbol  id="fl-icon-selfie" viewBox="-37 -38 74 76.1">
	<path class="st7" d="M-26.8-8.5l4.2-0.7l0,0c-0.7-1-0.9-2.3-0.6-3.7L-37-10.5l13.5,8.4c0-0.2,0.1-0.4,0.1-0.6c0.3-1.1,1-2,1.7-2.6
		L-26.8-8.5z"/>
	<path class="st7" d="M31.4,23.5L22.9,10c-0.3,0-0.5-0.1-0.8-0.2c-2.4-0.7-4-2.5-4.5-5.3c0-0.1-0.1-0.3-0.1-0.4L17.2,8l4.7,7.4
		l-6.9-3c-0.7,0.4-1.5,0.6-2.4,0.6s-1.8-0.2-3.1-0.5c-0.3-0.1-0.7-0.2-1-0.4L7.6,24.6l-8-15.5l-17.5,10.5l9-17L-11.4,1
		c0,0.4-0.1,0.8-0.2,1.2C-12,3.8-13,4.8-14.5,5.1l-12.9,24.5l25.5-15.4L10.3,38L12,15.3L31.4,23.5z"/>
	<path class="st7" d="M27.1,2.6l-1-1.6c-0.5-0.7-0.9-1.2-1.2-1.5L23.8,0C25,0.7,26,1.7,26.7,2.8L27.1,2.6z"/>
	<path class="st7" d="M18.1-9.2L22.8-31L4-20.1L-7.8-38l-2.1,22.8l-2,0.4c1.1,0.8,1.9,1.9,2.4,3c0.8-1,2-1.6,3.2-1.7l1.2-13.6
		l7.9,12l0.1-0.1c0.6-0.7,1.5-1.2,2.4-1.4l12.1-7.1L13.9-7.1c0.5-0.3,1.1-0.4,1.8-0.4c0.5,0,1.1,0.1,1.6,0.2c1.1,0.3,2,1.2,2.8,2.3
		c0.7-0.4,1.5-0.7,2.4-0.7c0.5,0,1,0.1,1.5,0.2C29-4,29-1,28.5,0.7l-0.4,1.5l8.9-4L18.1-9.2z"/>
	<g>
		<path class="st7" d="M-14.1-1.1c-0.4-0.1-0.8-0.1-1.2,0.2c0.5,0.6,0.7,1.6,0.5,2.4S-15.7,3-17,2.6s-2-1.4-1.6-2.7
			c1-3.8,6.5-2.5,8-7.8c0.9-3.4-0.9-6.3-4.8-7.3c-1.9-0.5-5.4-1.1-6.4,2.4c-0.6,2.3,0.7,3.9,2.6,4.4c1.1,0.3,1.8,0.1,2.3-0.7
			c-1.9-0.7-2.5-1.8-2.1-3.4s1.9-2,3-1.6c1.9,0.5,2.2,2.4,1.7,4.2c-1.3,4.5-6.7,4-7.7,7.6c-0.7,2.5,1.6,5.3,4.5,6
			c1.3,0.4,4.1,0.9,4.8-1.8C-12.5,0.6-12.9-0.7-14.1-1.1z"/>
		<path class="st7" d="M-3.7-9.9c1.2,0.3,2.8,2.3,3.1,4.3l1.1,0.3c-0.7-2.8-2.3-5.9-5.4-6.8c-2.3-0.6-4,0.8-4.6,2.8
			c-0.8,3-1,8.7,3.3,10c2,0.5,3.3,0,3.8-1.6c0.8-2.9-1.9-5.5-4.1-6.4c0.1-0.4,0.1-0.8,0.2-1C-5.8-10-4.7-10.2-3.7-9.9z M-5-0.4
			c-1.3-0.4-1.7-3.4-1.6-5.8c2.2,0.6,3.2,3,2.8,4.7C-4-1-4.3-0.2-5-0.4z"/>
		<path class="st7" d="M2,7.9L2.9-5.8c0-0.4,0-0.6,0.1-0.8c0.1-0.5,0.5-0.8,1.4-0.6c1,0.3,1.8,2,2.6,3L7.8-4C7-5.4,5.2-9.3,3.3-9.9
			c-1.8-0.5-3.2,0-3.7,1.8c-0.1,0.4-0.2,0.8-0.2,1.3L-1.4,6.4L2,7.9z"/>
		<path class="st7" d="M12.3,8.3c-0.2,0.6-0.1,1.3,0.4,1.4c0,0,0.1,0,0.2,0c-0.2,0.6-0.9,0.6-1.5,0.5c-1.5-0.4-2.3-2-2.2-3.4
			l0.1-2.1l2.4,0.7l0.1-1L9.4,3.7L10.2-10c0.2-3.6-1.6-4.8-3.2-5.3c-1.5-0.4-3.1,0.2-3.5,1.8c-0.6,2.2,1.1,3.4,3.1,4.8L5.7,5.8
			c-0.2,3.6,2.6,5.1,4.1,5.5c2.2,0.6,5,1,5.7-1.6c0.3-1.1-0.4-2-1.2-2.2C13.3,7.2,12.6,7.3,12.3,8.3z M5.9-13.3
			c0.5,0.1,1,0.8,0.9,2.3L6.7-9.6c-1.4-0.9-2.3-1.9-2-3.2C4.8-13.1,5.3-13.4,5.9-13.3z M16,6.6L16.5-2c0-0.3,0-0.6,0.1-0.8
			c0.1-0.5,0.5-0.8,1.4-0.6c1,0.3,1.8,2,2.6,3l0.8,0.2C20.7-1.6,18.9-5.5,17-6s-3.2,0-3.7,1.8c-0.1,0.4-0.2,0.8-0.2,1.3l-0.6,8.6
			L16,6.6z"/>
		<path class="st7" d="M19.1-1.3c-0.8,3-1,8.7,3.3,10c2,0.5,3.3,0,3.8-1.6c0.8-2.9-1.9-5.5-4.1-6.4c0.1-0.4,0.1-0.8,0.2-1
			c0.4-1.6,1.4-1.8,2.3-1.6c1.1,0.3,1.9,1.2,2.6,2.4C27.9-2.1,26-3.3,23.6-4C21.4-4.8,19.7-3.4,19.1-1.3z M23.5,7.6
			c-1.3-0.4-1.7-3.4-1.6-5.8c2.2,0.6,3.2,3,2.8,4.7C24.6,7,24.3,7.8,23.5,7.6z"/>
	</g>
</symbol>
<symbol  id="fl-icon-skill-db" viewBox="-16.9 -16.9 33.7 33.7">
	<path class="st16" d="M0,15.9c8.8,0,15.9-7.1,15.9-15.9S8.8-15.9,0-15.9S-15.9-8.8-15.9,0S-8.8,15.9,0,15.9L0,15.9z"/>
	<line class="st2" x1="0" y1="15.9" x2="0" y2="10.5"/>
	<line class="st2" x1="-15.9" y1="0" x2="-10.5" y2="0"/>
	<line class="st2" x1="0" y1="-15.9" x2="0" y2="-10.5"/>
	<line class="st2" x1="15.9" y1="0" x2="10.5" y2="0"/>
	<path class="st2" d="M8.1-10.5C8.2-9.6,8.3-7.2,6.9-6C5.7-4.9,4-4.9,2.9-4C1.8-3,1.6-1.8,2.5-0.4c0.7,1.1,1.2,2.7,1.2,4.1
		C3.7,6,2.1,7.8,0,7.8s-3.7-1.9-3.7-4.1c0-1.4,0.5-3,1.2-4.1C-1.6-1.8-1.8-3-2.9-4s-2.8-0.9-4-2C-8.3-7.2-8.2-9.6-8-10.5"/>
	<path class="st2" d="M-10.7-7.7c0.2,1.4,0.6,3,1.7,4c1,0.9,1.8,0.6,2.6,1.4c0.9,0.8,1,1.4,0.3,2.5C-6.6,1-7,2.3-7,3.3
		c0,1.8,1.2,3.2,2.9,3.2c0.4,0,0.8-0.1,1.2-0.3"/>
	<path class="st2" d="M10.7-7.7c-0.2,1.4-0.6,3-1.7,4C8-2.8,7.2-3.1,6.4-2.3c-0.9,0.8-1,1.4-0.3,2.5C6.6,1,7,2.3,7,3.3
		c0,1.8-1.2,3.2-2.9,3.2C3.7,6.6,3.4,6.5,3,6.3"/>
</symbol>
<symbol  id="fl-icon-tent" viewBox="-41.9 -34.8 83.8 69.5">
	<path class="st7" d="M-1.1,26.3c0.6-0.1,1.2-0.1,1.7,0.2C2.9,27.5,5,27,7.1,25c0.2-0.2,0.4-0.2,0.5-0.2l0,0l0.8,0.6v0.2
		c0,0.1,0,0.3,0,0.4v2.1c0,1.5,0,3.1,0,4.6c0,0.3,0,1.1-0.8,1.4c-1.2,0.4-2.2,0.6-3.1,0.6c-1.2,0-2.3-0.3-3.3-0.9
		C0,33.1-1.4,33-2.6,33c-0.2,0-0.4,0-0.5,0h-0.4c-0.4,0-0.7,0-1.1,0h-2l-0.7-1C-5.5,29.3-3.8,26.9-1.1,26.3z"/>
	<path class="st7" d="M41.8-15.5l-0.2-0.1l0.1,0.3l-0.1,0.1c-0.2,0.5-0.6,0.9-1.1,1.1C36-9.2,14,14.1,8.3,23.2H7.1
		c-2.5-4-8.5-11.4-17.5-21.4c-2.5,3-4.2,5.3-5.2,6.9h-0.2l0.7,0.6v0.1c0,0.1,0,0.2,0,0.3V11c0,0.9,0,1.8,0,2.8
		c0,0.6-0.2,0.9-0.7,1.1c-0.7,0.3-1.4,0.4-2,0.4c-0.8,0-1.5-0.2-2.1-0.6c-0.7-0.4-1.4-0.4-2.2-0.4h-1.3h-1.2l-0.6-1.1
		c1.1-1.7,2.2-3.2,3.9-3.5c0.1,0,0.3,0,0.4,0c0.3,0,0.6,0.1,0.8,0.2c1.3,0.6,2.4,0.3,3.6-0.9c0,0,0.1-0.1,0.2-0.1H-17
		C-21,2-37.4-15.4-40.8-19c-0.4-0.2-0.6-0.5-0.8-0.9l-0.1-0.1l0,0l0,0l0,0l0.1-0.3l-0.2,0.1c-0.1-0.2-0.1-0.5-0.1-0.7v-11.7
		c0-1.2,1-2.2,2.3-2.2h19.9L-19-34v16.2c0,0.8,0.5,1.4,1.2,1.4h10.1c0.7,0,1.2-0.6,1.2-1.4V-34l0.7-0.7h6.6L1.4-34v16.2
		c0,0.8,0.5,1.4,1.2,1.4h10.1c0.7,0,1.2-0.6,1.2-1.4V-34l0.7-0.7H21l0.7,0.7v16.2c0,0.8,0.5,1.4,1.2,1.4H33c0.7,0,1.2-0.6,1.2-1.4
		V-34l0.7-0.7h4.2c1.5,0,2.8,1.2,2.8,2.7v15.6C41.9-16.1,41.8-15.8,41.8-15.5z M28.2-9.7L28.2-9.7C28-9.8,27.5-9.9,25.9-10h-8.6
		c-1,2.1-6.1,12.7-6.5,20.5C12.7,8,16.9,2.7,20.9-2c1.1-1.4,6.4-6.6,6.6-6.9C28-9.4,28.1-9.6,28.2-9.7z M4.6,10.4
		C4.2,2.6-0.8-7.9-1.9-10h-8.5l0,0c-1.6,0-2.1,0.2-2.3,0.2v0.1c0,0.1,0.2,0.3,0.7,0.8c0.2,0.2,5.4,5.5,6.6,6.8
		C-1.5,2.6,2.7,7.9,4.6,10.4z"/>
</symbol>
<symbol  id="fl-icon-time" viewBox="-52.1 -52.6 104.2 105.2">
	<g>
		<path class="st0" d="M-32.4-0.2c-0.6,2.9-1,6-1,9.1c0,23.1,18.7,41.7,41.7,41.7S50.1,32,50.1,8.9S31.4-32.8,8.4-32.8
			c-0.4,0-0.8,0-1.2,0"/>
		<path class="st17" d="M-20.3-6.3c0,0,5.6,0.5,9.3-0.6"/>
		<g>
			<g>
				<line class="st18" x1="8.3" y1="43.3" x2="8.3" y2="36.1"/>
				<line class="st18" x1="25.5" y1="38.7" x2="21.9" y2="32.5"/>
				<line class="st18" x1="38.1" y1="26.1" x2="31.9" y2="22.5"/>
				<line class="st18" x1="42.7" y1="8.9" x2="35.5" y2="8.9"/>
				<line class="st18" x1="38.1" y1="-8.2" x2="31.9" y2="-4.7"/>
				<line class="st18" x1="25.5" y1="-20.8" x2="21.9" y2="-14.6"/>
				<line class="st18" x1="-26" y1="8.9" x2="-18.9" y2="8.9"/>
				<line class="st18" x1="-21.4" y1="26.1" x2="-15.2" y2="22.5"/>
				<line class="st18" x1="-8.8" y1="38.7" x2="-5.3" y2="32.5"/>
			</g>
			<g>
				<path class="st19" d="M6.7,10.4C5.9,9.5,6,8.1,6.9,7.3s2.2-0.7,3,0.2c0.8,0.9,0.7,2.2-0.2,3C8.9,11.3,7.5,11.2,6.7,10.4z"/>
				<line class="st18" x1="24.7" y1="27.2" x2="9.8" y2="10.5"/>
				<line class="st18" x1="-7.3" y1="22.9" x2="7.4" y2="9.8"/>
			</g>
		</g>
		<path class="st20" d="M9.5-18.8c0.7-2.3,2.5-3.3,4.2-1.8c3,2.6,2.2,4.7,1,4.6c-3.5-0.3,1.5-6.4,3.8-3.7"/>
	</g>
	<g>
		<path class="st8" d="M-33.5-1.9c1.9,0,3.5-0.9,4.6-2.2c3.3,1.2,7,1.9,10.9,1.9c13,0,23.8-7.5,26-17.4c0.5-2.1,0.4-3.6,0.4-3.6
			c0-0.1,0-0.1,0-0.2c0-5.6-2.7-10.6-7-14.4v-7.7c0-1.9-1.6-3.5-3.5-3.5h-4.1c-1.9,0-3.5,1.6-3.5,3.5v1.9c-2.6-0.7-5.4-1-8.2-1
			c-2.4,0-4.8,0.3-7.1,0.8v-1.6c0-1.9-1.6-3.5-3.5-3.5h-4.1c-2,0-3.5,1.6-3.5,3.5v6.7c-3.4,2.6-6,6-7.3,9.7h-3.4
			c-1.9,0-1.6,1.6-1.6,3.5v4.1c0,1.9-0.3,3.5,1.6,3.5h3.4c1.3,3.8,3.8,7.1,7.3,9.7v5.5C-35.4-2.2-34.5-1.9-33.5-1.9 M-33.5,1.1
			c-1.4,0-2.8-0.4-4.1-1.1l-1.6-0.8v-1.8v-4c-2.8-2.4-4.9-5.1-6.3-8.2h-1.4c-1.7,0-2.8-0.7-3.4-1.3c-1.4-1.4-1.3-3.1-1.3-4.6
			c0-0.2,0-0.4,0-0.7v-4.1c0-0.2,0-0.5,0-0.7c0-1.4-0.1-3.2,1.3-4.6c0.6-0.6,1.6-1.3,3.4-1.3h1.4c1.4-3,3.6-5.8,6.3-8.2v-5.3
			c0-3.6,2.9-6.5,6.5-6.5h4.1c3,0,5.5,2,6.3,4.7c1.4-0.2,2.9-0.3,4.3-0.3c1.8,0,3.7,0.1,5.5,0.4c0.8-2.8,3.3-4.8,6.3-4.8h4.1
			c3.6,0,6.5,2.9,6.5,6.5v6.3c4.6,4.4,7,9.9,7,15.7c0,0.1,0,0.1,0,0.2l0,0c0,0.4,0,2-0.5,4.2C8.4-7.5-3.8,0.8-18,0.8
			c-3.5,0-6.9-0.5-10.1-1.5C-29.6,0.5-31.5,1.1-33.5,1.1L-33.5,1.1z"/>
		<path class="st8" d="M-37.4-16.5c-1,0-1.8-0.8-1.8-1.8s0.8-1.8,1.8-1.8s1.8,0.8,1.8,1.8C-35.6-17.3-36.4-16.5-37.4-16.5
			L-37.4-16.5z"/>
	</g>
</symbol>
<symbol  id="fl-icon-training" viewBox="-18.7 -18.3 37.3 36.5">
	<path class="st21" d="M-4.1,9.1c0.5,0,0.9-0.4,0.9-0.8c0-0.5-0.4-0.8-0.9-0.8C-4.6,7.4-5,7.8-5,8.3C-5,8.8-4.6,9.1-4.1,9.1
		L-4.1,9.1z"/>
	<path class="st22" d="M-4.1,12.2c2.2,0,4-1.7,4-3.9s-1.8-3.9-4-3.9s-4,1.7-4,3.9C-8.1,10.4-6.3,12.2-4.1,12.2L-4.1,12.2z M4.1,12.2
		c2.2,0,4-1.7,4-3.9s-1.8-3.9-4-3.9s-4,1.7-4,3.9C0.2,10.4,2,12.2,4.1,12.2L4.1,12.2z"/>
	<path class="st21" d="M4.1,9.1C4.6,9.1,5,8.8,5,8.3c0-0.5-0.4-0.8-0.9-0.8S3.2,7.9,3.2,8.3C3.3,8.8,3.7,9.1,4.1,9.1L4.1,9.1z"/>
	<path class="st6" d="M2.8,4.5L0,1.5l-2.8,3.1 M-6.7-11.2c-3.3,0-6.8,8.2-6.8,11.1c0,3.7,2.4,3.4,2.4,7.4c0,3.9-2.1,6.6-1.9,10.2
		c1.5-0.7,3.5-1.4,5.7-2c2.2-0.6,4.7-1.1,7.2-1.1s5,0.5,7.2,1.1c2.2,0.6,4.2,1.4,5.7,2c0.3-6.3-1.9-6.3-1.9-10.2s2.4-3.6,2.4-7.4
		c0-2.8-3.3-11.1-6.6-11.1 M-10.1-10.9c-2.1,0.8-4.3,2.8-5.9,5.4c-2.7,4.3-2.5,9,0.1,10.1c1.1,0.5,2.6,0.3,4.1-0.4 M10.1-10.9
		c2.1,0.8,4.3,2.8,5.9,5.4c2.7,4.3,2.5,9-0.1,10.1c-1.1,0.5-2.6,0.3-4.1-0.4 M-8.9,11.1l8.7-3.1 M0.2,7.9l8.7,3.2 M-11.7-17.5h26.6
		c-1.4,0-2.5,1.4-2.5,3.2l0,0c0,1.8,1.1,3.2,2.5,3.2h-26.6c-1.4,0-2.5-1.4-2.5-3.2l0,0C-14.2-16.2-13-17.5-11.7-17.5L-11.7-17.5z
		 M0.6-13.4h11.8 M7-15.4h5.5"/>
</symbol>
<symbol  id="fl-icon-uk" viewBox="-28.9 -43.2 57.9 86.4">
	<g>
		<path class="st10" d="M-13.6,10.4l1.6-7.8c0-0.1,0-0.2-0.1-0.2l-7.2-3.2c-0.1,0-0.2,0-0.2,0.1l-1.6,4.3c0,0.1-0.2,0.2-0.3,0.1
			l-2.2-2c-0.1-0.1-0.2-0.1-0.2,0L-27.4,5c-0.1,0.1-0.1,0.2,0,0.3l6.7,5.9h0.1l6.8-0.7C-13.7,10.5-13.6,10.4-13.6,10.4z"/>
		<path class="st10" d="M1.1,41.7l9.5-1.9c0.1,0,0.1-0.1,0.1-0.2l0.1-1.9c0-0.1,0-0.1-0.1-0.2l-5.8-4.1c-0.1-0.1-0.1-0.2,0-0.3
			l0.7-0.5c0.1-0.1,0.1-0.2,0-0.2l-1-1.6c-0.1-0.1,0-0.2,0.1-0.3l9.3-1.3c0.1,0,0.1,0,0.1-0.1l0.9-1.9c0-0.1,0-0.1,0-0.2l-6-8.7
			c0,0,0,0-0.1-0.1l-1.5-0.8c-0.1-0.1-0.1-0.2,0-0.3l1.2-1c0.1-0.1,0.1-0.2,0-0.3l-1.5-1.1c-0.1-0.1-0.1-0.2,0-0.3l3-2.1
			c0,0,0,0,0-0.1l2.4-4.1V8L13-1.7c0-0.1,0-0.1,0.1-0.1L16.4-4l0.1-0.1l3-13c0-0.1,0-0.1,0-0.1l-1.8-2.2c-0.1-0.1,0-0.2,0.1-0.3
			l1.9-0.8c0.1,0,0.2,0,0.2,0.1l0.6,1.2c0,0.1,0.1,0.1,0.2,0.1l4.3-1.2c0,0,0.1,0,0.1-0.1l2.3-3.4c0-0.1,0-0.1,0-0.2l-3.1-6.3
			c0,0,0,0,0-0.1L19.7-34c-0.1,0-0.1-0.1-0.1-0.2l0.5-1.8c0-0.1,0.1-0.1,0.2-0.1l2.9,0.1c0.1,0,0.2-0.1,0.2-0.2v-2.5
			c0-0.1-0.1-0.1-0.1-0.2L15-41.1c0,0,0,0-0.1,0l-17.2,1.3h-0.1l-3.2,2.2c0,0-0.1,0-0.2,0l-2-0.7c0,0-0.1,0-0.1-0.1l-1.7-2.7
			c0-0.1-0.1-0.1-0.2-0.1l-5.7,1.7h-0.1l-4.7-2.2c-0.1,0-0.1,0-0.2,0l-2.2,2.3c-0.1,0.1-0.1,0.2,0,0.3l8.7,6.5c0,0,0,0,0.1,0
			l5.5,0.9l0,0l1.7,0.6c0.2,0.1,0.1,0.4-0.1,0.3h-0.1H-7l-8.8,5l-0.1,0.1l-0.4,2.8c0,0.1,0,0.2,0.1,0.2l7.2,2.1
			c0.1,0,0.1,0.1,0.1,0.1l1.4,4.9c0,0.1-0.1,0.2-0.2,0.2h-3.5c-0.1,0-0.2,0.1-0.2,0.1l-0.1,0.7c0,0.1,0,0.2,0.1,0.2l3.1,1.1
			c0.1,0,0.1,0.1,0.1,0.2l-0.7,3.3c0,0.1,0,0.2,0.1,0.2l1,0.2h0.1l2.5-1.8h0.1l4.5,0.3c0.1,0,0.1,0.1,0.2,0.1L1.5-5v0.1l-2.3,4.4
			v0.1l1.2,4c0,0.1-0.1,0.2-0.2,0.2l-5-0.8h-0.1l-3.4,2l-0.1,0.1l-0.5,1.7c0,0.1,0,0.1,0.1,0.2l4.7,3.7C-4,10.8-4,10.8-4,10.9
			L-5.5,14c0,0.1-0.2,0.1-0.3,0.1l-4.6-3.4c-0.1-0.1-0.3,0-0.3,0.2l2.8,9c0,0.1,0,0.2-0.1,0.2l-3.1,0.4c-0.1,0-0.2,0.1-0.1,0.3
			l3.4,6.5c0,0.1,0,0.1,0,0.2l-3.1,5.3c0,0.1,0,0.2,0.1,0.2l2.8,1.6c0.1,0,0.2,0,0.2,0l2-2.7c0.1-0.1,0.2-0.1,0.3,0L1.1,41.7
			C0.9,41.7,1,41.7,1.1,41.7z"/>
		<path class="st10" d="M-10.3,18.5l-3.2-1.1c-0.1,0-0.1-0.1-0.1-0.2l0.9-2.3c0.1-0.1,0.2-0.2,0.3,0l2.4,3.4
			C-10,18.3-10.2,18.5-10.3,18.5z"/>
		<path class="st10" d="M-8.9,41.2l-3-1.2c-0.1,0-0.1-0.1-0.1-0.1l-0.9-3.2c0-0.1,0.1-0.3,0.2-0.2l2.7,1c0,0,0.1,0,0.1,0.1l1.8,2.7
			c0,0.1,0,0.2,0,0.2l-0.6,0.6C-8.8,41.2-8.9,41.2-8.9,41.2z"/>
		<path class="st10" d="M-12.9,35.5l-1.3-0.7l-0.1-0.1l-1-4.4c0-0.1,0-0.2,0.1-0.2l1-0.2c0.1,0,0.2,0,0.2,0.1l1.6,4.8
			c0,0.1,0,0.1,0,0.2l-0.3,0.4C-12.8,35.5-12.9,35.5-12.9,35.5z"/>
	</g>
</symbol>
<symbol  id="fl-icon-valued-staff" viewBox="-61.8 -66.4 123.5 132.8">
	<path class="st7" d="M52.3,54.7c-7.4,3.6-13.3,1.7-17.1-1.2c0.7,1.4,1.5,2.6,2.3,3.5h1c1.7,0,3,1.3,3,3v3.4c0,1.7-1.3,3-3,3h-79
		c-1.7,0-3-1.3-3-3v-3.3c0-1.7,1.3-3,3-3h3.4c0.9-0.9,1.5-2.2,1.9-3.5c-3.8,2.9-9.6,4.8-17.1,1.2c-1.9-0.9-8.2-4.6-9.3-14.5
		C-62,37.9-64.1,20-37.5,13c0.3-0.1,1.4-0.7,1.9-1.8c0.4-0.8,0.4-1.9,0-3.2c-0.5-0.5-1.4-1.4-2.5-1.6c-0.8-0.1-1.5,0.1-2.4,0.7
		c0,0.1-0.1,0.1-0.1,0.2c0,0,0.1,0.2,0.4,0.4c1.4,0.9,1.7,2.8,0.8,4.2s-2.8,1.7-4.2,0.8c-2.2-1.5-2.8-3.3-3-4.5
		C-47,5.5-45.4,3.5-45,3.1c0.1-0.2,0.3-0.3,0.5-0.4c2.3-1.7,4.4-2.2,6-2.2c0.5,0,0.9,0,1.3,0.1c3.7,0.6,6.1,3.4,6.6,4.2
		C-25.9-3.7-17.1-10.9-8-10.9h1.7v-17.3c-6.4-7.8-18.9-15.1-19-15.2c-0.2-0.1-0.4-0.3-0.6-0.5h-11.7c-1.7,0-3-1.3-3-3v-16.5
		c0-1.7,1.3-3,3-3h73.8c1.7,0,3,1.3,3,3v16.5c0,1.7-1.3,3-3,3H25.9c-0.3,0.3-0.6,0.5-1,0.6C17.8-39.6,10-32.4,7.1-28.9v18h0.6
		c9.1,0,18,7.4,22.8,16c0-0.1,0.1-0.1,0.1-0.2c0.3-0.4,2.7-3.7,6.8-4.3c0.4-0.1,0.8-0.1,1.3-0.1c1.6,0,3.8,0.5,6,2.2
		c0.1,0.1,0.3,0.2,0.4,0.4c0.3,0.4,1.9,2.4,1.6,5.1c-0.2,1.2-0.8,3-3,4.5c-1.4,0.9-3.2,0.6-4.2-0.8c-0.9-1.4-0.6-3.2,0.8-4.2
		c0.3-0.2,0.4-0.3,0.4-0.3c0-0.1,0-0.2-0.1-0.3c-0.9-0.6-1.6-0.8-2.4-0.7c-1.1,0.2-2.1,1-2.6,1.6c-1,3.2,0.8,4.5,1.9,5
		C64,20,62,37.9,61.6,40.3C60.5,50.1,54.2,53.8,52.3,54.7z M-34.7-60.3v4.5h67.8v-4.5H-34.7z M33.2-52.8h-67.8v3h67.8V-52.8z
		 M-35.8,18.7c-0.1,0-0.2,0-0.2,0.1c-22.6,5.9-19.9,19.9-19.8,20.4c0,0.1,0,0.2,0.1,0.3c0.8,6.8,4.8,9.2,6,9.8
		c8.3,4,12.5-2,13.2-3.2c1.2-2.8,1.1-5.7-0.2-7.6c-0.7-1.1-1.8-1.5-3-1.5c-1.2,0.1-2,0.4-2.4,0.8c-0.3,0.4-0.2,1.1-0.2,1.3
		c0.4,1.6-0.5,3.2-2.1,3.6c-1.6,0.4-3.2-0.5-3.7-2.1c-0.1-0.4-0.9-3.6,1.1-6.4c1-1.4,2.9-3.1,6.9-3.3c2.1-0.1,4,0.4,5.6,1.4
		c0-3.8,0-8.5,0-14.4C-35.2,18.5-35.5,18.7-35.8,18.7z M28.1,17.6C28.1,7.5,16.8-4.9,7.6-4.9H4.1c-1.7,0-3-1.3-3-3v-22
		c0-0.6,0.2-1.2,0.6-1.8c1.7-2.4,6.3-7.1,11.8-11.2h-27.3c4.4,3.2,9.5,7.4,12.9,11.9c0.4,0.5,0.6,1.2,0.6,1.8v21.3c0,1.7-1.3,3-3,3
		H-8c-9.2,0-20.5,12.4-20.5,22.5c0,10.2,0,29.7,0,30.4c0,2-0.2,8.2-3.6,12.4h64.7c-2.2-2.8-4.7-7.1-4.5-12.5c0-0.1,0-0.3,0-0.4
		c0-0.1,0-0.2,0-0.3C28.1,47.2,28.1,17.6,28.1,17.6z M36,18.8c-0.1,0-0.2,0-0.2-0.1c-0.2-0.1-0.8-0.3-1.6-0.8v15
		c1.7-1.2,3.8-1.8,6-1.7c3.9,0.3,5.9,2,6.9,3.3c2,2.8,1.2,6,1.1,6.4c-0.4,1.6-2.1,2.6-3.7,2.1c-1.6-0.4-2.5-2.1-2.1-3.7
		c0-0.2,0.1-0.9-0.2-1.3c-0.3-0.4-1.2-0.7-2.4-0.8c-1.3-0.1-2.3,0.4-3,1.5c-1.3,1.8-1.4,4.8-0.2,7.6c0.6,1,4.8,7.2,13.2,3.2
		c1.2-0.6,5.2-3,6-9.8c0-0.1,0-0.2,0.1-0.3C56,38.6,58.6,24.7,36,18.8z"/>
	<path class="st7" d="M16.3,37.6H4.8L1.3,48.5c-0.2,0.6-0.8,1-1.4,1s-1.2-0.4-1.4-1L-5,37.6h-11.5c-0.6,0-1.2-0.4-1.4-1
		c-0.2-0.6,0-1.3,0.5-1.7l9.3-6.7l-3.5-10.9c-0.2-0.6,0-1.3,0.5-1.7s1.2-0.4,1.8,0L0,22.3l9.3-6.7c0.3-0.2,0.6-0.3,0.9-0.3
		c0.3,0,0.6,0.1,0.9,0.3c0.5,0.4,0.7,1.1,0.5,1.7L7.9,28.1l9.3,6.7c0.5,0.4,0.7,1.1,0.5,1.7C17.5,37.1,16.9,37.6,16.3,37.6z
		 M5.2,29.9c-0.5-0.4-0.7-1.1-0.5-1.7l2.5-7.6l-6.4,4.7c-0.3,0.2-0.6,0.3-0.9,0.3s-0.6-0.1-0.9-0.3l-6.4-4.7l2.5,7.6
		c0.2,0.6,0,1.3-0.5,1.7l-6.4,4.7H-4c0.6,0,1.2,0.4,1.4,1l2.5,7.6l2.5-7.6c0.2-0.6,0.8-1,1.4-1h7.9L5.2,29.9z"/>
</symbol>
<symbol  id="fl-icon-search-staff" viewBox="-38.6 -39.7 77.1 79.3">
	<path class="st7" d="M-3.5,13.5c0-4.3,3.5-7.8,7.8-7.8s7.8,3.5,7.8,7.8s-3.5,7.8-7.8,7.8C-0.1,21.2-3.5,17.7-3.5,13.5z"/>
	<path class="st7" d="M4.2,4.2c-2.5,0-4.9-0.5-6.9-1.4c2.5-2.5,4-5.6,4-9c0-1.7-0.4-3.4-1.1-5c1.3,0,2.6,0,3.9,0
		c4.3,0,8.5,0.2,12.6,0.4c0.9,1.4,1.4,2.9,1.4,4.6C18.2-0.5,11.9,4.2,4.2,4.2z"/>
	<g>
		<path class="st7" d="M-24.4,13.5c0-4.3,3.5-7.8,7.8-7.8s7.8,3.5,7.8,7.8s-3.5,7.8-7.8,7.8C-21,21.2-24.4,17.7-24.4,13.5z"/>
	</g>
	<g>
		<path class="st7" d="M-2.7-6.2c0,5.7-6.3,10.4-14,10.4s-14-4.6-14-10.4c0-1.6,0.5-3.2,1.4-4.6c4.1-0.3,8.3-0.4,12.6-0.4
			s8.5,0.2,12.6,0.4C-3.2-9.4-2.7-7.9-2.7-6.2z"/>
	</g>
	<g>
		<circle class="st23" cx="-5.8" cy="6.9" r="29.2"/>
		<line class="st24" x1="13.7" y1="-14.8" x2="35.7" y2="-36.8"/>
	</g>
</symbol>
<circle class="st25" cx="100" cy="640" r="60"/>
<circle class="st25" cx="100" cy="-260" r="60"/>
<circle class="st25" cx="252" cy="-260" r="60"/>
<circle class="st25" cx="404" cy="-260" r="60"/>
<circle class="st25" cx="556" cy="-260" r="60"/>
<circle class="st25" cx="708" cy="-260" r="60"/>
<circle class="st25" cx="100" cy="-80" r="60"/>
<circle class="st25" cx="252" cy="-80" r="60"/>
<circle class="st25" cx="404" cy="-80" r="60"/>
<circle class="st25" cx="556" cy="-80" r="60"/>
<circle class="st25" cx="708" cy="-80" r="60"/>
<circle class="st25" cx="100" cy="100" r="60"/>
<circle class="st25" cx="252" cy="100" r="60"/>
<circle class="st25" cx="404" cy="100" r="60"/>
<circle class="st25" cx="556" cy="100" r="60"/>
<circle class="st25" cx="708" cy="100" r="60"/>
<circle class="st25" cx="860" cy="-260" r="60"/>
<circle class="st25" cx="860" cy="-80" r="60"/>
<circle class="st25" cx="860" cy="100" r="60"/>
<use xlink:href="#fl-icon-contact-us"  width="73.4" height="95.1" id="XMLID_1_" x="-36.7" y="-47.6" transform="matrix(0.997 0 0 -0.997 94.614 -260.1605)" style="overflow:visible;"/>
<use xlink:href="#fl-icon-idea"  width="77.6" height="97.4" id="XMLID_4_" x="-38.8" y="-48.7" transform="matrix(1 0 0 -1 251.9992 -260.0099)" style="overflow:visible;"/>
<use xlink:href="#fl-icon-check"  width="66.5" height="81" id="XMLID_13_" x="-33.3" y="-40.5" transform="matrix(0.998 0 0 -0.998 403.8003 -260.008)" style="overflow:visible;"/>
<use xlink:href="#fl-icon-register"  width="77" height="67.2" x="-38.5" y="-33.6" transform="matrix(0.9972 0 0 -0.9972 556.0499 -260.0099)" style="overflow:visible;"/>
<use xlink:href="#fl-icon-interview"  width="75.6" height="75.2" id="XMLID_2_" x="-37.8" y="-37.6" transform="matrix(1.0013 0 0 -1.0013 708.05 -262.8767)" style="overflow:visible;"/>
<use xlink:href="#fl-icon-tent"  width="83.8" height="69.5" x="-41.9" y="-34.8" transform="matrix(0.9986 0 0 -0.9986 860 -265.0922)" style="overflow:visible;"/>
<use xlink:href="#fl-icon-call"  width="81.8" height="81.8" x="-40.9" y="-40.9" transform="matrix(0.9988 0 0 -0.9988 99.95 -79.96)" style="overflow:visible;"/>
<use xlink:href="#fl-icon-uk"  width="57.9" height="86.4" id="XMLID_8_" x="-28.9" y="-43.2" transform="matrix(0.9986 0 0 -0.9986 252.1992 -80.01)" style="overflow:visible;"/>
<use xlink:href="#fl-icon-24-hours"  width="95.8" height="99.6" id="XMLID_7_" x="-47.9" y="-49.8" transform="matrix(0.7607 0 0 -0.7607 404 -80.0485)" style="overflow:visible;"/>
<use xlink:href="#fl-icon-time"  width="104.2" height="105.2" id="XMLID_6_" x="-52.1" y="-52.6" transform="matrix(0.8133 0 0 -0.8133 555.9992 -79.969)" style="overflow:visible;"/>
<use xlink:href="#fl-icon-training"  width="37.3" height="36.5" x="-18.7" y="-18.3" transform="matrix(2.0687 0 0 -2.0687 707.5852 -79.7006)" style="overflow:visible;"/>
<use xlink:href="#fl-icon-bespoke"  width="33.7" height="32.9" id="XMLID_9_" x="-16.8" y="-16.5" transform="matrix(2.1139 0 0 -2.1139 860.3151 -79.5856)" style="overflow:visible;"/>
<use xlink:href="#fl-icon-skill-db"  width="33.7" height="33.7" x="-16.9" y="-16.9" transform="matrix(2.3187 0 0 -2.3187 99.5356 100.4545)" style="overflow:visible;"/>
<use xlink:href="#fl-icon-honesty"  width="34.2" height="35.2" id="XMLID_5_" x="-17.1" y="-17.6" transform="matrix(2.0378 0 0 -2.0378 252 100.0924)" style="overflow:visible;"/>
<use xlink:href="#fl-icon-valued-staff"  width="123.5" height="132.8" id="XMLID_3_" x="-61.8" y="-66.4" transform="matrix(0.608 0 0 -0.608 403.8484 99.9902)" style="overflow:visible;"/>
<circle class="st25" cx="100" cy="280" r="60"/>
<circle class="st25" cx="252" cy="280" r="60"/>
<circle class="st25" cx="404" cy="280" r="60"/>
<circle class="st25" cx="556" cy="280" r="60"/>
<circle class="st25" cx="708" cy="280" r="60"/>
<circle class="st25" cx="860" cy="280" r="60"/>
<circle class="st25" cx="100" cy="460" r="60"/>
<circle class="st25" cx="252" cy="460" r="60"/>
<circle class="st25" cx="404" cy="460" r="60"/>
<circle class="st25" cx="556" cy="460" r="60"/>
<circle class="st25" cx="708" cy="460" r="60"/>
<circle class="st25" cx="860" cy="460" r="60"/>
<use xlink:href="#fl-icon-register-tablet"  width="106.7" height="86.1" x="-53.4" y="-43.1" transform="matrix(0.6828 0 0 -0.6828 555.8632 99.8527)" style="overflow:visible;"/>
<use xlink:href="#fl-icon-address"  width="26.7" height="33.7" x="-13.4" y="-16.9" transform="matrix(2.2147 0 0 -2.2147 708.5563 100.4338)" style="overflow:visible;"/>
<use xlink:href="#fl-icon-pencil"  width="35.2" height="35.2" x="-17.6" y="-17.6" transform="matrix(2.1193 0 0 -2.1193 859.9998 99.9896)" style="overflow:visible;"/>
<use xlink:href="#fl-icon-q-and-a"  width="54" height="48" x="-27" y="-24" transform="matrix(1.5625 0 0 -1.5625 100 279.99)" style="overflow:visible;"/>
<use xlink:href="#fl-icon-email"  width="107.8" height="107.1" x="-53.9" y="-53.6" transform="matrix(0.7002 0 0 -0.7002 252 280.1656)" style="overflow:visible;"/>
<use xlink:href="#fl-icon-human"  width="222" height="254" x="-111" y="-127" transform="matrix(0.2953 0 0 -0.2953 404 280.0048)" style="overflow:visible;"/>
<use xlink:href="#fl-icon-phone"  width="50" height="42.9" x="-25" y="-21.5" transform="matrix(1.7442 0 0 -1.7442 556 280.3402)" style="overflow:visible;"/>
<use xlink:href="#fl-icon-info"  width="34" height="33.9" x="-17" y="-17" transform="matrix(2.1904 0 0 -2.1904 708 280.4277)" style="overflow:visible;"/>
<use xlink:href="#fl-icon-lock"  width="238.9" height="280" x="-119.4" y="-140" transform="matrix(0.2677 0 0 -0.2677 859.9601 279.9899)" style="overflow:visible;"/>
<use xlink:href="#fl-icon-mobile"  width="84.2" height="165.7" x="-42.1" y="-82.8" transform="matrix(0.4522 0 0 -0.4522 99.9771 459.8766)" style="overflow:visible;"/>
<use xlink:href="#fl-icon-calendar"  width="35.1" height="34.8" x="-17.6" y="-17.4" transform="matrix(2.1411 0 0 -2.1411 251.57 460.1006)" style="overflow:visible;"/>
<g id="Layer_2">
</g>
<use xlink:href="#fl-icon-checkmark-unchecked"  width="39.4" height="39.4" id="XMLID_10_" x="-19.7" y="-19.7" transform="matrix(0.9975 0 0 -0.9975 403.8893 459.994)" style="overflow:visible;"/>
<use xlink:href="#fl-icon-checkmark"  width="39.4" height="39.4" id="XMLID_11_" x="-19.7" y="-19.7" transform="matrix(0.9975 0 0 -0.9975 555.95 459.994)" style="overflow:visible;"/>
<use xlink:href="#fl-icon-checkmark-pending"  width="42.4" height="42.4" id="XMLID_12_" x="-21.2" y="-21.2" transform="matrix(0.9976 0 0 -0.9976 707.9999 459.9945)" style="overflow:visible;"/>
<use xlink:href="#fl-icon-selfie"  width="74" height="76.1" x="-37" y="-38" transform="matrix(1.0741 0 0 -1.0741 859.6667 460.2304)" style="overflow:visible;"/>
<use xlink:href="#fl-search-staff"  width="77.1" height="79.3" x="-38.6" y="-39.7" transform="matrix(1 0 0 -1 97.6642 638.6642)" style="overflow:visible;"/>
</svg>
