<svg xmlns="http://www.w3.org/2000/svg" viewBox="0 0 64 64" height="20" width="20" style="
    fill: #008080;
"><path d="M 31 0 C 20.523438 0 12 8.523438 12 19 L 12 24 L 9 24 C 7.347656 24 6 25.347656 6 27 L 6 57 C 6 58.652344 7.347656 60 9 60 L 55 60 C 56.652344 60 58 58.652344 58 57 L 58 27 C 58 25.347656 56.652344 24 55 24 L 52 24 L 52 19 C 52 8.523438 43.476563 0 33 0 Z M 31 2 L 33 2 C 33.339844 2 33.667969 2.03125 34 2.050781 L 34 6.050781 C 33.667969 6.023438 33.339844 6 33 6 L 31 6 C 30.660156 6 30.332031 6.023438 30 6.050781 L 30 2.050781 C 30.332031 2.03125 30.660156 2 31 2 Z M 28 2.28125 L 28 6.363281 C 22.277344 7.722656 18 12.867188 18 19 L 18 24 L 14 24 L 14 19 C 14 10.652344 20.054688 3.703125 28 2.28125 Z M 36 2.28125 C 43.945313 3.703125 50 10.652344 50 19 L 50 24 L 46 24 L 46 19 C 46 12.867188 41.722656 7.722656 36 6.363281 Z M 31 8 L 33 8 C 39.066406 8 44 12.933594 44 19 L 44 24 L 20 24 L 20 19 C 20 12.933594 24.933594 8 31 8 Z M 9 26 L 55 26 C 55.550781 26 56 26.449219 56 27 L 56 57 C 56 57.550781 55.550781 58 55 58 L 9 58 C 8.449219 58 8 57.550781 8 57 L 8 27 C 8 26.449219 8.449219 26 9 26 Z M 32 30 C 26.484375 30 22 34.484375 22 40 C 22 45.515625 26.484375 50 32 50 C 37.515625 50 42 45.515625 42 40 C 42 34.484375 37.515625 30 32 30 Z M 32 32 C 36.410156 32 40 35.589844 40 40 C 40 44.410156 36.410156 48 32 48 C 27.589844 48 24 44.410156 24 40 C 24 35.589844 27.589844 32 32 32 Z M 32 33 C 31.445313 33 31 33.449219 31 34 L 31 35.832031 C 31 36.386719 31.445313 36.832031 32 36.832031 C 32.554688 36.832031 33 36.382813 33 35.832031 L 33 34 C 33 33.449219 32.554688 33 32 33 Z M 27.816406 34.734375 C 27.5625 34.734375 27.304688 34.828125 27.109375 35.027344 C 26.71875 35.414063 26.71875 36.046875 27.109375 36.4375 L 28.40625 37.734375 C 28.597656 37.929688 28.855469 38.03125 29.109375 38.03125 C 29.367188 38.03125 29.625 37.929688 29.816406 37.734375 C 30.210938 37.347656 30.210938 36.714844 29.816406 36.324219 L 28.523438 35.027344 C 28.328125 34.828125 28.070313 34.734375 27.816406 34.734375 Z M 36.300781 34.734375 C 36.046875 34.734375 35.792969 34.828125 35.59375 35.027344 L 34.296875 36.324219 C 33.90625 36.710938 33.90625 37.34375 34.296875 37.734375 C 34.492188 37.933594 34.75 38.03125 35.003906 38.03125 C 35.261719 38.03125 35.519531 37.929688 35.714844 37.734375 L 37.011719 36.4375 C 37.402344 36.050781 37.402344 35.417969 37.011719 35.027344 C 36.8125 34.828125 36.558594 34.734375 36.300781 34.734375 Z M 26 39 C 25.445313 39 25 39.449219 25 40 C 25 40.550781 25.445313 41 26 41 L 27.832031 41 C 28.386719 41 28.832031 40.550781 28.832031 40 C 28.832031 39.449219 28.386719 39 27.832031 39 Z M 36.167969 39 C 35.613281 39 35.167969 39.449219 35.167969 40 C 35.167969 40.550781 35.613281 41 36.167969 41 L 38 41 C 38.554688 41 39 40.550781 39 40 C 39 39.449219 38.554688 39 38 39 Z M 34.890625 41.804688 C 34.632813 41.804688 34.378906 41.902344 34.183594 42.097656 C 33.789063 42.488281 33.789063 43.121094 34.183594 43.511719 L 35.476563 44.808594 C 35.671875 45.003906 35.925781 45.101563 36.183594 45.101563 C 36.441406 45.101563 36.695313 45.003906 36.890625 44.808594 C 37.28125 44.417969 37.28125 43.785156 36.890625 43.394531 L 35.59375 42.097656 C 35.398438 41.902344 35.144531 41.804688 34.890625 41.804688 Z M 29.113281 41.921875 C 28.855469 41.921875 28.601563 42.019531 28.40625 42.214844 L 27.109375 43.511719 C 26.71875 43.902344 26.71875 44.535156 27.109375 44.925781 C 27.304688 45.121094 27.558594 45.21875 27.816406 45.21875 C 28.074219 45.21875 28.328125 45.121094 28.523438 44.925781 L 29.816406 43.628906 C 30.210938 43.238281 30.210938 42.605469 29.816406 42.214844 C 29.625 42.019531 29.371094 41.921875 29.113281 41.921875 Z M 32 43 C 31.445313 43 31 43.449219 31 44 L 31 45.832031 C 31 46.386719 31.445313 46.832031 32 46.832031 C 32.554688 46.832031 33 46.382813 33 45.832031 L 33 44 C 33 43.449219 32.554688 43 32 43 Z M 11 54 C 10.445313 54 10 54.449219 10 55 C 10 55.550781 10.445313 56 11 56 L 45 56 C 45.554688 56 46 55.550781 46 55 C 46 54.449219 45.554688 54 45 54 Z M 49 54 C 48.445313 54 48 54.449219 48 55 C 48 55.550781 48.445313 56 49 56 L 53 56 C 53.554688 56 54 55.550781 54 55 C 54 54.449219 53.554688 54 53 54 Z"></path></svg>
