<?xml version="1.0" standalone="no"?>
<!DOCTYPE svg PUBLIC "-//W3C//DTD SVG 1.1//EN" "http://www.w3.org/Graphics/SVG/1.1/DTD/svg11.dtd" >
<svg xmlns="http://www.w3.org/2000/svg">
<metadata></metadata>
<defs>
<font id="adlib_btregular" horiz-adv-x="1024" >
<font-face units-per-em="2048" ascent="1556" descent="-492" />
<missing-glyph horiz-adv-x="696" />
<glyph horiz-adv-x="0" />
<glyph unicode="&#xd;" horiz-adv-x="696" />
<glyph unicode=" "  horiz-adv-x="696" />
<glyph unicode="&#x09;" horiz-adv-x="696" />
<glyph unicode="&#xa0;" horiz-adv-x="696" />
<glyph unicode="!" horiz-adv-x="639" d="M96 152q0 81 61.5 130.5t155.5 49.5q95 0 150 -52t55 -141q0 -104 -49 -157.5t-145 -53.5q-111 0 -169.5 57.5t-58.5 166.5zM139 1540l404 -35l-23 -418q-34 -214 -54.5 -369.5t-27.5 -240.5l-282 -65q9 112 13.5 217t4.5 205q0 170 -8.5 347t-26.5 359z" />
<glyph unicode="&#x22;" horiz-adv-x="713" d="M76 877v561h219v-561h-219zM416 877v561h223v-561h-223z" />
<glyph unicode="#" horiz-adv-x="1575" d="M23 381l86 231h270l82 230h-283l86 231h279l141 393h250l-139 -393h235l141 393h250l-139 -393h270l-86 -231h-268l-80 -230h277l-84 -231h-275l-141 -393h-250l139 393h-235l-141 -393h-250l139 393h-274zM625 610h245l82 232h-245z" />
<glyph unicode="$" horiz-adv-x="1395" d="M103 508l313 4l10 -115h117l2 213q-227 24 -331.5 121.5t-104.5 286.5q0 122 22 193.5t68 99.5q65 38 155 63.5t191 34.5v127h258l2 -127q213 -32 316 -118.5t108 -235.5l-307 -11l-9 107l-149 10l6 -217q284 -27 412.5 -124t128.5 -283q0 -184 -128.5 -281.5 t-385.5 -110.5l-2 -206h-273l8 215q-216 28 -318 113t-109 241zM393 944h160v223h-154q-3 -43 -4.5 -85t-1.5 -83v-55zM786 594l5 -201h172v201h-177z" />
<glyph unicode="%" horiz-adv-x="1659" d="M80 1139q0 101 26.5 174t79.5 121q41 36 123.5 66t134.5 30q87 0 172.5 -36.5t124.5 -90.5q46 -12 88.5 -18.5t79.5 -6.5q97 0 194.5 42t186.5 122l226 -61l-568 -699l-139 -170l-516 -684l-191 105l555 622l560 709q-121 -69 -192.5 -94t-137.5 -25q-23 0 -42 5.5 t-38 17.5q8 -26 12 -51.5t4 -49.5q0 -173 -116.5 -294t-276.5 -121q-155 0 -252.5 106.5t-97.5 280.5zM346 1030l227 -14q4 51 6.5 93t2.5 62q0 62 -0.5 91t-2.5 55l-223 6zM842 317q0 185 109.5 302.5t281.5 117.5q164 0 255 -95t91 -267q0 -93 -36.5 -189.5t-96.5 -162.5 q-30 -34 -85 -50t-136 -16q-192 0 -287.5 89.5t-95.5 270.5zM1098 217l221 -20l27 249l-244 17z" />
<glyph unicode="&#x26;" horiz-adv-x="1403" d="M78 424q0 157 82.5 259.5t232.5 131.5q-96 65 -140 141t-44 177q0 191 116.5 284.5t354.5 93.5q185 0 298.5 -100t113.5 -262q0 -139 -76.5 -235t-229.5 -148q40 -32 92.5 -90.5t106.5 -130.5l21 217l282 -10v-27q0 -140 -27 -224t-90 -161l213 -299l-421 -64l-64 89 q-70 -58 -142 -83.5t-167 -25.5q-235 0 -373.5 126.5t-138.5 340.5zM485 432q0 -28 1.5 -66.5t4.5 -88.5l347 12l-250 332l-99 -31v-12q-4 -99 -4 -146zM561 1126l4 -129l45 -4l193 15l6 254l-236 6z" />
<glyph unicode="'" horiz-adv-x="371" d="M76 877v561h219v-561h-219z" />
<glyph unicode="(" horiz-adv-x="627" d="M156 575q0 203 76 463t210 502l95 -43q-86 -360 -129 -579.5t-43 -296.5q0 -56 48 -338.5t124 -659.5l-101 -31q-134 240 -207 498t-73 485z" />
<glyph unicode=")" horiz-adv-x="627" d="M90 -362q74 305 119 571.5t45 351.5q0 80 -45 346t-119 598l121 35q114 -206 179 -443t65 -435q0 -447 -236 -1069v-1z" />
<glyph unicode="*" d="M168 1073l233 103l-233 81l106 201l199 -160l6 242l226 -74l-97 -206l240 61v-250l-238 55l140 -206l-226 -82l-51 237l-164 -188z" />
<glyph unicode="+" horiz-adv-x="1706" d="M254 496v231h481v494h238v-494h479v-231h-479v-496h-238v496h-481z" />
<glyph unicode="," horiz-adv-x="696" d="M86 229q0 95 68.5 169.5t148.5 74.5q74 0 148 -34.5t110 -86.5q23 -33 36 -99.5t13 -152.5q0 -210 -89.5 -308.5t-280.5 -98.5q-21 0 -39.5 0.5t-38.5 1.5l-10 182l221 14l-2 127h-6q-131 0 -205 56.5t-74 154.5z" />
<glyph unicode="-" horiz-adv-x="664" d="M72 651q57 6 122 8t154 3q80 0 138 -2.5t106 -8.5l-8 -278q-20 0 -46.5 1t-33.5 1t-121 -5t-223 -5h-82z" />
<glyph unicode="." horiz-adv-x="696" d="M104 248q0 92 81 163.5t186 71.5q88 0 166.5 -80t78.5 -149q0 -114 -67.5 -184t-179.5 -70q-123 0 -194 66t-71 182z" />
<glyph unicode="/" horiz-adv-x="569" d="M-49 -123l397 1297l86 366l184 -37l-331 -1075q-26 -83 -64.5 -249.5t-77.5 -368.5z" />
<glyph unicode="0" horiz-adv-x="1395" d="M80 700q0 133 14 253t43 231q79 193 218 287t347 94q322 0 466.5 -186t144.5 -601q0 -412 -154 -631t-444 -219q-315 0 -475 195t-160 577zM522 831q0 -139 3.5 -263.5t11.5 -237.5l309 -6l46 866q-21 1 -66 4q-109 6 -160 6h-18q-62 -2 -118 -2q-4 -74 -6 -163t-2 -204z " />
<glyph unicode="1" horiz-adv-x="1395" d="M332 1212l26 240q213 14 364 31.5t247 38.5q-25 -164 -38 -370t-13 -439v-88l6 -650l-447 25l60 715l16 483z" />
<glyph unicode="2" horiz-adv-x="1395" d="M147 10q2 292 21.5 421t64.5 202q50 79 168.5 138.5t440.5 148.5v370h-283l-6 -317l-389 6q-3 47 -4.5 82.5t-1.5 58.5q0 104 21 153.5t77 110.5q88 94 199.5 137.5t267.5 43.5q250 0 387 -131.5t137 -372.5q0 -176 -85.5 -282.5t-297.5 -186.5q-102 -39 -209 -70.5 t-113 -34.5q-8 -4 -12 -15.5t-4 -49.5v-14q0 -20 -0.5 -32t-0.5 -22q32 -1 73 -1.5t129 -0.5q163 0 286.5 6.5t213.5 20.5q-8 -68 -12.5 -135.5t-4.5 -132.5q0 -21 1 -45.5t3 -65.5q-242 13 -375.5 18t-236.5 5q-99 0 -212 -3.5t-243 -9.5z" />
<glyph unicode="3" horiz-adv-x="1395" d="M109 373q0 13 0.5 28.5t3.5 48.5l444 -10l-16 -241h305l-19 366l-323 29l20 283h248l33 335l-291 27l-12 -266l-387 33q3 270 150 414.5t419 144.5q255 0 396 -125.5t141 -354.5q0 -123 -60.5 -195t-212.5 -128q167 -38 250.5 -131.5t83.5 -241.5q0 -209 -163.5 -335 t-438.5 -126q-297 0 -434 107t-137 338z" />
<glyph unicode="4" horiz-adv-x="1395" d="M58 328q2 70 3.5 119.5t1.5 78.5q0 25 -0.5 51.5t-2.5 66.5q142 235 303 471t342 472q100 -16 203 -26.5t216 -16.5l4 -905h232l-14 -307l-228 2l4 -406h-477l6 400h-593zM428 682h350l8 573q-95 -131 -183 -272t-175 -301z" />
<glyph unicode="5" horiz-adv-x="1395" d="M133 410l436 22l-2 -235q17 -1 37 -1.5t58 -0.5q63 0 107.5 3.5t84.5 12.5l6 428l-366 14l-31 -92l-307 19l8 201q3 94 10 191q2 21 2 25l37 529l483 -29l469 29q-16 -109 -24.5 -194t-10.5 -152q-60 -5 -91.5 -7t-59.5 -2q-75 0 -244 8.5t-262 10.5l-12 -311 q74 54 151.5 78t178.5 24q236 0 379 -138.5t143 -363.5q0 -230 -167 -390.5t-419 -160.5q-275 0 -434.5 130t-159.5 352z" />
<glyph unicode="6" horiz-adv-x="1395" d="M104 696q0 436 159 652.5t478 216.5q244 0 382.5 -134.5t138.5 -371.5l-334 -12l-6 174l-363 18v-391q68 54 141.5 80t159.5 26q195 0 320 -121t125 -317q0 -277 -155 -432.5t-431 -155.5q-178 0 -317.5 72.5t-215.5 202.5q-38 66 -60 196t-22 297zM475 629l6 -369 l363 -22l18 387z" />
<glyph unicode="7" horiz-adv-x="1395" d="M209 1153l31 379l538 -29l455 4q-3 -64 -4.5 -145t-1.5 -180q-145 -288 -219 -452t-115 -286l-127 -495l-500 -6q91 204 213 514t170 401l172 322h-182q-130 0 -234.5 -6.5t-195.5 -20.5z" />
<glyph unicode="8" horiz-adv-x="1395" d="M68 383q0 143 81.5 246t239.5 159q-128 38 -198 129.5t-70 221.5q0 200 155 313t433 113q265 0 420 -116t155 -308q0 -135 -79 -236t-222 -149q171 -25 256.5 -118t85.5 -255q0 -85 -21.5 -154t-62.5 -112q-78 -84 -215 -136.5t-285 -52.5q-331 0 -502 115.5t-171 339.5z M496 635l4 -377l362 4v375zM567 1255l13 -333l274 -2l6 335h-293z" />
<glyph unicode="9" horiz-adv-x="1395" d="M86 991q0 264 159 419t433 155q174 0 303 -56t225 -172q57 -67 81 -180.5t24 -327.5q0 -482 -155 -691.5t-509 -209.5q-276 0 -415.5 119t-139.5 352q0 23 4 71v5l393 -37l-2 -182h318l2 319q-40 -26 -91.5 -38.5t-127.5 -12.5q-244 0 -373 120t-129 347zM528 831 l373 -22l-6 432l-348 2z" />
<glyph unicode=":" horiz-adv-x="696" d="M90 233q0 124 64 182t200 58q110 0 181 -73.5t71 -188.5q0 -76 -72 -143.5t-165 -67.5q-124 0 -201.5 65.5t-77.5 167.5zM98 838q0 116 59.5 170.5t186.5 54.5q119 0 190.5 -66t71.5 -163q0 -46 -20 -98t-51 -87q-17 -19 -62 -31t-106 -12q-124 0 -196.5 63t-72.5 169z " />
<glyph unicode=";" horiz-adv-x="696" d="M86 229q0 95 68.5 169.5t148.5 74.5q74 0 148 -34.5t110 -86.5q23 -33 36 -99.5t13 -152.5q0 -210 -89.5 -308.5t-280.5 -98.5q-21 0 -39.5 0.5t-38.5 1.5l-10 182l221 14l-2 127h-6q-131 0 -205 56.5t-74 154.5zM94 827q0 100 64.5 168t158.5 68q124 0 199.5 -71.5 t75.5 -182.5q0 -83 -74 -152t-174 -69q-107 0 -178.5 68t-71.5 171z" />
<glyph unicode="&#x3c;" horiz-adv-x="1706" d="M264 494v233l1178 487v-253l-854 -351l854 -348v-254z" />
<glyph unicode="=" horiz-adv-x="1706" d="M254 272v230h1198v-230h-1198zM254 719v231h1198v-231h-1198z" />
<glyph unicode="&#x3e;" horiz-adv-x="1706" d="M264 8v254l854 348l-854 351v253l1178 -487v-233z" />
<glyph unicode="?" horiz-adv-x="1337" d="M80 1012v37q0 237 145.5 364t419.5 127q255 0 424.5 -116t169.5 -279q0 -276 -108.5 -404.5t-342.5 -128.5h-22v-159h-377v411l424 4l-6 359h-328l2 -217zM317 170q0 71 69.5 134t158.5 63q114 0 202.5 -60t88.5 -129q0 -117 -61 -183.5t-169 -66.5q-135 0 -212 65 t-77 177z" />
<glyph unicode="@" horiz-adv-x="2048" d="M82 520q0 169 53 320.5t156 277.5q148 183 359.5 278t467.5 95q170 0 320 -46t260 -132q136 -107 203 -243t67 -306q0 -167 -65.5 -307t-190.5 -240q-69 -56 -154 -85.5t-176 -29.5q-106 0 -161 40t-60 120q-56 -82 -126.5 -120t-168.5 -38q-163 0 -247 87.5t-84 257.5 q0 241 141.5 404t349.5 163q77 0 134 -30.5t95 -92.5l52 92h206l-153 -610q0 -2 -1 -6q-3 -18 -3 -27q0 -30 16 -44.5t47 -14.5q137 0 240.5 143.5t103.5 335.5q0 239 -179.5 390t-467.5 151q-148 0 -274 -36.5t-230 -109.5q-155 -110 -239 -274.5t-84 -356.5 q0 -302 203 -481.5t544 -179.5q164 0 316 47.5t280 138.5l97 -135q-156 -117 -329 -175t-364 -58q-192 0 -354.5 49t-288.5 145q-157 122 -234 281.5t-77 361.5zM778 444q0 -83 35 -128.5t98 -45.5q84 0 148 59t88 158l51 209q-9 76 -50 116t-110 40q-103 0 -181.5 -121.5 t-78.5 -286.5z" />
<glyph unicode="A" horiz-adv-x="1403" d="M-18 -33l229 701l260 829l500 -14l438 -1516h-514l-92 328l-344 8l-84 -336h-393zM516 616h297l-90 308l-55 274z" />
<glyph unicode="B" horiz-adv-x="1565" d="M109 -31l38 455l-6 1042q193 11 358.5 16t313.5 5q298 0 455 -92t157 -267q0 -147 -94 -250.5t-272 -152.5q208 -22 328 -128t120 -265q0 -192 -141 -298t-397 -106q-64 0 -350 20t-510 21zM477 834l428 20l25 377h-434zM606 578l10 -414q95 4 196.5 11t211.5 18l-6 376z " />
<glyph unicode="C" horiz-adv-x="1602" d="M80 723q0 370 209 593.5t555 223.5q307 0 493.5 -157.5t186.5 -415.5q0 -10 -1 -23t-4 -41q-41 -2 -90.5 -3t-103.5 -1q-63 0 -131.5 2.5t-146.5 7.5l-19 305h-410l-18 -557l12 -335h484l24 268l398 -25v-26q0 -271 -184.5 -441t-483.5 -170q-354 0 -562 215t-208 580z " />
<glyph unicode="D" horiz-adv-x="1597" d="M131 0l16 635l-16 835q160 13 296.5 19t250.5 6q262 0 417.5 -58t270.5 -192q81 -94 116.5 -189t35.5 -218q0 -461 -212.5 -663t-705.5 -202q-89 0 -202 6.5t-267 20.5zM571 344h430l21 770l-449 14l2 -249z" />
<glyph unicode="E" horiz-adv-x="1460" d="M111 1436l860 43l411 -4l-2 -273l-372 -4l-373 -18l14 -283q14 0 34 -1t28 -1h27q121 -2 241 -2q116 0 166 1.5t87 4.5l-3 -321l-436 18l-316 -31v-229h47q369 0 589 3t294 9q0 -109 4.5 -208.5t13.5 -190.5q-8 -6 -14.5 -8t-17.5 -2q-6 0 -42 1q-166 9 -333 13l-457 12 l-446 -22l32 858z" />
<glyph unicode="F" horiz-adv-x="1374" d="M127 -53l20 641l3 882q313 17 494.5 23t318.5 6q82 0 171 -2.5t191 -8.5l-10 -312q-141 6 -262 9t-222 3q-85 0 -164 -2t-153 -6l4 -356q162 2 279 3.5t192 1.5q55 0 116 -1.5t128 -4.5v-319l-598 -4q-1 -13 -1 -37q-7 -202 -7 -289q0 -49 1.5 -104t6.5 -156 q-188 16 -306 23.5t-202 9.5z" />
<glyph unicode="G" horiz-adv-x="1688" d="M80 735q0 407 197 613t585 206q329 0 503.5 -149.5t174.5 -429.5v-3q2 -13 2 -26h-498l3 234l-459 16v-598l14 -295h503q8 44 11.5 81t3.5 71q0 6 -1 19.5t-1 21.5l-276 10v264l739 -16l-33 -734l-305 -18l-49 117q-60 -99 -157.5 -145t-248.5 -46q-337 0 -522.5 211.5 t-185.5 595.5z" />
<glyph unicode="H" horiz-adv-x="1602" d="M125 -35l22 576l-18 938l395 18l-14 -604h496l-9 559l473 18l-14 -712l4 -729l-426 -29l23 238l-19 331h-411l-49 -624z" />
<glyph unicode="I" horiz-adv-x="725" d="M133 -20l14 743l-14 768l459 -10l-14 -695l14 -798z" />
<glyph unicode="J" horiz-adv-x="1219" d="M55 436v68q0 2 1 12q1 39 1 76h392v-352h182l8 252l-12 1048l463 -18l-19 -813v-37v-29v-21q2 -89 2 -176q0 -256 -141 -391t-410 -135q-246 0 -356.5 121.5t-110.5 394.5z" />
<glyph unicode="K" horiz-adv-x="1612" d="M127 -18l20 563l-16 897l457 12l14 -602l539 608l475 -14l-486 -580l502 -921h-6q-239 12 -358 12q-56 0 -182 -4h-17q-74 198 -151.5 360t-153.5 275l-246 -256l4 -350q-37 1 -77 1.5t-117 0.5t-119.5 -0.5t-81.5 -1.5z" />
<glyph unicode="L" horiz-adv-x="1223" d="M123 -14l24 778l-6 719l471 16l-6 -1177l613 6l-17 -371q-132 5 -236.5 7.5t-195.5 2.5h-82z" />
<glyph unicode="M" horiz-adv-x="1892" d="M100 -57l47 882l29 621l563 -4l224 -1004l157 727l66 281l555 -10q0 -3 -1 -53t-1 -99q0 -340 6 -673.5t18 -659.5q-13 0 -38 1t-35 1q-24 0 -132.5 6t-193.5 8q4 47 6 82t2 47q0 43 7 308.5t7 486.5q0 41 -2 86t-8 102l-151 -663l-135 -449h-379l-254 1057l-8 -1096z " />
<glyph unicode="N" horiz-adv-x="1669" d="M119 -18q16 385 24.5 761.5t10.5 745.5h483l463 -739q21 -35 52 -107t60 -158q0 49 1 118.5t1 88.5q0 122 -4.5 296t-15.5 460l336 -4l-8 -858l-6 -604q-82 4 -148.5 6t-105.5 2q-22 0 -101 -2q-59 -2 -94 -2l-27 41q-470 700 -566 995l-19 -1040h-336z" />
<glyph unicode="O" horiz-adv-x="1651" d="M80 770q0 174 28 298t85 196q109 139 269 207.5t378 68.5q347 0 538 -197.5t191 -558.5q0 -201 -58 -362.5t-176 -288.5q-103 -110 -208.5 -157.5t-249.5 -47.5q-375 0 -586 223t-211 619zM555 696l27 -381q123 -13 245.5 -19t245.5 -7l31 844l-549 22v-459z" />
<glyph unicode="P" horiz-adv-x="1460" d="M119 -10l28 639l-14 852q145 11 292.5 16.5t297.5 5.5q216 0 337 -30.5t210 -102.5q83 -67 122.5 -145t39.5 -176q0 -280 -169 -411.5t-528 -131.5q-23 0 -50.5 0.5t-86.5 2.5l4 -538q-94 10 -210 14.5t-273 4.5zM483 815h484v361q-93 8 -164 12t-127 4q-41 0 -147 -6 q-25 -2 -37 -2z" />
<glyph unicode="Q" horiz-adv-x="1659" d="M80 698q0 180 51 360.5t113 260.5q76 96 228 158.5t323 62.5q379 0 581.5 -192.5t202.5 -550.5q0 -289 -103 -481t-286 -246l-4 -78l4 -58l303 -16q1 -82 4.5 -190t3.5 -121q-74 -6 -126.5 -8t-94.5 -2q-270 0 -363.5 68t-93.5 247v25h-45q-125 0 -251 48t-224 134 q-112 98 -167.5 242t-55.5 337zM602 324q47 -5 96 -7t103 -2q73 0 148.5 6t156.5 17l18 780q-127 19 -253 31t-250 16z" />
<glyph unicode="R" horiz-adv-x="1554" d="M115 -29q15 156 22.5 322.5t9.5 382.5l7 788q166 15 327 22t318 7q356 0 518 -97.5t162 -312.5q0 -153 -91.5 -252.5t-259.5 -128.5q162 -23 242 -122t80 -277v-131q0 -89 9 -143.5t30 -100.5l-500 31q-20 116 -30.5 229t-10.5 226q0 15 1 47t1 47l-434 10l10 -547h-411z M627 838l395 4l10 343q-67 6 -129.5 8.5t-122.5 2.5q-1 0 -52 -1t-101 -1v-356z" />
<glyph unicode="S" horiz-adv-x="1612" d="M86 1065q0 254 171.5 364.5t573.5 110.5q296 0 456.5 -110.5t160.5 -313.5q0 -13 -1 -28t-3 -35l-467 16l8 155q-67 10 -139 14.5t-152 4.5q-35 0 -75.5 -1.5t-88.5 -5.5l-2 -247h50q494 0 726 -127.5t232 -398.5q0 -254 -181 -394.5t-511 -140.5q-358 0 -557 130.5 t-199 363.5q0 10 0.5 19t1.5 19l481 -22q0 -42 2 -81.5t7 -77.5l458 -21q1 9 1 25q3 87 3 120q0 17 -1.5 49.5t-4.5 83.5q-85 10 -241 20q-345 23 -473 89q-118 60 -177 165.5t-59 254.5z" />
<glyph unicode="T" horiz-adv-x="1327" d="M33 1077l18 430l608 -28l635 10q-11 -70 -16.5 -157t-5.5 -187l-367 22l-11 -850v-188q0 -49 1 -95t4 -91q-145 18 -259.5 27.5t-211.5 11.5q14 271 21.5 543t7.5 548q-15 1 -42 2q-139 6 -196 6q-23 0 -103 -2q-51 -1 -83 -2z" />
<glyph unicode="U" horiz-adv-x="1583" d="M139 1507l465 -28l2 -449l37 -711l408 -6l20 684l-35 473l389 15l9 -412q3 -151 4.5 -255.5t1.5 -162.5q0 -229 -30 -344.5t-101 -191.5q-87 -95 -212 -143t-284 -48q-222 0 -372 75t-220 220q-38 80 -58 252t-22 437z" />
<glyph unicode="V" horiz-adv-x="1346" d="M25 1522q50 -1 126.5 -2.5t94.5 -1.5q42 0 163 2q46 1 72 2l92 -463l160 -699l262 1147l330 -28q-129 -568 -274 -986q-7 -21 -9 -26l-170 -518l-452 26z" />
<glyph unicode="W" horiz-adv-x="2142" d="M33 1470l446 -12q5 -98 50.5 -353.5t64.5 -406.5l41 -342l31 191q20 131 78 359t151 540h481q7 -54 13.5 -112t7.5 -62l159 -918q11 90 24 174.5t30 169.5l143 752l352 -8l-202 -985q-8 -43 -44.5 -175t-86.5 -294h-115h-174q-51 0 -109.5 -0.5t-124.5 -1.5l-145 866 l-23 172l-39 -227q-33 -188 -83.5 -382.5t-137.5 -455.5l-487 8v4q0 38 -144 733q-96 466 -157 766z" />
<glyph unicode="X" horiz-adv-x="1518" d="M0 -39l416 705q19 35 33.5 54.5t29.5 35.5l-293 446q-32 50 -87 128q-78 112 -85 143l527 16l260 -451l276 418l416 -24l-104 -138l-357 -512q90 -163 203 -343t291 -439l-518 -10q-119 168 -191.5 295t-89.5 194l-221 -403q-3 -5 -7 -12q-37 -67 -71 -103h-428z" />
<glyph unicode="Y" horiz-adv-x="1319" d="M0 1487l477 4l172 -436q6 -16 18.5 -60.5t28.5 -105.5l254 608l369 -31l-451 -936l19 -639q-126 16 -244.5 26.5t-228.5 16.5q13 158 19.5 293.5t6.5 225.5q0 25 -3 86q0 14 -1 22z" />
<glyph unicode="Z" horiz-adv-x="1489" d="M48 0q4 67 6.5 121.5t2.5 99.5q0 1 -1 33t-1 63q259 258 487 477.5t419 395.5l-871 -57l16 337h36q291 -8 423 -8q193 0 404 5t436 13l-4 -399q-46 -48 -132 -141q-466 -497 -642 -610h794l13 -330l-748 18z" />
<glyph unicode="[" horiz-adv-x="627" d="M158 1511l446 29v-102l-215 -31l-4 -686l-23 -1000l240 -6l-8 -127l-424 21l16 647l1 6q8 342 8 506q0 225 -9 404.5t-28 338.5z" />
<glyph unicode="\" horiz-adv-x="569" d="M-49 1503l184 37l322 -1182l161 -481l-165 -67l-303 1046z" />
<glyph unicode="]" horiz-adv-x="627" d="M18 -383l7 113l264 16l-41 662l10 999l-240 6l9 127l424 -20l-15 -930l27 -973h-445z" />
<glyph unicode="^" horiz-adv-x="2048" d="M414 899l465 563h288l465 -563h-264l-344 342l-346 -342h-264z" />
<glyph unicode="_" d="M0 -244h1024v-239h-1024v239z" />
<glyph unicode="`" d="M207 1542l291 -6l188 -362h-166l-92 122z" />
<glyph unicode="a" horiz-adv-x="1298" d="M37 205q0 100 44.5 193t106.5 124q61 30 238 59t412 46v35q0 31 -2 59.5t-7 52.5q-76 25 -155 39t-139 14q-13 0 -24.5 -0.5t-23.5 -1.5l-4 -139q-64 7 -117.5 10.5t-101.5 3.5q-39 0 -82 -1.5t-88 -3.5v22q0 150 160.5 248t404.5 98q260 0 393.5 -101.5t133.5 -299.5 q0 -71 -5 -171t-5 -129q0 -71 10 -154.5t40 -236.5q-28 2 -73 5.5t-55 3.5q-33 0 -90 -8t-156 -25l-53 114q-88 -61 -196.5 -94t-223.5 -33q-160 0 -251 72t-91 199zM446 365l3 -185l286 21q8 56 11.5 99t3.5 87l-1 33q-76 -5 -151.5 -18.5t-151.5 -36.5z" />
<glyph unicode="b" horiz-adv-x="1341" d="M111 -57q8 56 12 150.5t4 355.5v700q0 62 -4.5 164t-11.5 227q44 -11 92.5 -16.5t103.5 -5.5h252q-11 -79 -17.5 -195t-11.5 -377q80 61 158 89t168 28q202 0 308 -134t106 -388q0 -264 -142 -435.5t-360 -171.5q-95 0 -172 27t-135 80l-33 -66zM457 711l12 -461l330 -8 l26 297l-16 192z" />
<glyph unicode="c" horiz-adv-x="1298" d="M72 500q0 257 158 410t427 153q267 0 419 -126t157 -349l-369 8l-22 205l-311 -19q-6 -57 -8.5 -123t-2.5 -153q0 -64 3.5 -130t11.5 -134q55 -6 88.5 -8.5t58.5 -2.5q31 0 108 7q15 1 23 2l12 129h402q-19 -206 -159 -320.5t-374 -114.5q-273 0 -447.5 159t-174.5 407z " />
<glyph unicode="d" horiz-adv-x="1356" d="M72 520q0 253 136 398t372 145q97 0 176.5 -31.5t140.5 -93.5q0 155 -9 301.5t-28 282.5q11 -1 31 -2q144 -7 203 -7q33 0 120 4q18 0 29 1q-6 -64 -9 -132.5t-3 -156.5v-76l-2 -428v-92q0 -175 4.5 -335t13.5 -298q-30 1 -82 2q-88 2 -112 2q-33 0 -68 -1t-74 -3l-30 80 q-52 -52 -141 -82.5t-189 -30.5q-242 0 -360.5 137t-118.5 416zM432 283h377l-14 432l-359 -10z" />
<glyph unicode="e" horiz-adv-x="1294" d="M72 481q0 264 157 423t418 159q265 0 420.5 -163.5t155.5 -444.5v-37h-408q-62 0 -148.5 -5t-220.5 -16q0 -52 5 -102.5t14 -99.5l326 -5l12 111l399 12q-28 -179 -167 -280t-359 -101q-279 0 -441.5 148.5t-162.5 400.5zM514 606h322l-19 209l-303 -6v-203z" />
<glyph unicode="f" horiz-adv-x="958" d="M27 971l159 4q1 28 3 83q6 230 47 298q65 107 182 167t262 60q171 0 252.5 -87.5t81.5 -270.5q0 -31 -4 -102v-11l-320 18l-8 213l-188 -10l8 -366h393l14 -279h-313l-6 -741l-436 30q16 134 23 275t7 375v116h-139z" />
<glyph unicode="g" horiz-adv-x="1346" d="M68 -90q0 23 0.5 35t1.5 22l385 -24l-4 -176l323 -3l2 320q-55 -28 -111.5 -40.5t-123.5 -12.5q-222 0 -345.5 134t-123.5 376q0 249 127 385.5t358 136.5q115 0 203.5 -33.5t148.5 -99.5l52 100l258 -6v-897q0 -190 -12 -273t-40 -133q-64 -111 -203 -172t-333 -61 q-289 0 -426 102.5t-137 319.5zM514 348l389 8l-10 387l-379 15v-410z" />
<glyph unicode="h" horiz-adv-x="1229" d="M105 1493q89 -9 193.5 -13.5t238.5 -4.5q-9 -116 -13 -253t-4 -292q82 70 155 101.5t152 31.5q139 0 208 -83.5t69 -250.5v-762l-375 -6l16 340l-36 436l-275 -8l12 -729l-325 29l6 784z" />
<glyph unicode="i" horiz-adv-x="621" d="M90 -10l31 395v6q8 96 8 146q0 21 -0.5 51.5t-1.5 66.5l-8 303l381 27l-6 -461l8 -559zM123 1296q0 83 67.5 151.5t135.5 68.5q78 0 148.5 -62t70.5 -135q0 -89 -55 -159t-138 -70q-91 0 -160 61t-69 145z" />
<glyph unicode="j" horiz-adv-x="649" d="M-12 -195h162l-13 1190l398 4l-13 -688q0 -97 2 -248t2 -204q0 -180 -98 -268.5t-299 -88.5q-32 0 -67.5 5t-73.5 14v284zM117 1323q0 85 73 150t154 65q101 0 176.5 -70t75.5 -155q0 -80 -72.5 -150.5t-169.5 -70.5q-103 0 -170 65t-67 166z" />
<glyph unicode="k" horiz-adv-x="1337" d="M104 1503l404 23l16 -867l379 373l367 -12l-328 -320l381 -671q-89 -3 -198 -17.5t-240 -40.5l-234 506l-182 -184l2 -303l-344 -4v817z" />
<glyph unicode="l" horiz-adv-x="639" d="M119 4q4 177 6 368.5t2 407.5q0 258 -1 418t-3 313l416 -16l-27 -989l14 -524z" />
<glyph unicode="m" horiz-adv-x="2077" d="M111 -10q9 89 13.5 193.5t4.5 269.5q0 180 -3 307.5t-9 234.5h332l8 -125q65 92 166.5 142.5t220.5 50.5q112 0 197.5 -52.5t119.5 -142.5q54 94 154 141.5t246 47.5q185 0 287 -96t104 -273l8 -706l-406 12q3 38 4 84.5t1 142.5q0 19 -1.5 76t-5.5 164l-18 264l-281 6 l-2 -727q-107 9 -189 14t-138 5q-18 0 -51.5 -1.5t-51.5 -1.5l-2 682l-294 -10q-6 -62 -8.5 -132t-2.5 -157v-84q2 -31 3 -67.5t1 -110.5q0 -57 -0.5 -85.5t-1.5 -51.5q-151 -4 -242 -7.5t-163 -6.5z" />
<glyph unicode="n" horiz-adv-x="1298" d="M109 0q9 179 13.5 338t4.5 274v74q0 87 -3 158t-9 139l297 -18l22 -109q114 91 229 137.5t226 46.5q154 0 227.5 -81.5t73.5 -253.5q0 -22 -0.5 -33t-1.5 -22l-12 -214q-3 -72 -4 -141.5t-1 -161.5q0 -39 2 -84t4 -94q-114 7 -209.5 10.5t-183.5 3.5l17 406l-31 336 l-283 -17l9 -301q-4 -65 -7.5 -152.5t-7.5 -228.5z" />
<glyph unicode="o" horiz-adv-x="1294" d="M72 524q0 247 151.5 393t407.5 146q255 0 423.5 -175t168.5 -448q0 -216 -165.5 -361t-408.5 -145q-257 0 -417 163t-160 427zM436 291q74 -25 158.5 -37t185.5 -12h27l-41 546l-274 -26z" />
<glyph unicode="p" horiz-adv-x="1331" d="M88 981l270 -14l25 -72q66 84 160.5 126t218.5 42q220 0 360 -136.5t140 -348.5q0 -131 -27.5 -236t-83.5 -195q-82 -94 -180 -137t-232 -43q-47 0 -99.5 11t-109.5 32v-508l-407 25l4 895zM465 256l375 6v426l-375 2v-434z" />
<glyph unicode="q" horiz-adv-x="1384" d="M72 500q0 257 146 410t386 153q119 0 221 -37t189 -111l37 52l231 32q-12 -127 -19.5 -392.5t-7.5 -598.5q0 -92 2.5 -222t6.5 -284l-445 -43q6 92 9 176.5t3 159.5v90q0 51 0.5 79.5t1.5 55.5q-56 -38 -123 -57.5t-141 -19.5q-230 0 -363.5 149t-133.5 408zM520 297 l365 -27v457l-357 31z" />
<glyph unicode="r" horiz-adv-x="1071" d="M109 29l18 661l-8 305h289l18 -155q31 106 116.5 164.5t209.5 58.5q141 0 214.5 -86.5t73.5 -253.5q0 -45 -4 -94.5t-12 -106.5h-338l6 226h-192l37 -773q-162 45 -397 53q-20 0 -31 1z" />
<glyph unicode="s" horiz-adv-x="1157" d="M78 727q0 183 106 263.5t357 80.5q239 0 351.5 -73.5t137.5 -243.5h-6q-199 8 -301 8l-27 86h-319v-146q415 -17 566 -103.5t151 -285.5q0 -178 -133.5 -278.5t-372.5 -100.5q-243 0 -370.5 88t-127.5 257v8l328 -25l18 -74l359 -6v144q-431 23 -574 109t-143 292z" />
<glyph unicode="t" horiz-adv-x="934" d="M25 760l12 219l174 -4l145 334l197 10l-12 -299l311 -12l-18 -275l-310 -4l-16 -528l190 -2l-8 139h205q4 -26 6 -55.5t2 -63.5q0 -138 -94.5 -211.5t-273.5 -73.5q-115 0 -199 30.5t-143 92.5q-28 29 -40 62t-12 96v43q0 105 10 216.5t35 268.5z" />
<glyph unicode="u" horiz-adv-x="1337" d="M102 1006l213 -11h203l-24 -743h327q5 104 7.5 206t2.5 206q0 43 -3 133.5t-9 226.5l400 -10l-11 -453l11 -536l-312 8l-12 73q-84 -80 -182.5 -121.5t-206.5 -41.5q-191 0 -292 98t-101 285q0 69 5 168t5 129v28z" />
<glyph unicode="v" horiz-adv-x="1053" d="M0 1020l426 18q14 -105 46.5 -272.5t98.5 -476.5l60 264l131 453h301l-68 -232q-95 -235 -168 -427t-125 -347h-383l-147 469q-55 187 -97.5 324t-74.5 227z" />
<glyph unicode="w" horiz-adv-x="1688" d="M0 1020h391l117 -723l57 217l135 481l385 15q62 -219 102 -405t58 -335l164 715l289 -8q-27 -74 -65 -225.5t-62 -223.5l-180 -528l-416 -14l-86 356q-24 100 -46 343l-1 17q-16 -73 -29.5 -126t-24.5 -78l-194 -512l-350 14q-3 35 -45.5 183.5t-67.5 260.5z" />
<glyph unicode="x" horiz-adv-x="1110" d="M0 -14l125 186l213 334l-299 489h416l141 -280l74 125l88 143l323 -6q-102 -138 -167.5 -241.5t-110.5 -198.5l307 -541h-459l-67 145l-64 121l-155 -248l-39 -80z" />
<glyph unicode="y" horiz-adv-x="1110" d="M-33 -203q0 23 6 83q2 14 2 20l304 -35l-17 -137l115 -9l43 220l-314 759l-131 330l422 10l138 -405q22 -66 39 -140t28 -153l121 459l49 264l309 -35q-94 -278 -355 -1164l-7 -23q-62 -209 -150.5 -280t-255.5 -71q-172 0 -259 77t-87 230z" />
<glyph unicode="z" horiz-adv-x="1200" d="M47 0l4 195l620 589q-142 -1 -288 -7t-291 -17l23 278q58 -3 126 -4.5t208 -1.5q203 0 366 2t287 4l-4 -297l-477 -469l526 9q-7 -37 -9.5 -75.5t-2.5 -103.5q0 -39 0.5 -64.5t0.5 -47.5q-143 7 -295.5 10.5t-320.5 3.5q-165 0 -269.5 -1t-203.5 -3z" />
<glyph unicode="{" d="M152 410v241q6 0 18 -1t18 -1q118 0 168 55.5t50 188.5v254q0 136 24 193.5t82 89.5q48 25 120.5 37t180.5 12q12 0 38.5 -1t41.5 -1v-242q-7 0 -21 1t-20 1q-98 0 -132 -35.5t-34 -146.5v-240q0 -140 -46 -200t-165 -85q120 -24 165.5 -82.5t45.5 -199.5v-242 q0 -110 33.5 -145t130.5 -35q7 0 21.5 1t21.5 1v-242q-15 0 -42 -1t-40 -1q-108 0 -179.5 12t-119.5 37q-59 32 -82.5 88.5t-23.5 192.5v256q0 133 -49.5 187.5t-168.5 54.5q-4 0 -17 -1t-19 -1z" />
<glyph unicode="|" d="M393 -483v2048h240v-2048h-240z" />
<glyph unicode="}" d="M133 -172q9 0 23 -1t20 -1q97 0 130.5 34.5t33.5 145.5v242q0 140 46 199t165 83q-120 25 -165.5 84t-45.5 201v240q0 111 -33.5 146.5t-126.5 35.5q-7 0 -22.5 -1t-24.5 -1v242q15 0 41.5 1t38.5 1q108 0 180 -12t121 -37q58 -32 82.5 -89.5t24.5 -193.5v-254 q0 -134 49 -189t168 -55q6 0 18 1t18 1v-241q-6 0 -18 1t-18 1q-119 0 -168 -55t-49 -187v-256q0 -137 -24.5 -194.5t-82.5 -88.5q-45 -24 -113.5 -35.5t-177.5 -11.5q-14 0 -44 1t-46 1v242z" />
<glyph unicode="~" horiz-adv-x="1706" d="M178 401v254q112 73 207.5 108.5t179.5 35.5q63 0 126.5 -12t169.5 -46q16 -5 51 -17q159 -56 247 -56q84 0 173.5 36t197.5 115v-254q-101 -69 -194 -103t-183 -34q-45 0 -89 7.5t-83 21.5q-13 4 -38 13q-255 89 -382 89q-84 0 -175.5 -37.5t-207.5 -120.5z" />
<glyph unicode="&#xa1;" horiz-adv-x="639" d="M96 -35l23 416q32 203 53 357.5t29 252.5l282 65q-9 -114 -13.5 -217.5t-4.5 -201.5q0 -176 8.5 -354.5t26.5 -354.5zM121 1329q0 105 49 158t145 53q112 0 170 -56.5t58 -164.5q0 -82 -62 -131t-162 -49q-91 0 -144.5 51.5t-53.5 138.5z" />
<glyph unicode="&#xa2;" horiz-adv-x="1395" d="M74 756q0 282 138 448t398 197v135h221l-8 -135h8q209 0 331 -118t138 -335l-382 -8l-13 178h-100l8 -663h152l10 153l344 -12q-14 -213 -136.5 -324.5t-361.5 -130.5l8 -180l-245 -22l16 200q-267 31 -396.5 183t-129.5 434zM459 1090l14 -635h137v635h-151z" />
<glyph unicode="&#xa3;" horiz-adv-x="1395" d="M57 840l156 4q6 272 28.5 377.5t71.5 167.5q69 87 181 131.5t264 44.5q249 0 369 -108.5t120 -332.5q0 -13 -0.5 -27t-1.5 -30l-371 -6l-12 229h-254l-18 -166v-256l317 21l15 -283l-355 -2l-37 -278l467 16q115 4 195 12.5t145 24.5q-9 -75 -13.5 -140.5t-4.5 -125.5 q0 -29 3 -95q1 -12 1 -18l-874 18l-261 -8q16 79 46 246q9 53 14 80l-10 282l-162 -10z" />
<glyph unicode="&#xa4;" horiz-adv-x="1395" d="M-23 793l66 176l82 4q67 276 227.5 421.5t397.5 145.5q261 0 419 -156.5t158 -416.5q0 -2 -1 -15t-1 -26v-23h-12q-86 -4 -121 -4q-45 0 -97.5 2.5t-115.5 8.5l-16 304h-404l-6 -229l295 14l-82 -217l-221 31l8 -147l176 22l-78 -209l-100 15l2 -172h410l22 268l338 -25 q0 -6 -1 -17.5t-1 -15.5q0 -267 -157 -435.5t-408 -168.5q-247 0 -408.5 141t-222.5 410l-123 -8l66 174l34 4q0 57 1 92.5t3 69.5z" />
<glyph unicode="&#xa5;" horiz-adv-x="1395" d="M59 1483l430 18l242 -645l264 637l338 -18l-340 -680l238 -2l-2 -224l-344 11l6 -498l12 -153q-98 5 -152.5 7.5t-86.5 2.5q-36 0 -81.5 -2.5t-111.5 -7.5q14 169 21.5 309t7.5 233v88h-322l-31 221l267 -18z" />
<glyph unicode="&#xa6;" d="M393 -350v758h240v-758h-240zM393 674v758h240v-758h-240z" />
<glyph unicode="&#xa7;" horiz-adv-x="1331" d="M72 469q0 150 58 244.5t169 124.5q-45 41 -69.5 117.5t-24.5 174.5q0 217 99.5 307.5t342.5 90.5q211 0 321.5 -75t133.5 -234q-120 5 -184.5 6.5t-120.5 1.5l-27 86h-272l-2 -250q479 -31 622.5 -126.5t143.5 -326.5q0 -161 -58.5 -258t-185.5 -147q61 -50 92 -122.5 t31 -168.5q0 -203 -133.5 -318.5t-366.5 -115.5q-218 0 -343.5 92t-125.5 252v10l328 -24l20 -76l314 -4v239q-63 11 -178 29q-279 41 -384 92q-106 52 -153 141t-47 238zM414 375l491 -88l15 389l-500 74z" />
<glyph unicode="&#xa8;" d="M182 1354q0 63 42.5 107t103.5 44q76 0 112.5 -36.5t36.5 -112.5q0 -62 -45.5 -104t-114.5 -42q-50 0 -92.5 42.5t-42.5 101.5zM547 1358q0 63 41.5 105t109.5 42q72 0 107 -34.5t35 -104.5q0 -73 -41.5 -114.5t-114.5 -41.5q-70 0 -103.5 36t-33.5 112z" />
<glyph unicode="&#xa9;" horiz-adv-x="1706" d="M106 737q0 148 57.5 285t164.5 246q105 106 238 161.5t286 55.5q154 0 289.5 -56t242.5 -163q106 -106 160.5 -240.5t54.5 -288.5q0 -153 -54 -287t-159 -237q-109 -108 -247 -165.5t-287 -57.5q-148 0 -283.5 57t-242.5 164t-163.5 241.5t-56.5 284.5zM242 737 q0 -119 47 -230.5t135 -199.5q87 -87 198 -133.5t232 -46.5t234 47t202 135q86 84 130 193t44 235q0 125 -45 235.5t-131 196.5q-88 89 -198.5 135t-235.5 46q-126 0 -235 -45.5t-195 -133.5q-88 -89 -135 -201t-47 -233zM446 731q0 207 111 329t299 122q157 0 257 -80 t108 -211h-213q-7 67 -47.5 104t-108.5 37q-83 0 -129.5 -77t-46.5 -216q0 -140 47.5 -212t138.5 -72q67 0 106.5 40.5t45.5 114.5h215q-6 -143 -107.5 -230t-263.5 -87q-190 0 -301 117.5t-111 320.5z" />
<glyph unicode="&#xaa;" horiz-adv-x="975" d="M29 944q0 70 33 136t79 87q46 20 179.5 40t308.5 32v25q0 19 -1.5 39t-4.5 40q-59 18 -118 27.5t-104 9.5q-9 0 -17.5 -0.5t-16.5 -1.5l-5 -96q-63 5 -98 6.5t-65 1.5q-50 0 -77 -1t-50 -3v17q0 105 119.5 173t304.5 68q195 0 294 -71t99 -209q0 -49 -3 -119.5t-3 -89.5 q0 -87 34 -262l2 -13q-35 3 -59.5 4.5t-36.5 1.5q-25 0 -69 -5t-115 -17l-39 80q-65 -43 -146.5 -65.5t-168.5 -22.5q-121 0 -188.5 49.5t-67.5 138.5zM336 928l215 14q6 28 9 61t3 68v24q-61 -4 -117.5 -14t-109.5 -24v-129z" />
<glyph unicode="&#xab;" d="M72 502q58 106 103.5 209.5t80.5 208.5l256 -19l-242 -385l252 -422l-256 10q-24 70 -74.5 173.5t-119.5 224.5zM502 530q57 89 108.5 187t98.5 203l235 -15l-242 -389l250 -422l-235 10q-54 140 -110 251t-105 175z" />
<glyph unicode="&#xac;" horiz-adv-x="1706" d="M254 639v227h1198v-501h-229v274h-969z" />
<glyph unicode="&#xad;" horiz-adv-x="664" d="M72 651q57 6 122 8t154 3q80 0 138 -2.5t106 -8.5l-8 -278q-20 0 -46.5 1t-33.5 1t-121 -5t-223 -5h-82z" />
<glyph unicode="&#xae;" horiz-adv-x="1706" d="M106 737q0 151 59 290t169 247q105 104 237 157.5t281 53.5q156 0 294 -57.5t245 -167.5q101 -104 154.5 -238t53.5 -285q0 -155 -56.5 -291t-164.5 -239q-109 -105 -245 -161t-281 -56q-151 0 -287 58t-243 169q-105 108 -160.5 241.5t-55.5 278.5zM244 737 q0 -121 44 -229t130 -195q87 -90 199 -138t235 -48q121 0 232.5 45.5t199.5 130.5t134 196.5t46 237.5q0 124 -44 233.5t-128 194.5q-89 91 -200.5 138t-237.5 47q-124 0 -232 -44t-194 -128q-90 -90 -137 -203t-47 -238zM537 344v819h329q174 0 264.5 -60t90.5 -177 q0 -81 -46 -139t-128 -82l182 -361h-248l-154 326h-65v-326h-225zM762 803h80q74 0 110.5 26.5t36.5 79.5q0 59 -38 86t-122 27h-67v-219z" />
<glyph unicode="&#xaf;" d="M205 1268v178l102 -2l512 6v-182h-5q-93 4 -140 4q-91 0 -262 -4q-77 -2 -113 -2z" />
<glyph unicode="&#xb0;" horiz-adv-x="674" d="M27 1155q0 131 90.5 221t220.5 90q129 0 220 -91t91 -220q0 -128 -91.5 -219.5t-221.5 -91.5q-129 0 -219 90.5t-90 220.5zM172 1157q0 -70 48 -118t118 -48q68 0 116 49t48 117t-48 116t-116 48q-69 0 -117.5 -48t-48.5 -116z" />
<glyph unicode="&#xb1;" horiz-adv-x="1706" d="M254 -18v231h1198v-231h-1198zM254 690v232h481v319h238v-319h479v-232h-479v-319h-238v319h-481z" />
<glyph unicode="&#xb2;" horiz-adv-x="920" d="M98 602q0 174 12.5 252t43.5 121q33 48 113 84t288 88v223h-186l-4 -190l-256 4q-3 19 -4 38t-1 46q0 64 14.5 93.5t51.5 65.5q57 56 130.5 81.5t176.5 25.5q165 0 255.5 -78.5t90.5 -222.5q0 -105 -56 -169t-196 -114q-66 -22 -136.5 -40.5t-75.5 -20.5q-6 -3 -8.5 -10 t-2.5 -29v-10q0 -11 -0.5 -18t-0.5 -13q20 -1 47.5 -1.5t84.5 -0.5q100 0 183.5 4t146.5 12q-5 -38 -7.5 -77.5t-2.5 -83.5q0 -12 1 -34t1 -32q-143 8 -236.5 11t-167.5 3q-77 0 -257 -6q-27 -1 -42 -2z" />
<glyph unicode="&#xb3;" horiz-adv-x="920" d="M72 819q0 7 1 23t1 24l295 -6l-13 -145h203l-12 221l-215 16l14 170h164l20 201l-190 16l-8 -159l-256 20q2 162 99 248t276 86q169 0 261.5 -75t92.5 -212q0 -74 -39.5 -117t-138.5 -77q110 -23 164.5 -78.5t54.5 -145.5q0 -125 -108 -200.5t-289 -75.5 q-196 0 -286.5 64t-90.5 202z" />
<glyph unicode="&#xb4;" d="M338 1174l186 358l168 2l125 8l-305 -368h-174z" />
<glyph unicode="&#xb5;" horiz-adv-x="1315" d="M-45 -428l238 1518h358l-80 -529q-6 -41 -9 -77.5t-3 -65.5q0 -85 35.5 -127.5t107.5 -42.5q88 0 138.5 68.5t74.5 220.5l88 553h357l-175 -1090h-321l18 125q-40 -75 -89.5 -108t-119.5 -33q-59 0 -106.5 31t-77.5 89l-82 -532h-352z" />
<glyph unicode="&#xb6;" d="M29 1130q0 158 106 253.5t283 95.5h579v-123h-106v-1356h-176v1356h-150v-1356h-174v784q-164 6 -263 101t-99 245z" />
<glyph unicode="&#xb7;" horiz-adv-x="696" d="M100 748q0 102 72.5 174.5t175.5 72.5q105 0 177.5 -71.5t72.5 -175.5q0 -103 -74 -176.5t-176 -73.5q-101 0 -174.5 74t-73.5 176z" />
<glyph unicode="&#xb8;" d="M213 -358l156 -4l8 -37l194 -2v122l-163 7v290h114v-161h19q111 0 170 -50t59 -143q0 -108 -69.5 -163.5t-206.5 -55.5q-143 0 -206 45t-75 152z" />
<glyph unicode="&#xb9;" horiz-adv-x="920" d="M219 1323l19 143q157 11 250.5 21t150.5 22q-16 -105 -24.5 -228.5t-8.5 -256.5v-53l4 -389l-295 14l39 428l11 291z" />
<glyph unicode="&#xba;" horiz-adv-x="971" d="M53 1167q0 173 114 275t306 102t318.5 -122t126.5 -312q0 -152 -124 -253t-307 -101q-194 0 -314 113t-120 298zM328 1004q55 -17 119 -25t139 -8h20l-31 383l-206 -21z" />
<glyph unicode="&#xbb;" d="M72 920l235 -11q52 -135 108 -246.5t107 -179.5q-57 -89 -108.5 -186.5t-98.5 -202.5l-235 15l242 389zM502 920l256 -11q21 -64 72 -169.5t122 -227.5q-60 -113 -105 -214.5t-79 -203.5l-256 21l242 383z" />
<glyph unicode="&#xbc;" horiz-adv-x="2128" d="M209 1337l16 133q136 8 230.5 18t154.5 21q-16 -89 -24 -203t-8 -249v-49l4 -365l-281 14l37 400l10 272zM537 2l507 852l379 711l166 -56l-471 -811l-69 -118l-338 -652zM1286 184q1 17 2 44q2 51 2 67q0 13 -0.5 26.5t-3.5 38.5q89 132 191 264t217 265 q57 -9 119.5 -15t144.5 -10l2 -506h145l-8 -172h-143l2 -227h-301l4 225h-373zM1520 381h219l6 321q-63 -77 -119.5 -157.5t-105.5 -163.5z" />
<glyph unicode="&#xbd;" horiz-adv-x="2128" d="M209 1337l16 133q136 8 230.5 18t154.5 21q-16 -89 -24 -203t-8 -249v-49l4 -365l-281 14l37 400l10 272zM537 2l507 852l379 711l166 -56l-471 -811l-69 -118l-338 -652zM1342 6q1 166 13.5 237.5t41.5 110.5q32 46 110 79.5t273 80.5v209h-178l-5 -178l-245 4 q-1 17 -1.5 35t-0.5 43q0 59 13 87t48 62q55 52 125.5 76.5t167.5 24.5q158 0 245 -74t87 -209q0 -98 -54.5 -158t-187.5 -104q-64 -23 -131.5 -40.5t-71.5 -19.5q-5 -2 -7.5 -8.5t-2.5 -27.5v-9q0 -10 -0.5 -16.5t-1.5 -11.5q20 -1 46.5 -1.5t82.5 -0.5q95 0 174 4t139 12 q-5 -50 -7.5 -86.5t-2.5 -65.5q0 -10 1 -23t3 -38q-15 1 -43 2q-241 10 -344 10q-63 0 -134 -1.5t-152 -4.5z" />
<glyph unicode="&#xbe;" horiz-adv-x="2128" d="M68 866q0 8 0.5 16.5t3.5 26.5l278 -6l-10 -135h192l-10 207l-205 14l13 160h157l21 188l-184 15l-9 -150l-243 19q3 151 95.5 232t262.5 81q161 0 249.5 -70.5t88.5 -197.5q0 -70 -38 -111t-132 -72q104 -21 156.5 -73.5t52.5 -135.5q0 -116 -103.5 -187t-275.5 -71 q-187 0 -273.5 60.5t-86.5 189.5zM537 2l507 852l379 711l166 -56l-471 -811l-69 -118l-338 -652zM1286 184q1 17 2 44q2 51 2 67q0 13 -0.5 26.5t-3.5 38.5q89 132 191 264t217 265q57 -9 119.5 -15t144.5 -10l2 -506h145l-8 -172h-143l2 -227h-301l4 225h-373zM1520 381 h219l6 321q-63 -77 -119.5 -157.5t-105.5 -163.5z" />
<glyph unicode="&#xbf;" horiz-adv-x="1337" d="M98 326q0 277 108 404.5t345 127.5h18l2 158h375v-410l-422 -4l4 -360h330l-2 217h399v-45q0 -232 -147 -359t-418 -127q-253 0 -422.5 117.5t-169.5 280.5zM502 1284q0 123 59 189.5t168 66.5q134 0 212.5 -65.5t78.5 -176.5q0 -69 -68 -131.5t-149 -62.5 q-120 0 -210.5 58t-90.5 122z" />
<glyph unicode="&#xc0;" horiz-adv-x="1403" d="M-18 -33l229 701l260 829l500 -14l438 -1516h-514l-92 328l-344 8l-84 -336h-393zM402 2021l291 -6l188 -362h-166l-92 122zM516 616h297l-90 308l-55 274z" />
<glyph unicode="&#xc1;" horiz-adv-x="1403" d="M-18 -33l229 701l260 829l500 -14l438 -1516h-514l-92 328l-344 8l-84 -336h-393zM516 616h297l-90 308l-55 274zM533 1653l186 358l168 2l125 8l-305 -368h-174z" />
<glyph unicode="&#xc2;" horiz-adv-x="1403" d="M-18 -33l229 701l260 829l500 -14l438 -1516h-514l-92 328l-344 8l-84 -336h-393zM385 1653q64 105 113 195.5t82 162.5l260 10q26 -76 70.5 -164t115.5 -204h-153l-166 176l-158 -168zM516 616h297l-90 308l-55 274z" />
<glyph unicode="&#xc3;" horiz-adv-x="1403" d="M-18 -33l229 701l260 829l500 -14l438 -1516h-514l-92 328l-344 8l-84 -336h-393zM381 1704q5 122 56 200t123 78q33 0 97.5 -22.5t221.5 -91.5l39 100l115 -33q-33 -138 -71.5 -191t-100.5 -53q-37 0 -143.5 42t-172.5 63l-31 -88zM516 616h297l-90 308l-55 274z" />
<glyph unicode="&#xc4;" horiz-adv-x="1403" d="M-18 -33l229 701l260 829l500 -14l438 -1516h-514l-92 328l-344 8l-84 -336h-393zM377 1833q0 63 42.5 107t103.5 44q76 0 112.5 -36.5t36.5 -112.5q0 -62 -45.5 -104t-114.5 -42q-50 0 -92.5 42.5t-42.5 101.5zM516 616h297l-90 308l-55 274zM742 1837q0 63 41.5 105 t109.5 42q72 0 107 -34.5t35 -104.5q0 -73 -41.5 -114.5t-114.5 -41.5q-70 0 -103.5 36t-33.5 112z" />
<glyph unicode="&#xc5;" horiz-adv-x="1403" d="M-18 -33l229 701l235 762l545 -17l418 -1446h-514l-92 328l-344 8l-84 -336h-393zM463 1710q0 114 78.5 188t199.5 74q103 0 178.5 -74t75.5 -178t-80.5 -178t-195.5 -74q-113 0 -184.5 68.5t-71.5 173.5zM516 616h297l-90 308l-55 274zM631 1622l192 8l4 185l-190 -9z " />
<glyph unicode="&#xc6;" horiz-adv-x="2138" d="M-57 -61l333 708l375 823q34 0 138.5 -3t160.5 -3q353 0 647 4t455 11l8 -312l-868 -2l-2 -259q65 -8 158.5 -11.5t222.5 -3.5q121 0 210 2.5t162 7.5l-8 -315q-24 -5 -51.5 -6.5t-77.5 -1.5h-47q-29 0 -97 1t-108 1q-101 0 -142 -0.5t-71 -2.5v-280q133 -18 301 -27.5 t355 -9.5h106l21 -315l-688 16h-609l11 313h-357l-125 -331zM578 575h270v226l-19 385h-10z" />
<glyph unicode="&#xc7;" horiz-adv-x="1602" d="M80 723q0 370 209 593.5t555 223.5q307 0 493.5 -157.5t186.5 -415.5q0 -10 -1 -23t-4 -41q-41 -2 -90.5 -3t-103.5 -1q-63 0 -131.5 2.5t-146.5 7.5l-19 305h-410l-18 -557l12 -335h484l24 268l398 -25v-26q0 -271 -184.5 -441t-483.5 -170q-354 0 -562 215t-208 580z M545 -358l156 -4l8 -37l194 -2v122l-163 7v290h114v-161h19q111 0 170 -50t59 -143q0 -108 -69.5 -163.5t-206.5 -55.5q-143 0 -206 45t-75 152z" />
<glyph unicode="&#xc8;" horiz-adv-x="1460" d="M111 1436l860 43l411 -4l-2 -273l-372 -4l-373 -18l14 -283q14 0 34 -1t28 -1h27q121 -2 241 -2q116 0 166 1.5t87 4.5l-3 -321l-436 18l-316 -31v-229h47q369 0 589 3t294 9q0 -109 4.5 -208.5t13.5 -190.5q-8 -6 -14.5 -8t-17.5 -2q-6 0 -42 1q-166 9 -333 13l-457 12 l-446 -22l32 858zM426 2021l291 -6l188 -362h-166l-92 122z" />
<glyph unicode="&#xc9;" horiz-adv-x="1460" d="M111 1436l860 43l411 -4l-2 -273l-372 -4l-373 -18l14 -283q14 0 34 -1t28 -1h27q121 -2 241 -2q116 0 166 1.5t87 4.5l-3 -321l-436 18l-316 -31v-229h47q369 0 589 3t294 9q0 -109 4.5 -208.5t13.5 -190.5q-8 -6 -14.5 -8t-17.5 -2q-6 0 -42 1q-166 9 -333 13l-457 12 l-446 -22l32 858zM557 1653l186 358l168 2l125 8l-305 -368h-174z" />
<glyph unicode="&#xca;" horiz-adv-x="1460" d="M111 1436l860 43l411 -4l-2 -273l-372 -4l-373 -18l14 -283q14 0 34 -1t28 -1h27q121 -2 241 -2q116 0 166 1.5t87 4.5l-3 -321l-436 18l-316 -31v-229h47q369 0 589 3t294 9q0 -109 4.5 -208.5t13.5 -190.5q-8 -6 -14.5 -8t-17.5 -2q-6 0 -42 1q-166 9 -333 13l-457 12 l-446 -22l32 858zM409 1653q64 105 113 195.5t82 162.5l260 10q26 -76 70.5 -164t115.5 -204h-153l-166 176l-158 -168z" />
<glyph unicode="&#xcb;" horiz-adv-x="1460" d="M111 1436l860 43l411 -4l-2 -273l-372 -4l-373 -18l14 -283q14 0 34 -1t28 -1h27q121 -2 241 -2q116 0 166 1.5t87 4.5l-3 -321l-436 18l-316 -31v-229h47q369 0 589 3t294 9q0 -109 4.5 -208.5t13.5 -190.5q-8 -6 -14.5 -8t-17.5 -2q-6 0 -42 1q-166 9 -333 13l-457 12 l-446 -22l32 858zM401 1833q0 63 42.5 107t103.5 44q76 0 112.5 -36.5t36.5 -112.5q0 -62 -45.5 -104t-114.5 -42q-50 0 -92.5 42.5t-42.5 101.5zM766 1837q0 63 41.5 105t109.5 42q72 0 107 -34.5t35 -104.5q0 -73 -41.5 -114.5t-114.5 -41.5q-70 0 -103.5 36t-33.5 112z " />
<glyph unicode="&#xcc;" horiz-adv-x="725" d="M57 2021l291 -6l188 -362h-166l-92 122zM133 -20l14 743l-14 768l459 -10l-14 -695l14 -798z" />
<glyph unicode="&#xcd;" horiz-adv-x="725" d="M133 -20l14 743l-14 768l459 -10l-14 -695l14 -798zM188 1653l186 358l168 2l125 8l-305 -368h-174z" />
<glyph unicode="&#xce;" horiz-adv-x="725" d="M40 1653q64 105 113 195.5t82 162.5l260 10q26 -76 70.5 -164t115.5 -204h-153l-166 176l-158 -168zM133 -20l14 743l-14 768l459 -10l-14 -695l14 -798z" />
<glyph unicode="&#xcf;" horiz-adv-x="725" d="M32 1833q0 63 42.5 107t103.5 44q76 0 112.5 -36.5t36.5 -112.5q0 -62 -45.5 -104t-114.5 -42q-50 0 -92.5 42.5t-42.5 101.5zM133 -20l14 743l-14 768l459 -10l-14 -695l14 -798zM397 1837q0 63 41.5 105t109.5 42q72 0 107 -34.5t35 -104.5q0 -73 -41.5 -114.5 t-114.5 -41.5q-70 0 -103.5 36t-33.5 112z" />
<glyph unicode="&#xd0;" horiz-adv-x="1597" d="M0 625v215h147l1 633q153 11 287.5 16.5t244.5 5.5q259 0 414.5 -58t271.5 -192q81 -94 116.5 -189t35.5 -218q0 -461 -212.5 -663t-705.5 -202q-89 0 -202 6.5t-267 20.5l14 627zM555 825h236l-5 -198l-202 8v-291h417l21 770l-463 14z" />
<glyph unicode="&#xd1;" horiz-adv-x="1669" d="M119 -18q16 385 24.5 761.5t10.5 745.5h483l463 -739q21 -35 52 -107t60 -158q0 49 1 118.5t1 88.5q0 122 -4.5 296t-15.5 460l336 -4l-8 -858l-6 -604q-82 4 -148.5 6t-105.5 2q-22 0 -101 -2q-59 -2 -94 -2l-27 41q-470 700 -567 995l-18 -1040h-336zM510 1704 q5 122 56 200t123 78q33 0 97.5 -22.5t221.5 -91.5l39 100l115 -33q-33 -138 -71.5 -191t-100.5 -53q-37 0 -143.5 42t-172.5 63l-31 -88z" />
<glyph unicode="&#xd2;" horiz-adv-x="1651" d="M80 770q0 174 28 298t85 196q109 139 269 207.5t378 68.5q347 0 538 -197.5t191 -558.5q0 -201 -58 -362.5t-176 -288.5q-103 -110 -208.5 -157.5t-249.5 -47.5q-375 0 -586 223t-211 619zM520 2021l291 -6l188 -362h-166l-92 122zM555 696l27 -381q123 -13 245.5 -19.5 t245.5 -6.5l31 844l-549 22v-459z" />
<glyph unicode="&#xd3;" horiz-adv-x="1651" d="M80 770q0 174 28 298t85 196q109 139 269 207.5t378 68.5q347 0 538 -197.5t191 -558.5q0 -201 -58 -362.5t-176 -288.5q-103 -110 -208.5 -157.5t-249.5 -47.5q-375 0 -586 223t-211 619zM555 696l27 -381q123 -13 245.5 -19.5t245.5 -6.5l31 844l-549 22v-459z M651 1653l186 358l168 2l125 8l-305 -368h-174z" />
<glyph unicode="&#xd4;" horiz-adv-x="1651" d="M80 770q0 174 28 298t85 196q109 139 269 207.5t378 68.5q347 0 538 -197.5t191 -558.5q0 -201 -58 -362.5t-176 -288.5q-103 -110 -208.5 -157.5t-249.5 -47.5q-375 0 -586 223t-211 619zM503 1653q64 105 113 195.5t82 162.5l260 10q26 -76 70.5 -164t115.5 -204h-153 l-166 176l-158 -168zM555 696l27 -381q123 -13 245.5 -19.5t245.5 -6.5l31 844l-549 22v-459z" />
<glyph unicode="&#xd5;" horiz-adv-x="1651" d="M80 770q0 174 28 298t85 196q109 139 269 207.5t378 68.5q347 0 538 -197.5t191 -558.5q0 -201 -58 -362.5t-176 -288.5q-103 -110 -208.5 -157.5t-249.5 -47.5q-375 0 -586 223t-211 619zM499 1704q5 122 56 200t123 78q33 0 97.5 -22.5t221.5 -91.5l39 100l115 -33 q-33 -138 -71.5 -191t-100.5 -53q-37 0 -143.5 42t-172.5 63l-31 -88zM555 696l27 -381q123 -13 245.5 -19.5t245.5 -6.5l31 844l-549 22v-459z" />
<glyph unicode="&#xd6;" horiz-adv-x="1651" d="M80 770q0 174 28 298t85 196q109 139 269 207.5t378 68.5q347 0 538 -197.5t191 -558.5q0 -201 -58 -362.5t-176 -288.5q-103 -110 -208.5 -157.5t-249.5 -47.5q-375 0 -586 223t-211 619zM495 1833q0 63 42.5 107t103.5 44q76 0 112.5 -36.5t36.5 -112.5 q0 -62 -45.5 -104t-114.5 -42q-50 0 -92.5 42.5t-42.5 101.5zM555 696l27 -381q123 -13 245.5 -19.5t245.5 -6.5l31 844l-549 22v-459zM860 1837q0 63 41.5 105t109.5 42q72 0 107 -34.5t35 -104.5q0 -73 -41.5 -114.5t-114.5 -41.5q-70 0 -103.5 36t-33.5 112z" />
<glyph unicode="&#xd7;" horiz-adv-x="1706" d="M268 170l441 440l-441 443l162 161l440 -440l441 440l162 -161l-441 -443l441 -440l-162 -162l-441 441l-440 -441z" />
<glyph unicode="&#xd8;" horiz-adv-x="1651" d="M80 770q0 174 28.5 298t84.5 196q109 139 269 207.5t378 68.5q66 0 133 -9t133 -28l45 119l172 -57l-63 -131q157 -97 233 -256.5t76 -393.5q0 -201 -58 -362.5t-176 -288.5q-101 -110 -206.5 -157.5t-251.5 -47.5q-68 0 -130 8t-124 25l-76 -174l-182 55l86 191 q-184 95 -277.5 281.5t-93.5 455.5zM555 696l20 -397q103 222 196.5 431t178.5 407l-395 18v-459zM760 299q70 -5 149 -7.5t164 -2.5l47 848z" />
<glyph unicode="&#xd9;" horiz-adv-x="1583" d="M139 1507l465 -28l2 -449l37 -711l408 -6l20 684l-35 473l389 15l9 -412q3 -151 4.5 -255.5t1.5 -162.5q0 -229 -30 -344.5t-101 -191.5q-87 -95 -212 -143t-284 -48q-222 0 -372 75t-220 220q-38 80 -58 252t-22 437zM488 2021l291 -6l188 -362h-166l-92 122z" />
<glyph unicode="&#xda;" horiz-adv-x="1583" d="M139 1507l465 -28l2 -449l37 -711l408 -6l20 684l-35 473l389 15l9 -412q3 -151 4.5 -255.5t1.5 -162.5q0 -229 -30 -344.5t-101 -191.5q-87 -95 -212 -143t-284 -48q-222 0 -372 75t-220 220q-38 80 -58 252t-22 437zM619 1653l186 358l168 2l125 8l-305 -368h-174z" />
<glyph unicode="&#xdb;" horiz-adv-x="1583" d="M139 1507l465 -28l2 -449l37 -711l408 -6l20 684l-35 473l389 15l9 -412q3 -151 4.5 -255.5t1.5 -162.5q0 -229 -30 -344.5t-101 -191.5q-87 -95 -212 -143t-284 -48q-222 0 -372 75t-220 220q-38 80 -58 252t-22 437zM471 1653q64 105 113 195.5t82 162.5l260 10 q26 -76 70.5 -164t115.5 -204h-153l-166 176l-158 -168z" />
<glyph unicode="&#xdc;" horiz-adv-x="1583" d="M139 1507l465 -28l2 -449l37 -711l408 -6l20 684l-35 473l389 15l9 -412q3 -151 4.5 -255.5t1.5 -162.5q0 -229 -30 -344.5t-101 -191.5q-87 -95 -212 -143t-284 -48q-222 0 -372 75t-220 220q-38 80 -58 252t-22 437zM463 1833q0 63 42.5 107t103.5 44q76 0 112.5 -36.5 t36.5 -112.5q0 -62 -45.5 -104t-114.5 -42q-50 0 -92.5 42.5t-42.5 101.5zM828 1837q0 63 41.5 105t109.5 42q72 0 107 -34.5t35 -104.5q0 -73 -41.5 -114.5t-114.5 -41.5q-70 0 -103.5 36t-33.5 112z" />
<glyph unicode="&#xdd;" horiz-adv-x="1319" d="M0 1487l477 4l172 -436q6 -16 18.5 -60.5t28.5 -105.5l254 608l369 -31l-451 -936l19 -639q-126 16 -244.5 26.5t-228.5 16.5q13 158 19.5 293.5t6.5 225.5q0 25 -3 86q0 14 -1 22zM485 1653l186 358l168 2l125 8l-305 -368h-174z" />
<glyph unicode="&#xde;" horiz-adv-x="1432" d="M133 0l14 698l-10 799l250 4l182 17l-6 -271q10 0 31 1q172 3 248 3q273 0 396.5 -100.5t123.5 -323.5q0 -134 -52.5 -237t-150.5 -162q-56 -33 -175 -49.5t-363 -22.5v-366zM494 631q13 -1 37 -1q106 -3 145 -3q28 0 80 1.5t128 4.5q5 61 7 108.5t2 71.5q0 59 -0.5 89.5 t-1.5 57.5q-86 5 -149.5 7t-123.5 2q-20 0 -51 -1.5t-73 -4.5v-332z" />
<glyph unicode="&#xdf;" horiz-adv-x="1313" d="M14 989l162 -1q-1 11 -1.5 25.5t-0.5 41.5q0 261 130 399.5t374 138.5q179 0 291 -104t112 -270q0 -119 -46 -205.5t-136 -136.5q191 -30 302.5 -168.5t111.5 -348.5q0 -196 -116.5 -311t-313.5 -115q-50 0 -94.5 4.5t-88.5 12.5l21 303l205 -8l4 432l-260 12l-6 279 l122 6l-16 356l-233 2l12 -946q2 -94 7 -200.5t13 -223.5l-428 8q18 99 26.5 177t8.5 137v458l-135 -4z" />
<glyph unicode="&#xe0;" horiz-adv-x="1298" d="M37 205q0 100 44.5 193t106.5 124q61 30 238 59t412 46v35q0 31 -2 59.5t-7 52.5q-76 25 -155 39t-139 14q-13 0 -24.5 -0.5t-23.5 -1.5l-4 -139q-64 7 -117.5 10.5t-101.5 3.5q-39 0 -82 -1.5t-88 -3.5v22q0 150 160.5 248t404.5 98q260 0 393.5 -101.5t133.5 -299.5 q0 -71 -5 -171t-5 -129q0 -71 10 -154.5t40 -236.5q-28 2 -73 5.5t-55 3.5q-33 0 -90 -8t-156 -25l-53 114q-88 -61 -196.5 -94t-223.5 -33q-160 0 -251 72t-91 199zM359 1542l291 -6l188 -362h-166l-92 122zM446 365l3 -185l286 21q8 56 11.5 99t3.5 87l-1 33 q-76 -5 -151.5 -18.5t-151.5 -36.5z" />
<glyph unicode="&#xe1;" horiz-adv-x="1298" d="M37 205q0 100 44.5 193t106.5 124q61 30 238 59t412 46v35q0 31 -2 59.5t-7 52.5q-76 25 -155 39t-139 14q-13 0 -24.5 -0.5t-23.5 -1.5l-4 -139q-64 7 -117.5 10.5t-101.5 3.5q-39 0 -82 -1.5t-88 -3.5v22q0 150 160.5 248t404.5 98q260 0 393.5 -101.5t133.5 -299.5 q0 -71 -5 -171t-5 -129q0 -71 10 -154.5t40 -236.5q-28 2 -73 5.5t-55 3.5q-33 0 -90 -8t-156 -25l-53 114q-88 -61 -196.5 -94t-223.5 -33q-160 0 -251 72t-91 199zM446 365l3 -185l286 21q8 56 11.5 99t3.5 87l-1 33q-76 -5 -151.5 -18.5t-151.5 -36.5zM490 1174l186 358 l168 2l125 8l-305 -368h-174z" />
<glyph unicode="&#xe2;" horiz-adv-x="1298" d="M37 205q0 100 44.5 193t106.5 124q61 30 238 59t412 46v35q0 31 -2 59.5t-7 52.5q-76 25 -155 39t-139 14q-13 0 -24.5 -0.5t-23.5 -1.5l-4 -139q-64 7 -117.5 10.5t-101.5 3.5q-39 0 -82 -1.5t-88 -3.5v22q0 150 160.5 248t404.5 98q260 0 393.5 -101.5t133.5 -299.5 q0 -71 -5 -171t-5 -129q0 -71 10 -154.5t40 -236.5q-28 2 -73 5.5t-55 3.5q-33 0 -90 -8t-156 -25l-53 114q-88 -61 -196.5 -94t-223.5 -33q-160 0 -251 72t-91 199zM342 1174q64 105 113 195.5t82 162.5l260 10q26 -76 70.5 -164t115.5 -204h-153l-166 176l-158 -168z M446 365l3 -185l286 21q8 56 11.5 99t3.5 87l-1 33q-76 -5 -151.5 -18.5t-151.5 -36.5z" />
<glyph unicode="&#xe3;" horiz-adv-x="1298" d="M37 205q0 100 44.5 193t106.5 124q61 30 238 59t412 46v35q0 31 -2 59.5t-7 52.5q-76 25 -155 39t-139 14q-13 0 -24.5 -0.5t-23.5 -1.5l-4 -139q-64 7 -117.5 10.5t-101.5 3.5q-39 0 -82 -1.5t-88 -3.5v22q0 150 160.5 248t404.5 98q260 0 393.5 -101.5t133.5 -299.5 q0 -71 -5 -171t-5 -129q0 -71 10 -154.5t40 -236.5q-28 2 -73 5.5t-55 3.5q-33 0 -90 -8t-156 -25l-53 114q-88 -61 -196.5 -94t-223.5 -33q-160 0 -251 72t-91 199zM338 1225q5 122 56 200t123 78q33 0 97.5 -22.5t221.5 -91.5l39 100l115 -33q-33 -138 -71.5 -191 t-100.5 -53q-37 0 -143.5 42t-172.5 63l-31 -88zM446 365l3 -185l286 21q8 56 11.5 99t3.5 87l-1 33q-76 -5 -151.5 -18.5t-151.5 -36.5z" />
<glyph unicode="&#xe4;" horiz-adv-x="1298" d="M37 205q0 100 44.5 193t106.5 124q61 30 238 59t412 46v35q0 31 -2 59.5t-7 52.5q-76 25 -155 39t-139 14q-13 0 -24.5 -0.5t-23.5 -1.5l-4 -139q-64 7 -117.5 10.5t-101.5 3.5q-39 0 -82 -1.5t-88 -3.5v22q0 150 160.5 248t404.5 98q260 0 393.5 -101.5t133.5 -299.5 q0 -71 -5 -171t-5 -129q0 -71 10 -154.5t40 -236.5q-28 2 -73 5.5t-55 3.5q-33 0 -90 -8t-156 -25l-53 114q-88 -61 -196.5 -94t-223.5 -33q-160 0 -251 72t-91 199zM334 1354q0 63 42.5 107t103.5 44q76 0 112.5 -36.5t36.5 -112.5q0 -62 -45.5 -104t-114.5 -42 q-50 0 -92.5 42.5t-42.5 101.5zM446 365l3 -185l286 21q8 56 11.5 99t3.5 87l-1 33q-76 -5 -151.5 -18.5t-151.5 -36.5zM699 1358q0 63 41.5 105t109.5 42q72 0 107 -34.5t35 -104.5q0 -73 -41.5 -114.5t-114.5 -41.5q-70 0 -103.5 36t-33.5 112z" />
<glyph unicode="&#xe5;" horiz-adv-x="1298" d="M37 205q0 100 44.5 193t106.5 124q61 30 238 59t412 46v35q0 31 -2 59.5t-7 52.5q-76 25 -155 39t-139 14q-13 0 -24.5 -0.5t-23.5 -1.5l-4 -139q-64 7 -117.5 10.5t-101.5 3.5q-39 0 -82 -1.5t-88 -3.5v22q0 150 160.5 248t404.5 98q260 0 393.5 -101.5t133.5 -299.5 q0 -71 -5 -171t-5 -129q0 -71 10 -154.5t40 -236.5q-28 2 -73 5.5t-55 3.5q-33 0 -90 -8t-156 -25l-53 114q-88 -61 -196.5 -94t-223.5 -33q-160 0 -251 72t-91 199zM408 1389q0 125 78.5 203.5t203.5 78.5q107 0 183.5 -78.5t76.5 -191.5q0 -114 -82 -193.5t-200 -79.5 q-115 0 -187.5 73t-72.5 188zM446 365l3 -185l286 21q8 56 11.5 99t3.5 87l-1 33q-76 -5 -151.5 -18.5t-151.5 -36.5zM578 1294l196 9l4 198l-192 -6z" />
<glyph unicode="&#xe6;" horiz-adv-x="1915" d="M39 240q0 195 169 288t527 93h13q0 14 2 43q6 91 7 133l-208 22l-127 -2l-16 -110l-328 -10q5 180 123 258.5t385 78.5q96 0 187.5 -12.5t180.5 -38.5q75 39 155 59.5t159 20.5q265 0 420 -163.5t155 -444.5v-37h-407q-63 0 -149 -5t-220 -16q0 -52 4.5 -102t13.5 -100 l326 -5l12 111l400 12q-28 -179 -166.5 -280t-358.5 -101q-124 0 -230 32t-189 95q-113 -65 -222.5 -95t-232.5 -30q-191 0 -288 77t-97 229zM430 281q0 -11 2.5 -29.5t7.5 -54.5h330v186l-329 -4q-6 -34 -8.5 -58t-2.5 -40zM1149 608h305l-16 207l-289 -8v-199z" />
<glyph unicode="&#xe7;" horiz-adv-x="1298" d="M72 500q0 257 158 410t427 153q267 0 419 -126t157 -349l-369 8l-22 205l-311 -19q-6 -57 -8.5 -123t-2.5 -153q0 -64 3.5 -130t11.5 -134q55 -6 88.5 -8.5t58.5 -2.5q31 0 108 7q15 1 23 2l12 129h402q-19 -206 -159 -320.5t-374 -114.5q-273 0 -447.5 159t-174.5 407z M383 -358l156 -4l8 -37l194 -2v122l-163 7v290h114v-161h19q111 0 170 -50t59 -143q0 -108 -69.5 -163.5t-206.5 -55.5q-143 0 -206 45t-75 152z" />
<glyph unicode="&#xe8;" horiz-adv-x="1294" d="M72 481q0 264 157 423t418 159q265 0 420.5 -163.5t155.5 -444.5v-37h-408q-62 0 -148.5 -5t-220.5 -16q0 -52 5 -102.5t14 -99.5l326 -5l12 111l399 12q-28 -179 -167 -280t-359 -101q-279 0 -441.5 148.5t-162.5 400.5zM342 1542l291 -6l188 -362h-166l-92 122z M514 606h322l-19 209l-303 -6v-203z" />
<glyph unicode="&#xe9;" horiz-adv-x="1294" d="M72 481q0 264 157 423t418 159q265 0 420.5 -163.5t155.5 -444.5v-37h-408q-62 0 -148.5 -5t-220.5 -16q0 -52 5 -102.5t14 -99.5l326 -5l12 111l399 12q-28 -179 -167 -280t-359 -101q-279 0 -441.5 148.5t-162.5 400.5zM473 1174l186 358l168 2l125 8l-305 -368h-174z M514 606h322l-19 209l-303 -6v-203z" />
<glyph unicode="&#xea;" horiz-adv-x="1294" d="M72 481q0 264 157 423t418 159q265 0 420.5 -163.5t155.5 -444.5v-37h-408q-62 0 -148.5 -5t-220.5 -16q0 -52 5 -102.5t14 -99.5l326 -5l12 111l399 12q-28 -179 -167 -280t-359 -101q-279 0 -441.5 148.5t-162.5 400.5zM325 1174q64 105 113 195.5t82 162.5l260 10 q26 -76 70.5 -164t115.5 -204h-153l-166 176l-158 -168zM514 606h322l-19 209l-303 -6v-203z" />
<glyph unicode="&#xeb;" horiz-adv-x="1294" d="M72 481q0 264 157 423t418 159q265 0 420.5 -163.5t155.5 -444.5v-37h-408q-62 0 -148.5 -5t-220.5 -16q0 -52 5 -102.5t14 -99.5l326 -5l12 111l399 12q-28 -179 -167 -280t-359 -101q-279 0 -441.5 148.5t-162.5 400.5zM317 1354q0 63 42.5 107t103.5 44 q76 0 112.5 -36.5t36.5 -112.5q0 -62 -45.5 -104t-114.5 -42q-50 0 -92.5 42.5t-42.5 101.5zM514 606h322l-19 209l-303 -6v-203zM682 1358q0 63 41.5 105t109.5 42q72 0 107 -34.5t35 -104.5q0 -73 -41.5 -114.5t-114.5 -41.5q-70 0 -103.5 36t-33.5 112z" />
<glyph unicode="&#xec;" horiz-adv-x="621" d="M6 1542l291 -6l188 -362h-166l-92 122zM90 -10l31 395v6q8 96 8 146q0 21 -0.5 51.5t-1.5 66.5l-8 303l381 27l-6 -461l8 -559z" />
<glyph unicode="&#xed;" horiz-adv-x="621" d="M90 -10l31 395v6q8 96 8 146q0 21 -0.5 51.5t-1.5 66.5l-8 303l381 27l-6 -461l8 -559zM137 1174l186 358l168 2l125 8l-305 -368h-174z" />
<glyph unicode="&#xee;" horiz-adv-x="621" d="M-11 1174q64 105 113 195.5t82 162.5l260 10q26 -76 70.5 -164t115.5 -204h-153l-166 176l-158 -168zM90 -10l31 395v6q8 96 8 146q0 21 -0.5 51.5t-1.5 66.5l-8 303l381 27l-6 -461l8 -559z" />
<glyph unicode="&#xef;" horiz-adv-x="621" d="M-19 1354q0 63 42.5 107t103.5 44q76 0 112.5 -36.5t36.5 -112.5q0 -62 -45.5 -104t-114.5 -42q-50 0 -92.5 42.5t-42.5 101.5zM90 -10l31 395v6q8 96 8 146q0 21 -0.5 51.5t-1.5 66.5l-8 303l381 27l-6 -461l8 -559zM346 1358q0 63 41.5 105t109.5 42q72 0 107 -34.5 t35 -104.5q0 -73 -41.5 -114.5t-114.5 -41.5q-70 0 -103.5 36t-33.5 112z" />
<glyph unicode="&#xf0;" horiz-adv-x="1255" d="M72 459q0 231 135 372.5t356 141.5q57 0 102 -10t83 -31q-42 87 -80.5 156.5t-77.5 125.5l-197 -106l-123 115l230 106l-170 172l245 90l148 -129l209 119l92 -139l-184 -103q178 -202 262 -402t84 -423q0 -281 -138.5 -430.5t-398.5 -149.5q-265 0 -421 141.5 t-156 383.5zM446 424l7 -193l204 7l144 16l-3 477q-34 1 -72.5 1.5t-104.5 0.5q-19 0 -75.5 -1t-94.5 -1z" />
<glyph unicode="&#xf1;" horiz-adv-x="1298" d="M109 0q9 179 13.5 338t4.5 274v74q0 87 -3 158t-9 139l297 -18l22 -109q114 91 229 137.5t226 46.5q154 0 227.5 -81.5t73.5 -253.5q0 -22 -0.5 -33t-1.5 -22l-12 -214q-3 -72 -4 -141.5t-1 -161.5q0 -39 2 -84t4 -94q-114 7 -209.5 10.5t-183.5 3.5l17 406l-31 336 l-283 -17l9 -301q-4 -65 -7.5 -152.5t-7.5 -228.5zM323 1225q5 122 56 200t123 78q33 0 97.5 -22.5t221.5 -91.5l39 100l115 -33q-33 -138 -71.5 -191t-100.5 -53q-37 0 -143.5 42t-172.5 63l-31 -88z" />
<glyph unicode="&#xf2;" horiz-adv-x="1294" d="M72 524q0 247 151.5 393t407.5 146q255 0 423.5 -175t168.5 -448q0 -216 -165.5 -361t-408.5 -145q-257 0 -417 163t-160 427zM342 1542l291 -6l188 -362h-166l-92 122zM436 291q74 -25 158.5 -37t185.5 -12h27l-41 546l-274 -26z" />
<glyph unicode="&#xf3;" horiz-adv-x="1294" d="M72 524q0 247 151.5 393t407.5 146q255 0 423.5 -175t168.5 -448q0 -216 -165.5 -361t-408.5 -145q-257 0 -417 163t-160 427zM436 291q74 -25 158.5 -37t185.5 -12h27l-41 546l-274 -26zM473 1174l186 358l168 2l125 8l-305 -368h-174z" />
<glyph unicode="&#xf4;" horiz-adv-x="1294" d="M72 524q0 247 151.5 393t407.5 146q255 0 423.5 -175t168.5 -448q0 -216 -165.5 -361t-408.5 -145q-257 0 -417 163t-160 427zM325 1174q64 105 113 195.5t82 162.5l260 10q26 -76 70.5 -164t115.5 -204h-153l-166 176l-158 -168zM436 291q74 -25 158.5 -37t185.5 -12h27 l-41 546l-274 -26z" />
<glyph unicode="&#xf5;" horiz-adv-x="1294" d="M72 524q0 247 151.5 393t407.5 146q255 0 423.5 -175t168.5 -448q0 -216 -165.5 -361t-408.5 -145q-257 0 -417 163t-160 427zM321 1225q5 122 56 200t123 78q33 0 97.5 -22.5t221.5 -91.5l39 100l115 -33q-33 -138 -71.5 -191t-100.5 -53q-37 0 -143.5 42t-172.5 63 l-31 -88zM436 291q74 -25 158.5 -37t185.5 -12h27l-41 546l-274 -26z" />
<glyph unicode="&#xf6;" horiz-adv-x="1294" d="M72 524q0 247 151.5 393t407.5 146q255 0 423.5 -175t168.5 -448q0 -216 -165.5 -361t-408.5 -145q-257 0 -417 163t-160 427zM317 1354q0 63 42.5 107t103.5 44q76 0 112.5 -36.5t36.5 -112.5q0 -62 -45.5 -104t-114.5 -42q-50 0 -92.5 42.5t-42.5 101.5zM436 291 q74 -25 158.5 -37t185.5 -12h27l-41 546l-274 -26zM682 1358q0 63 41.5 105t109.5 42q72 0 107 -34.5t35 -104.5q0 -73 -41.5 -114.5t-114.5 -41.5q-70 0 -103.5 36t-33.5 112z" />
<glyph unicode="&#xf7;" horiz-adv-x="1706" d="M254 496v231h1198v-231h-1198zM688 205q0 68 49 117t117 49t116 -48.5t48 -117.5q0 -68 -47.5 -116t-116.5 -48t-117.5 48t-48.5 116zM688 1016q0 68 49 117t117 49q67 0 115.5 -49t48.5 -117t-48.5 -116t-117.5 -48t-116.5 48t-47.5 116z" />
<glyph unicode="&#xf8;" horiz-adv-x="1294" d="M72 524q0 246 152 392.5t407 146.5q65 0 128.5 -14.5t121.5 -42.5l88 122l125 -75l-88 -123q109 -86 163 -208t54 -282q0 -216 -165.5 -361t-408.5 -145q-75 0 -142 15t-130 45l-94 -146l-146 84l113 150q-86 68 -132 183t-46 259zM424 336l326 467l-277 -12zM508 227 l305 13l4 415z" />
<glyph unicode="&#xf9;" horiz-adv-x="1337" d="M102 1006l213 -11h203l-24 -743h327q5 104 7.5 206t2.5 206q0 43 -3 133.5t-9 226.5l400 -10l-11 -453l11 -536l-312 8l-12 73q-84 -80 -182.5 -121.5t-206.5 -41.5q-191 0 -292 98t-101 285q0 69 5 168t5 129v28zM365 1542l291 -6l188 -362h-166l-92 122z" />
<glyph unicode="&#xfa;" horiz-adv-x="1337" d="M102 1006l213 -11h203l-24 -743h327q5 104 7.5 206t2.5 206q0 43 -3 133.5t-9 226.5l400 -10l-11 -453l11 -536l-312 8l-12 73q-84 -80 -182.5 -121.5t-206.5 -41.5q-191 0 -292 98t-101 285q0 69 5 168t5 129v28zM496 1174l186 358l168 2l125 8l-305 -368h-174z" />
<glyph unicode="&#xfb;" horiz-adv-x="1337" d="M102 1006l213 -11h203l-24 -743h327q5 104 7.5 206t2.5 206q0 43 -3 133.5t-9 226.5l400 -10l-11 -453l11 -536l-312 8l-12 73q-84 -80 -182.5 -121.5t-206.5 -41.5q-191 0 -292 98t-101 285q0 69 5 168t5 129v28zM348 1174q64 105 113 195.5t82 162.5l260 10 q26 -76 70.5 -164t115.5 -204h-153l-166 176l-158 -168z" />
<glyph unicode="&#xfc;" horiz-adv-x="1337" d="M102 1006l213 -11h203l-24 -743h327q5 104 7.5 206t2.5 206q0 43 -3 133.5t-9 226.5l400 -10l-11 -453l11 -536l-312 8l-12 73q-84 -80 -182.5 -121.5t-206.5 -41.5q-191 0 -292 98t-101 285q0 69 5 168t5 129v28zM340 1354q0 63 42.5 107t103.5 44q76 0 112.5 -36.5 t36.5 -112.5q0 -62 -45.5 -104t-114.5 -42q-50 0 -92.5 42.5t-42.5 101.5zM705 1358q0 63 41.5 105t109.5 42q72 0 107 -34.5t35 -104.5q0 -73 -41.5 -114.5t-114.5 -41.5q-70 0 -103.5 36t-33.5 112z" />
<glyph unicode="&#xfd;" horiz-adv-x="1110" d="M-33 -203q0 23 6 83q2 14 2 20l304 -35l-17 -137l115 -9l43 220l-314 759l-131 330l422 10l138 -405q22 -66 39 -140t28 -153l121 459l49 264l309 -35q-94 -278 -355 -1164l-7 -23q-62 -209 -150.5 -280t-255.5 -71q-172 0 -259 77t-87 230zM381 1174l186 358l168 2 l125 8l-305 -368h-174z" />
<glyph unicode="&#xfe;" horiz-adv-x="1384" d="M102 1503q14 -1 41 -3q127 -9 181 -9q35 0 85.5 1.5t118.5 4.5l-16 -154l-6 -417q75 69 162 103t186 34q210 0 334.5 -155t124.5 -419q0 -243 -138 -394.5t-360 -151.5q-74 0 -140.5 19.5t-123.5 57.5q0 -18 -1 -56t-1 -58q0 -102 4 -214t12 -233l-444 43q0 10 1 31 q11 242 11 348q0 620 -8.5 1052.5t-22.5 569.5zM489 475l11 -205l385 13l10 448l-395 -4z" />
<glyph unicode="&#xff;" horiz-adv-x="1110" d="M-33 -203q0 23 6 83q2 14 2 20l304 -35l-17 -137l115 -9l43 220l-314 759l-131 330l422 10l138 -405q22 -66 39 -140t28 -153l121 459l49 264l309 -35q-94 -278 -355 -1164l-7 -23q-62 -209 -150.5 -280t-255.5 -71q-172 0 -259 77t-87 230zM225 1354q0 63 42.5 107 t103.5 44q76 0 112.5 -36.5t36.5 -112.5q0 -62 -45.5 -104t-114.5 -42q-50 0 -92.5 42.5t-42.5 101.5zM590 1358q0 63 41.5 105t109.5 42q72 0 107 -34.5t35 -104.5q0 -73 -41.5 -114.5t-114.5 -41.5q-70 0 -103.5 36t-33.5 112z" />
<glyph unicode="&#x152;" horiz-adv-x="2427" d="M80 725q0 382 218 598.5t601 216.5q80 0 160 -15t162 -44l716 37l414 -7l-4 -270l-373 -4l-370 -20l12 -283h61h28q121 -2 241 -2q116 0 167 1.5t88 4.5l-3 -324l-439 21l-315 -31v-231h47q340 0 571.5 3.5t312.5 10.5q1 -122 5 -219.5t12 -179.5q-8 -6 -14.5 -8 t-18.5 -3q-6 0 -41 2q-170 10 -334 13l-759 10q-74 -38 -157 -56t-194 -18q-365 0 -579.5 215t-214.5 582zM561 371l541 -17l31 387l6 422q-97 12 -216 23t-292 24z" />
<glyph unicode="&#x153;" horiz-adv-x="2009" d="M72 557q0 217 165 361.5t408 144.5q92 0 172.5 -23.5t161.5 -72.5q81 49 169 72.5t193 23.5q150 0 290.5 -64.5t217.5 -167.5q46 -60 65 -143.5t19 -236.5v-43l-708 10l24 -244l295 14l37 129h365q-27 -176 -167 -279.5t-356 -103.5q-113 0 -219 26t-190 75 q-78 -51 -164 -76t-186 -25q-259 0 -425.5 174.5t-166.5 448.5zM487 754l41 -547l275 26l37 537zM1130 600l392 10l-19 187l-366 6z" />
<glyph unicode="&#x178;" horiz-adv-x="1319" d="M0 1487l477 4l172 -436q6 -16 18.5 -60.5t28.5 -105.5l254 608l369 -31l-451 -936l19 -639q-126 16 -244.5 26.5t-228.5 16.5q13 158 19.5 293.5t6.5 225.5q0 25 -3 86q0 14 -1 22zM329 1833q0 63 42.5 107t103.5 44q76 0 112.5 -36.5t36.5 -112.5q0 -62 -45.5 -104 t-114.5 -42q-50 0 -92.5 42.5t-42.5 101.5zM694 1837q0 63 41.5 105t109.5 42q72 0 107 -34.5t35 -104.5q0 -73 -41.5 -114.5t-114.5 -41.5q-70 0 -103.5 36t-33.5 112z" />
<glyph unicode="&#x2c6;" d="M190 1174q64 105 113 195.5t82 162.5l260 10q26 -76 70.5 -164t115.5 -204h-153l-166 176l-158 -168z" />
<glyph unicode="&#x2dc;" d="M186 1225q5 122 56 200t123 78q33 0 97.5 -22.5t221.5 -91.5l39 100l115 -33q-33 -138 -71.5 -191t-100.5 -53q-37 0 -143.5 42t-172.5 63l-31 -88z" />
<glyph unicode="&#x2000;" horiz-adv-x="1010" />
<glyph unicode="&#x2001;" horiz-adv-x="2021" />
<glyph unicode="&#x2002;" horiz-adv-x="1010" />
<glyph unicode="&#x2003;" horiz-adv-x="2021" />
<glyph unicode="&#x2004;" horiz-adv-x="673" />
<glyph unicode="&#x2005;" horiz-adv-x="505" />
<glyph unicode="&#x2006;" horiz-adv-x="336" />
<glyph unicode="&#x2007;" horiz-adv-x="336" />
<glyph unicode="&#x2008;" horiz-adv-x="252" />
<glyph unicode="&#x2009;" horiz-adv-x="404" />
<glyph unicode="&#x200a;" horiz-adv-x="112" />
<glyph unicode="&#x2010;" horiz-adv-x="664" d="M72 651q57 6 122 8t154 3q80 0 138 -2.5t106 -8.5l-8 -278q-20 0 -46.5 1t-33.5 1t-121 -5t-223 -5h-82z" />
<glyph unicode="&#x2011;" horiz-adv-x="664" d="M72 651q57 6 122 8t154 3q80 0 138 -2.5t106 -8.5l-8 -278q-20 0 -46.5 1t-33.5 1t-121 -5t-223 -5h-82z" />
<glyph unicode="&#x2012;" horiz-adv-x="664" d="M72 651q57 6 122 8t154 3q80 0 138 -2.5t106 -8.5l-8 -278q-20 0 -46.5 1t-33.5 1t-121 -5t-223 -5h-82z" />
<glyph unicode="&#x2013;" d="M0 633h49q12 0 73 -1q322 -7 644 -7q51 0 115.5 1.5t142.5 3.5v-220l-375 -19q-168 7 -383.5 11t-251.5 10z" />
<glyph unicode="&#x2014;" horiz-adv-x="2048" d="M0 633h98q28 0 164 -2q647 -6 1272 -6q101 0 229 1.5t285 4.5l-2 -221l-748 -19q-332 7 -763.5 11t-505.5 10z" />
<glyph unicode="&#x2018;" horiz-adv-x="696" d="M100 1204q0 167 69 250.5t206 83.5q91 0 156 -67t65 -154q0 -89 -60.5 -148t-150.5 -59q-12 0 -27 1.5t-28 4.5q-3 -22 -4.5 -40.5t-1.5 -33.5q0 -18 0.5 -30t1.5 -23l211 -14l-11 -178q-253 9 -339.5 94t-86.5 313z" />
<glyph unicode="&#x2019;" horiz-adv-x="696" d="M102 1319q0 105 63 163t177 58q58 0 120 -28.5t99 -73.5q18 -22 28.5 -70.5t10.5 -112.5q0 -133 -46.5 -248t-111.5 -153q-47 -26 -122.5 -38.5t-200.5 -14.5l16 180l207 16l24 129q-8 -1 -24 -4q-32 -6 -47 -6q-86 0 -139.5 56t-53.5 147z" />
<glyph unicode="&#x201a;" horiz-adv-x="696" d="M86 252q0 105 62.5 163t177.5 58q58 0 119.5 -28.5t99.5 -73.5q18 -22 28.5 -70.5t10.5 -112.5q0 -134 -46.5 -248.5t-111.5 -150.5q-47 -26 -118.5 -38.5t-204.5 -16.5l14 180l209 16l24 129q-3 0 -10 -1q-42 -7 -61 -7q-87 0 -140 55t-53 146z" />
<glyph unicode="&#x201c;" horiz-adv-x="1223" d="M86 1241q0 159 57.5 235t178.5 76q107 0 174 -65t67 -168q0 -92 -59 -150.5t-148 -58.5q-10 0 -33 3q-4 1 -6 1l9 -135q36 -6 58 -8t40 -2q9 0 41 1.5t49 2.5l6 -162q-31 -3 -45 -3.5t-26 -0.5q-187 0 -275 105.5t-88 328.5zM645 1210q0 164 61 242t189 78 q101 0 160 -61.5t59 -168.5q0 -96 -47 -145t-139 -49q-9 0 -18 0.5t-19 1.5l18 -131l197 2l4 -178h-96q-186 0 -277.5 101.5t-91.5 307.5z" />
<glyph unicode="&#x201d;" horiz-adv-x="1223" d="M98 1300q0 106 60 168t161 62q128 0 189 -78t61 -242q0 -207 -94 -310t-285 -103q-33 0 -51 1t-35 3l5 178l196 -2l19 131q-11 -1 -20.5 -1.5t-18.5 -0.5q-93 0 -140 49t-47 145zM651 1319q0 103 66.5 168t173.5 65q121 0 179 -76t58 -235q0 -223 -88.5 -328.5 t-275.5 -105.5q-12 0 -26.5 0.5t-45.5 4.5l8 157h88q20 0 42.5 2t58.5 8l8 135q-17 -2 -26 -3t-15 -1q-88 0 -146.5 58.5t-58.5 150.5z" />
<glyph unicode="&#x201e;" horiz-adv-x="1223" d="M98 221q0 106 60 168t161 62q128 0 189 -78t61 -242q0 -206 -91.5 -308t-276.5 -102q-12 0 -44.5 1.5t-52.5 1.5l5 176h196l19 129q-10 -1 -20 -1.5t-19 -0.5q-93 0 -140 49t-47 145zM651 240q0 103 66.5 168t173.5 65q121 0 179 -76t58 -235q0 -223 -88.5 -328.5 t-275.5 -105.5q-12 0 -26.5 0.5t-45.5 3.5l8 164q15 -1 42 -3q36 -2 46 -2q19 0 55 3t46 4l8 139q-18 -3 -26 -3.5t-15 -0.5q-88 0 -146.5 57.5t-58.5 149.5z" />
<glyph unicode="&#x2022;" horiz-adv-x="1208" d="M307 762q0 123 87 209t210 86q122 0 208.5 -86.5t86.5 -208.5t-87.5 -209.5t-209.5 -87.5q-123 0 -209 87t-86 210z" />
<glyph unicode="&#x2026;" horiz-adv-x="2048" d="M98 248q0 92 81 163.5t186 71.5q88 0 166.5 -80t78.5 -149q0 -114 -67.5 -184t-179.5 -70q-123 0 -194 66t-71 182zM780 248q0 92 81 163.5t186 71.5q88 0 166.5 -80t78.5 -149q0 -114 -67.5 -184t-179.5 -70q-123 0 -194 66t-71 182zM1464 248q0 92 81 163.5t186 71.5 q88 0 166.5 -80t78.5 -149q0 -114 -67.5 -184t-179.5 -70q-123 0 -194 66t-71 182z" />
<glyph unicode="&#x202f;" horiz-adv-x="404" />
<glyph unicode="&#x2039;" horiz-adv-x="592" d="M72 502q58 106 103.5 209.5t80.5 208.5l256 -19l-242 -385l252 -422l-256 10q-24 70 -74.5 173.5t-119.5 224.5z" />
<glyph unicode="&#x203a;" horiz-adv-x="592" d="M72 920l256 -11q26 -73 76.5 -177.5t117.5 -219.5q-70 -131 -113.5 -228t-72.5 -190l-256 21l242 383z" />
<glyph unicode="&#x205f;" horiz-adv-x="505" />
<glyph unicode="&#x20ac;" horiz-adv-x="1395" d="M-23 793l66 176l82 4q67 276 227.5 421.5t397.5 145.5q261 0 419 -156.5t158 -416.5q0 -2 -1 -15t-1 -26v-23h-12q-86 -4 -121 -4q-45 0 -97.5 2.5t-115.5 8.5l-16 304h-404l-6 -229l295 14l-82 -217l-221 31l8 -147l176 22l-78 -209l-100 15l2 -172h410l22 268l338 -25 q0 -6 -1 -17.5t-1 -15.5q0 -267 -157 -435.5t-408 -168.5q-247 0 -408.5 141t-222.5 410l-123 -8l66 174l34 4q0 57 1 92.5t3 69.5z" />
<glyph unicode="&#x2122;" horiz-adv-x="1706" d="M188 1337v127h502v-127h-164v-424h-174v424h-164zM797 913v551h223l113 -303l114 303h221v-551h-155v390l-146 -390h-65l-150 390v-390h-155z" />
<glyph unicode="&#x25fc;" horiz-adv-x="995" d="M0 0v995h995v-995h-995z" />
</font>
</defs>
</svg>
