<?xml version="1.0" encoding="utf-8"?>
<!-- Generator: Adobe Illustrator 19.1.0, SVG Export Plug-In . SVG Version: 6.00 Build 0)  -->
<svg version="1.1" id="Layer_1" xmlns="http://www.w3.org/2000/svg" xmlns:xlink="http://www.w3.org/1999/xlink" x="0px" y="0px"
	 viewBox="0 0 759.4 412" style="enable-background:new 0 0 759.4 412;" xml:space="preserve">
<style type="text/css">
	.st0{fill:#D8D9DC;}
	.st1{fill:#F7962A;}
	.st2{fill:#AFB0B2;}
	.st3{fill:#8BC540;}
	.st4{fill:#919395;}
	.st5{fill:#006F52;}
</style>
<g>
	<g id="XMLID_1_">
		<path class="st0" d="M279.5,273.6l-2.2,2.5c0,0-8.8-12.8-21.8-13.5s-30,3.8-47.8,17.8s-30,32-38.5,49.8s-13,37.2-13,54.5l-5.5-6
			c0.8-24.8,3-41.8,16-65.8s31-41,39-46.8s26-17.2,46.8-14.5S279.5,273.6,279.5,273.6z"/>
		<path class="st1" d="M272,240.1c0,0,6.2,22.8,7.5,33.5c0,0-6.2-19.2-27-22s-38.8,8.8-46.8,14.5s-26,22.8-39,46.8s-15.2,41-16,65.8
			l5.5,6l-12,2.2l-7-6.8c0,0-7.5-27.2-0.8-59s23.8-59.5,38.2-74.8s36.8-29.5,60.5-28.8S270,237.3,272,240.1z"/>
		<path class="st2" d="M260,204.3l-4.2,5.5c0,0-18.3-19.8-51-8.8c-32.7,11-60.5,48.8-66.5,67c-6,18.2-28.8,61.7-3.5,120l-8.2,0.3
			l-8.3-7.3l8.7-0.3c-21.7-50.7-10.3-93.7-0.7-122c9.7-28.3,34.3-53.3,49.3-63.3s34-16,52.3-12.3C246.1,186.5,259.6,203.7,260,204.3
			L260,204.3z"/>
		<path class="st3" d="M260,204.2c-0.4-0.5-13.9-17.7-32-21.3c-18.3-3.7-37.3,2.3-52.3,12.3s-39.7,35-49.3,63.3
			c-9.7,28.3-21,71.3,0.7,122l-8.7,0.3c0,0-29-38.3-31.3-93.3c-2.3-55,15.7-89,27.7-110s44.3-45.7,75-45.7
			c30.7,0,48.3,22.7,48.3,22.7S253.7,187.2,260,204.2z"/>
		<path class="st4" d="M213,104.6l-5.2,7.2c0,0-20-18-52.2-12S99,139.3,94,147.8s-19,36.2-22,56s-8,46.2-0.8,84.2
			c7.2,38,21.2,67.5,47.7,98c-1.4-1.1-45.2-37.5-59-102c-14-65.5-8.5-107.5,7.5-142.5s37.5-57.5,70.5-65C171,69.1,199,90,213,104.6
			C213,104.6,213,104.6,213,104.6z"/>
		<path class="st5" d="M163.5,32.1c11.4,12.1,48.3,70.7,49.5,72.5c-14-14.5-42-35.5-75-28c-33,7.5-54.5,30-70.5,65
			S46,218.6,60,284.1c13.8,64.5,57.6,100.8,59,102v0C48.7,338.9,7.3,242.6,1.5,175.1c-5.4-62.7,4.6-93.4,15.8-117.2
			C29,33.3,53.7,3.3,88.7,0.3C121.1-2.5,150.5,18.3,163.5,32.1z"/>
	</g>
	<g>
		<path class="st5" d="M303.6,244.3V97.2h41.9l25.3,88.7V97.2H406v147.1h-41.2L339,156.1v88.2H303.6z"/>
		<path class="st5" d="M544.1,244.3V97.2h86.6v30.8h-47.6v26.6h44.7v29.4h-44.7v29.4h49.2v30.8H544.1z"/>
		<path class="st5" d="M638.7,244.3l37.4-147.1h44.1l37.4,147.1h-40.2l-4.3-24.7h-29.8l-4.3,24.7H638.7z M687.9,189.7h20.4
			l-10.2-59.2L687.9,189.7z"/>
	</g>
	<path class="st5" d="M475.4,246.8c-21.5,0-38.3-8.2-45.7-24.9c-4.6-10.6-6.9-28.6-6.9-54.1c0-24.5,2.7-41.9,8.2-52.1
		c7.5-14,22.3-21,44.3-21v25.5c-6.4,0-10.4,5.4-11.9,16.3c-0.4,3-0.6,10.7-0.6,23.1v21.6c0,12.7,0.2,20.5,0.6,23.5
		c1.5,11,5.5,16.6,11.9,16.6L475.4,246.8z"/>
	<g>
		<path class="st4" d="M253.5,340.6v-50.5h14.4l8.7,30.4v-30.4h12.1v50.5h-14.2l-8.9-30.3v30.3H253.5z"/>
		<path class="st4" d="M306.4,314.3h-11.6v-0.9c0-2,0.3-3.6,0.8-4.8c0.5-1.2,1.5-2.4,3-3.7c2.1-1.8,4.9-2.8,8.5-3.1
			c5.7,0,9.8,0.6,12.3,1.7c3.6,1.7,5.4,5,5.4,10l0.1,23.4c0,1.1,0.3,2.3,0.8,3.7h-11.9l-0.1-0.6l-0.2-0.4l-0.1-0.6l-0.1-0.9
			l-0.1-1.1l-0.1-0.6c-1,2-2.3,3.3-3.9,4.1c-1.3,0.6-3.1,0.8-5.6,0.8c-6.5,0-9.8-3.9-9.8-11.6c0-2.9,0.5-5.2,1.6-6.9
			c1-1.7,2.8-3,5.5-3.9l1.8-0.6l1.4-0.4l3.6-0.8l2.2-0.6c2.1-0.6,3.2-1.8,3.2-3.6c0-2.5-1.2-3.8-3.5-3.8c-1.7,0-2.7,1.2-3,3.5
			l-0.1,1.2V314.3z M313.1,322.1l-0.7,0.4l-0.8,0.3l-0.3,0.1l-0.9,0.3l-1.3,0.5l-0.7,0.3c-1.6,1.1-2.4,2.4-2.4,3.9
			c0,3.3,1.1,5,3.4,5c2.5,0,3.7-2.2,3.7-6.5V322.1z"/>
		<path class="st4" d="M328.2,311.3v-8.6h4.6v-11h12.6v11h4.9v8.6h-4.9v18.2c0,1.9,0.9,2.9,2.6,2.9h2.3v8.1c-2.2,0.3-3.9,0.5-5,0.5
			h-2c-0.2,0-0.8,0-1.8,0.1c-0.3,0-0.6,0-0.9,0c-2.5,0-4.3-0.5-5.5-1.5c-1.3-1.2-2-3.2-2.2-6.2l-0.1-1.7v-20.3H328.2z"/>
		<path class="st4" d="M354.3,299.8v-9.6h12.6v9.6H354.3z M354.3,340.6v-37.9h12.6v37.9H354.3z"/>
		<path class="st4" d="M372.4,321.7l0.1-2.9c0.1-6.2,1.2-10.6,3.3-13c2.3-2.9,6.5-4.3,12.5-4.3c6,0,10.2,1.4,12.6,4.3
			c2.2,2.6,3.3,7,3.3,13v5.7c0,6.1-1.1,10.5-3.4,13.1c-2.4,2.8-6.7,4.2-12.7,4.2c-6,0-10.2-1.4-12.5-4.3c-2-2.5-3.1-6.8-3.2-13
			L372.4,321.7z M384.9,323.7l0.1,3.1l0.1,1.5c0,1.2,0.1,2,0.3,2.6c0.5,2,1.5,3,3,3c1.6,0,2.6-1.2,3-3.7c0-0.3,0.1-1,0.1-1.9
			l0.2-4.6v-4.1l-0.2-4.6c-0.2-3.7-1.2-5.5-3.2-5.5c-2,0-3,1.8-3.2,5.5l-0.1,1.5l-0.1,3.1V323.7z"/>
		<path class="st4" d="M409.8,340.6v-37.9h12.1v3.8l0.8-1.1c1.6-2.2,4.1-3.4,7.6-3.7h1.7c3.4,0,5.8,1,7.3,3.1
			c1.2,1.7,1.8,4.3,1.8,7.9v28h-12.6V315c0-2.7-0.9-4-2.7-4c-2.1,0-3.2,1.1-3.4,3.4l-0.1,0.8v25.4H409.8z"/>
		<path class="st4" d="M458.6,314.3H447v-0.9c0-2,0.3-3.6,0.8-4.8c0.5-1.2,1.5-2.4,3-3.7c2.1-1.8,4.9-2.8,8.5-3.1
			c5.7,0,9.8,0.6,12.3,1.7c3.6,1.7,5.4,5,5.4,10l0.1,23.4c0,1.1,0.3,2.3,0.8,3.7H466l-0.1-0.6l-0.2-0.4l-0.1-0.6l-0.1-0.9l-0.1-1.1
			l-0.1-0.6c-1,2-2.3,3.3-3.9,4.1c-1.3,0.6-3.1,0.8-5.6,0.8c-6.5,0-9.8-3.9-9.8-11.6c0-2.9,0.5-5.2,1.6-6.9c1-1.7,2.8-3,5.5-3.9
			l1.8-0.6l1.4-0.4l3.6-0.8l2.2-0.6c2.1-0.6,3.2-1.8,3.2-3.6c0-2.5-1.2-3.8-3.5-3.8c-1.7,0-2.7,1.2-3,3.5l-0.1,1.2V314.3z
			 M465.2,322.1l-0.7,0.4l-0.8,0.3l-0.3,0.1l-0.9,0.3l-1.3,0.5l-0.7,0.3c-1.6,1.1-2.4,2.4-2.4,3.9c0,3.3,1.1,5,3.4,5
			c2.5,0,3.7-2.2,3.7-6.5V322.1z"/>
		<path class="st4" d="M483.5,340.6v-50.5h12.6v50.5H483.5z"/>
		<path class="st4" d="M523.3,314.3c0-8.4,0.9-14.4,2.8-17.9c2.6-4.8,7.6-7.2,15.2-7.2c4.9,0,8.6,0.9,11.3,2.7
			c2.9,2,4.8,5.3,5.8,9.9c0.6,2.8,0.8,6.9,0.8,12.5c0,17-3.5,25.9-10.5,26.6c-3.5,0.4-6.3,0.6-8.1,0.6c-7.4,0-12.3-2.9-14.9-8.6
			C524.1,329.3,523.3,323.1,523.3,314.3z M537,319c0,4.3,0.1,7,0.2,8.1c0.5,3.8,1.9,5.7,4.1,5.7c2.1,0,3.5-1.9,3.9-5.8
			c0.1-1.1,0.2-3.8,0.2-8v-7.4c0-4.2-0.1-6.8-0.2-7.9c-0.5-3.8-1.8-5.7-3.9-5.7c-2.2,0-3.6,1.9-4.1,5.6c-0.1,1-0.2,3.7-0.2,7.9V319z
			"/>
		<path class="st4" d="M564.7,330.7v-27.9h12.6v25.6c0,2.7,0.9,4,2.7,4c2.1,0,3.2-1.1,3.4-3.4l0.1-0.8v-25.4H596v37.9h-12.1v-3.9
			l-0.8,1.2c-1.9,2.2-4.4,3.5-7.6,3.6c-0.2,0-0.7,0.1-1.3,0.1c-3.7,0-6.3-1.1-7.8-3.3C565.2,336.8,564.7,334.2,564.7,330.7z"/>
		<path class="st4" d="M599.4,311.3v-8.6h4.6v-11h12.6v11h4.9v8.6h-4.9v18.2c0,1.9,0.9,2.9,2.6,2.9h2.3v8.1
			c-2.2,0.3-3.9,0.5-5.1,0.5h-2c-0.2,0-0.8,0-1.8,0.1c-0.3,0-0.6,0-0.9,0c-2.5,0-4.3-0.5-5.5-1.5c-1.3-1.2-2-3.2-2.2-6.2l-0.1-1.7
			v-20.3H599.4z"/>
		<path class="st4" d="M644.3,306.3v-16.2h12.6v50.5h-12.1v-4.2l-0.7,1.3c-0.7,1.2-1.7,2.1-3.2,2.8c-1.6,0.7-3.1,1.1-4.5,1.1
			c-2.7,0-4.9-0.8-6.8-2.4c-1.9-1.6-3.3-3.7-4.1-6.3c-0.7-2.1-1-4.9-1-8.3c0-6.5,0.4-11.4,1.3-14.4c1.6-5.8,4.8-8.8,9.6-8.8
			C639.6,301.4,642.6,303.1,644.3,306.3z M637.4,323.4c0,0.1,0,0.3,0,0.4c0,5.5,1.1,8.3,3.3,8.3c1.4,0,2.5-0.7,3.2-2.1
			c0.4-0.7,0.5-2,0.5-3.9l0.1-6l-0.3-4.4c-0.5-3-1.4-4.6-2.9-4.6c-2.5,0-3.8,1.9-3.9,5.7L637.4,323.4z"/>
		<path class="st4" d="M662.4,321.7l0.1-2.9c0.1-6.2,1.2-10.6,3.3-13c2.3-2.9,6.5-4.3,12.5-4.3c6,0,10.2,1.4,12.6,4.3
			c2.2,2.6,3.3,7,3.3,13v5.7c0,6.1-1.1,10.5-3.4,13.1c-2.4,2.8-6.7,4.2-12.7,4.2c-6,0-10.2-1.4-12.5-4.3c-2-2.5-3.1-6.8-3.2-13
			L662.4,321.7z M674.9,323.7l0.1,3.1l0.1,1.5c0,1.2,0.1,2,0.3,2.6c0.5,2,1.5,3,3,3c1.6,0,2.6-1.2,3-3.7c0-0.3,0.1-1,0.1-1.9
			l0.2-4.6v-4.1l-0.2-4.6c-0.2-3.7-1.2-5.5-3.2-5.5c-2,0-3,1.8-3.2,5.5l-0.1,1.5l-0.1,3.1V323.7z"/>
		<path class="st4" d="M698.8,321.7l0.1-2.9c0.1-6.2,1.2-10.6,3.3-13c2.3-2.9,6.5-4.3,12.5-4.3c6,0,10.2,1.4,12.6,4.3
			c2.2,2.6,3.3,7,3.3,13v5.7c0,6.1-1.1,10.5-3.4,13.1c-2.4,2.8-6.7,4.2-12.7,4.2c-6,0-10.2-1.4-12.5-4.3c-2-2.5-3.1-6.8-3.2-13
			L698.8,321.7z M711.3,323.7l0.1,3.1l0.1,1.5c0,1.2,0.1,2,0.3,2.6c0.5,2,1.5,3,3,3c1.6,0,2.6-1.2,3-3.7c0-0.3,0.1-1,0.1-1.9
			l0.2-4.6v-4.1l-0.2-4.6c-0.2-3.7-1.2-5.5-3.2-5.5c-2,0-3,1.8-3.2,5.5l-0.1,1.5l-0.1,3.1V323.7z"/>
		<path class="st4" d="M736.2,340.6v-37.9h12.1v5.2l0.6-1c2-3.5,4.8-5.3,8.3-5.3c0.1,0,0.3,0,0.4,0l1.7,0.1v12l-1.6-0.2
			c-2.9,0-5,0.3-6.2,1c-1.8,1-2.7,2.8-2.7,5.4v20.7H736.2z"/>
		<path class="st4" d="M190.5,410.8v-50.5h29.7v10.6h-16.3v9.1h15.4v10.1h-15.4v10.1h16.9v10.6H190.5z"/>
		<path class="st4" d="M223,372.9h13.1l3.6,26.6l3.6-26.6h13.2l-9.1,37.9h-15.3L223,372.9z"/>
		<path class="st4" d="M290.2,388.7v5h-18.5v4.1l0.1,2c0.1,2.7,1.2,4,3.4,4c2,0,3.1-1.6,3.3-4.8l0.1-1.2v-0.3h11.7
			c0,9.3-5,14-15.1,14c-6.4,0-10.8-1.9-13.2-5.8c-1.9-3-2.9-7.9-2.9-14.7c0-4.6,0.7-8.5,2-11.7c1.8-4.3,4.7-6.8,8.5-7.2
			c2.7-0.3,4.8-0.5,6.4-0.5c9.3,0,14,4.7,14.2,14.2L290.2,388.7z M271.6,386.8h7v-1.1c0-3.7-0.7-5.7-2-6.1c-0.5-0.1-1-0.2-1.5-0.2
			c-2.3,0-3.4,2.1-3.4,6.4V386.8z"/>
		<path class="st4" d="M295.7,410.8v-37.9h12.1v3.8l0.8-1.1c1.6-2.2,4.1-3.4,7.6-3.7h1.7c3.4,0,5.8,1,7.3,3.1
			c1.2,1.7,1.8,4.3,1.8,7.9v28h-12.6v-25.6c0-2.7-0.9-4-2.7-4c-2.1,0-3.2,1.1-3.4,3.4l-0.1,0.8v25.4H295.7z"/>
		<path class="st4" d="M330.4,381.4v-8.6h4.6v-11h12.6v11h4.9v8.6h-4.9v18.2c0,1.9,0.9,2.9,2.6,2.9h2.3v8.1c-2.2,0.3-3.9,0.5-5,0.5
			h-2c-0.2,0-0.8,0-1.8,0.1c-0.3,0-0.6,0-0.9,0c-2.5,0-4.3-0.5-5.5-1.5c-1.3-1.2-2-3.2-2.2-6.2l-0.1-1.7v-20.3H330.4z"/>
		<path class="st4" d="M354.8,398.8h11.4v1.1c0,2.8,1.1,4.2,3.4,4.2c0.3,0,0.6-0.1,0.7-0.1c1.1-0.1,1.9-0.4,2.3-0.9
			c0.4-0.5,0.5-1.3,0.5-2.4c0-1-0.4-1.9-1.2-2.7l-0.6-0.4l-0.7-0.3l-8-2.9c-2.8-1-4.7-2.4-5.8-4c-1.2-1.6-1.7-3.9-1.7-6.9
			c0-7.8,4.5-11.8,13.5-11.8h3.4c2.9,0.4,4.5,0.6,5,0.8c4.5,1.2,6.9,4.4,7.1,9.5l0.1,1.2v0.6h-11v-1.1c0-2.2-1-3.3-3.1-3.3
			c-0.3,0-0.6,0.1-0.8,0.1c-1.8,0-2.7,0.8-2.7,2.5c0,0.1,0,0.3,0,0.4c0,1.2,0.6,2.1,1.8,2.6l0.5,0.2l0.4,0.1l9.1,3.2
			c4.2,1.5,6.4,4.6,6.4,9.2c0,4.6-1.3,8.1-3.9,10.5c-2.6,2.3-6.3,3.5-10.9,3.5c-5.5,0-9.2-0.6-11.2-1.7c-2.8-1.6-4.1-5.1-4.1-10.3
			V398.8z"/>
		<path class="st4" d="M408.5,410.8l12.8-50.5h15.2l12.8,50.5h-13.8l-1.5-8.5h-10.2l-1.5,8.5H408.5z M425.4,392h7l-3.5-20.3
			L425.4,392z"/>
		<path class="st4" d="M451,398.8h11.4v1.1c0,2.8,1.1,4.2,3.4,4.2c0.3,0,0.6-0.1,0.7-0.1c1.1-0.1,1.9-0.4,2.3-0.9
			c0.4-0.5,0.5-1.3,0.5-2.4c0-1-0.4-1.9-1.2-2.7l-0.6-0.4l-0.7-0.3l-8-2.9c-2.8-1-4.7-2.4-5.8-4c-1.2-1.6-1.7-3.9-1.7-6.9
			c0-7.8,4.5-11.8,13.5-11.8h3.4c2.9,0.4,4.5,0.6,5,0.8c4.5,1.2,6.9,4.4,7.1,9.5l0.1,1.2v0.6h-11v-1.1c0-2.2-1-3.3-3.1-3.3
			c-0.3,0-0.6,0.1-0.8,0.1c-1.8,0-2.7,0.8-2.7,2.5c0,0.1,0,0.3,0,0.4c0,1.2,0.6,2.1,1.8,2.6l0.5,0.2l0.4,0.1l9.1,3.2
			c4.2,1.5,6.4,4.6,6.4,9.2c0,4.6-1.3,8.1-3.9,10.5c-2.6,2.3-6.3,3.5-10.9,3.5c-5.5,0-9.2-0.6-11.2-1.7c-2.8-1.6-4.1-5.1-4.1-10.3
			V398.8z"/>
		<path class="st4" d="M484.2,398.8h11.4v1.1c0,2.8,1.1,4.2,3.4,4.2c0.3,0,0.6-0.1,0.7-0.1c1.1-0.1,1.9-0.4,2.3-0.9
			c0.4-0.5,0.5-1.3,0.5-2.4c0-1-0.4-1.9-1.2-2.7l-0.6-0.4l-0.7-0.3l-8-2.9c-2.8-1-4.7-2.4-5.8-4c-1.2-1.6-1.7-3.9-1.7-6.9
			c0-7.8,4.5-11.8,13.5-11.8h3.4c2.9,0.4,4.5,0.6,5,0.8c4.5,1.2,6.9,4.4,7.1,9.5l0.1,1.2v0.6h-11v-1.1c0-2.2-1-3.3-3.1-3.3
			c-0.3,0-0.6,0.1-0.8,0.1c-1.8,0-2.7,0.8-2.7,2.5c0,0.1,0,0.3,0,0.4c0,1.2,0.6,2.1,1.8,2.6l0.5,0.2l0.4,0.1l9.1,3.2
			c4.2,1.5,6.4,4.6,6.4,9.2c0,4.6-1.3,8.1-3.9,10.5c-2.6,2.3-6.3,3.5-10.9,3.5c-5.5,0-9.2-0.6-11.2-1.7c-2.8-1.6-4.1-5.1-4.1-10.3
			V398.8z"/>
		<path class="st4" d="M518.2,391.8l0.1-2.9c0.1-6.2,1.2-10.6,3.3-13c2.3-2.9,6.5-4.3,12.5-4.3c6,0,10.2,1.4,12.6,4.3
			c2.2,2.6,3.3,7,3.3,13v5.7c0,6.1-1.1,10.5-3.4,13.1c-2.4,2.8-6.7,4.2-12.7,4.2c-6,0-10.2-1.4-12.5-4.3c-2-2.5-3.1-6.8-3.2-13
			L518.2,391.8z M530.7,393.9l0.1,3.1l0.1,1.5c0,1.2,0.1,2,0.3,2.6c0.5,2,1.5,3,3,3c1.6,0,2.6-1.2,3-3.7c0-0.3,0.1-1,0.1-1.9
			l0.2-4.6v-4.1l-0.2-4.6c-0.2-3.7-1.2-5.5-3.2-5.5c-2,0-3,1.8-3.2,5.5l-0.1,1.5l-0.1,3.1V393.9z"/>
		<path class="st4" d="M586.3,386.8h-11.6v-1.4l-0.2-1.5c-0.3-3-1.4-4.6-3.4-4.6c-2.4,0-3.6,1.8-3.6,5.5v-7.4V377v0.2
			c0,0.4-0.1,1.1-0.1,2.2c0,1.9,0,5.6-0.1,11.3c0,0.1,0,0.3,0,0.4c0,8,1.2,12.1,3.6,12.1c2.5,0,3.8-2,3.8-6v-2.6h11.5v3.1
			c0,4.6-1.4,8-4.2,10.4c-2.6,2.2-6.3,3.3-10.9,3.3h-2.1c-3.7-0.5-5.8-0.9-6.4-1.1c-1.6-0.6-3.3-2.1-5.1-4.3
			c-2.3-2.9-3.4-7-3.4-12.3c0-7.1,1-12.4,3-15.8c2.6-4.4,7.2-6.6,13.9-6.6c5.1,0,8.9,1,11.2,2.9c2.7,2.1,4,5.6,4,10.6V386.8z"/>
		<path class="st4" d="M591.3,369.9v-9.6h12.6v9.6H591.3z M591.3,410.8v-37.9h12.6v37.9H591.3z"/>
		<path class="st4" d="M621.4,384.5h-11.6v-0.9c0-2,0.3-3.6,0.8-4.8c0.5-1.2,1.5-2.4,3-3.7c2.1-1.8,4.9-2.8,8.5-3.1
			c5.7,0,9.8,0.6,12.3,1.7c3.6,1.7,5.4,5,5.4,10l0.1,23.4c0,1.1,0.3,2.3,0.8,3.7h-11.9l-0.1-0.6l-0.2-0.4l-0.1-0.6l-0.1-0.9
			l-0.1-1.1l-0.1-0.6c-1,2-2.3,3.3-3.9,4.1c-1.3,0.6-3.1,0.8-5.6,0.8c-6.5,0-9.8-3.9-9.8-11.6c0-2.9,0.5-5.2,1.6-6.9
			c1-1.7,2.8-3,5.5-3.9l1.8-0.6l1.4-0.4l3.6-0.8l2.2-0.6c2.1-0.6,3.2-1.8,3.2-3.6c0-2.5-1.2-3.8-3.5-3.8c-1.7,0-2.7,1.2-3,3.5
			l-0.1,1.2V384.5z M628,392.2l-0.7,0.4l-0.8,0.3l-0.3,0.1l-0.9,0.3l-1.3,0.5l-0.7,0.3c-1.6,1.1-2.4,2.4-2.4,3.9c0,3.3,1.1,5,3.4,5
			c2.5,0,3.7-2.2,3.7-6.5V392.2z"/>
		<path class="st4" d="M643.2,381.4v-8.6h4.6v-11h12.6v11h4.9v8.6h-4.9v18.2c0,1.9,0.9,2.9,2.6,2.9h2.3v8.1
			c-2.2,0.3-3.9,0.5-5.1,0.5h-2c-0.2,0-0.8,0-1.8,0.1c-0.3,0-0.6,0-0.9,0c-2.5,0-4.3-0.5-5.5-1.5c-1.3-1.2-2-3.2-2.2-6.2l-0.1-1.7
			v-20.3H643.2z"/>
		<path class="st4" d="M669.3,369.9v-9.6h12.6v9.6H669.3z M669.3,410.8v-37.9h12.6v37.9H669.3z"/>
		<path class="st4" d="M687.4,391.8l0.1-2.9c0.1-6.2,1.2-10.6,3.3-13c2.3-2.9,6.5-4.3,12.5-4.3c6,0,10.2,1.4,12.6,4.3
			c2.2,2.6,3.3,7,3.3,13v5.7c0,6.1-1.1,10.5-3.4,13.1c-2.4,2.8-6.7,4.2-12.7,4.2c-6,0-10.2-1.4-12.5-4.3c-2-2.5-3.1-6.8-3.2-13
			L687.4,391.8z M699.8,393.9l0.1,3.1l0.1,1.5c0,1.2,0.1,2,0.3,2.6c0.5,2,1.5,3,3,3c1.6,0,2.6-1.2,3-3.7c0-0.3,0.1-1,0.1-1.9
			l0.2-4.6v-4.1l-0.2-4.6c-0.2-3.7-1.2-5.5-3.2-5.5c-2,0-3,1.8-3.2,5.5l-0.1,1.5l-0.1,3.1V393.9z"/>
		<path class="st4" d="M724.7,410.8v-37.9h12.1v3.8l0.8-1.1c1.6-2.2,4.1-3.4,7.6-3.7h1.7c3.4,0,5.8,1,7.3,3.1
			c1.2,1.7,1.8,4.3,1.8,7.9v28h-12.6v-25.6c0-2.7-0.9-4-2.7-4c-2.1,0-3.2,1.1-3.4,3.4l-0.1,0.8v25.4H724.7z"/>
	</g>
	<path class="st5" d="M475.2,221.2c6.4,0,10.4-5.5,11.9-16.6c0.4-3,0.6-10.8,0.6-23.5v-21.6c0-12.4-0.2-20.1-0.6-23.1
		c-1.5-10.9-5.5-16.3-11.9-16.3V94.6c22.1,0,36.9,7,44.3,21c5.5,10.2,8.2,27.6,8.2,52.1c0,25.5-2.3,43.5-6.9,54.1
		c-7.4,16.8-24.1,24.9-45.7,24.9L475.2,221.2z"/>
</g>
</svg>
