<?xml version="1.0" encoding="utf-8"?>
<!-- Generator: Adobe Illustrator 19.1.0, SVG Export Plug-In . SVG Version: 6.00 Build 0)  -->
<svg version="1.1" id="Layer_1" xmlns="http://www.w3.org/2000/svg" xmlns:xlink="http://www.w3.org/1999/xlink" x="0px" y="0px"
	 viewBox="0 0 791.2 45" style="enable-background:new 0 0 791.2 45;" xml:space="preserve">
<style type="text/css">
	.st0{fill:#EAC400;}
	.st1{fill:#D1B000;}
</style>
<g>
	<path class="st0" d="M2.9,44c0.7-0.7,1.4-1.6,1.9-2.7C4.9,41,18.8,8,20.1,4.7c1-2.6,2.7-3.7,5.7-3.7h739.5c2.9,0,4.7,1.2,5.7,3.8
		c0.7,1.9,5.7,13.7,14.8,35l0.6,1.5c0.5,1.1,1.2,2,1.9,2.8H2.9z"/>
	<path class="st1" d="M765.3,2c2.5,0,4,0.9,4.8,3.1c0.7,1.9,5.7,13.7,14.8,35l0.6,1.5c0.2,0.5,0.5,0.9,0.7,1.4H4.9
		c0.3-0.4,0.5-0.8,0.7-1.3C5.8,41.3,19.7,8.4,21,5.1C21.9,2.9,23.3,2,25.8,2H765.3 M765.4,0C762.2,0,29,0,25.8,0s-5.4,1.2-6.7,4.4
		C17.9,7.5,4.9,38.3,3.8,40.9C2.7,43.5,0,45,0,45h791.2c0,0-2.7-1.5-3.8-4.1c-1.1-2.6-14.1-33.3-15.4-36.4
		C770.8,1.3,768.6,0,765.4,0L765.4,0z"/>
</g>
</svg>
