<?xml version="1.0" encoding="utf-8"?><!-- Generator: Adobe Illustrator 21.1.0, SVG Export Plug-In . SVG Version: 6.00 Build 0)  --><svg version="1.1" xmlns="http://www.w3.org/2000/svg" xmlns:xlink="http://www.w3.org/1999/xlink" x="0px" y="0px"	 viewBox="0 0 61.8 72.4" style="enable-background:new 0 0 61.8 72.4;" xml:space="preserve"><style type="text/css">	.st0{fill:#00594A;}	.st1{fill:url(#SVGID_1_);}	.st2{fill:url(#SVGID_2_);}</style><g id="Layer_1">	<path class="st0" d="M61.6,24.2c-1-4.9-5-8.4-9.9-8.8c-0.5-2.2-1.4-4.4-2.6-6.3c-2.8-4.4-7.2-7.4-12.3-8.5C35.5,0.2,34,0,32.6,0		c0,0,0,0,0,0c-7.1,0-13.5,3.9-16.9,9.9c-0.3,0-0.5,0-0.8,0c-0.3,0-0.5,0-0.8,0c-4.3,0.3-8,3-9.5,6.9c-1.5,3.8-0.8,8.1,1.8,11.2		c0.3,0.5,1.9,3.4,0.2,9.4c-0.3,1.1-1.2,2.8-2.1,4.4C2.5,45.4,0,49.9,0,55.6c0,4.2,2,8.2,5.7,10.1c1.7,0.8,3.4,1.3,5.1,1.3		c2.1,0,4.1-0.6,5.9-1.9c0.7-0.3,3.3-1.4,7.8-1.4c1,0,2,0.1,3.1,0.2c4.6,0.4,6.3,2.4,6.6,2.9c2,3.7,5.8,5.8,9.7,5.8		c1.5,0,3.1-0.3,4.6-1C54,68.9,56.4,62.5,54,57c-1-2.4-3.3-10.3-1.2-15.7c1.3-3.4,2.5-4.8,2.9-5.2C60.1,33.9,62.6,29,61.6,24.2z"/></g><g id="Layer_1_copy">	<g>		<radialGradient id="SVGID_1_" cx="32.6559" cy="19.5227" r="8.5233" gradientUnits="userSpaceOnUse">			<stop  offset="0" style="stop-color:#FCEA0D"/>			<stop  offset="1" style="stop-color:#DCA200"/>		</radialGradient>		<circle class="st1" cx="32.7" cy="19.5" r="8.5"/>		<radialGradient id="SVGID_2_" cx="30.8996" cy="41.0965" r="20.0836" gradientUnits="userSpaceOnUse">			<stop  offset="0" style="stop-color:#FCEA0D"/>			<stop  offset="1" style="stop-color:#DCA200"/>		</radialGradient>		<path class="st2" d="M14.8,20.8c0,0,6.1,6.4,2.4,19.5C15.6,45.8,11,50.7,11,55.6c0,0,6.1-3.9,17.7-2.8c11.6,1.1,15.2,8.5,15.2,8.5			s-5.7-13.1-1.4-24c4.3-10.9,9.3-11.2,8.1-11c-4.7,0.5-14.9,9.5-20.6,7.4C24.3,31.5,18.2,20.6,14.8,20.8z"/>	</g></g></svg>