<?xml version="1.0" encoding="utf-8"?><!-- Generator: Adobe Illustrator 21.1.0, SVG Export Plug-In . SVG Version: 6.00 Build 0)  --><svg version="1.1" xmlns="http://www.w3.org/2000/svg" xmlns:xlink="http://www.w3.org/1999/xlink" x="0px" y="0px"	 viewBox="0 0 59.1 70.7" style="enable-background:new 0 0 59.1 70.7;" xml:space="preserve"><style type="text/css">	.st0{fill:#00594A;}	.st1{fill:url(#SVGID_1_);}	.st2{fill:url(#SVGID_2_);}</style><g id="Layer_1">	<path class="st0" d="M57.4,17.9c-2-4.5-6.7-7.2-11.5-6.5c-1-2.1-2.3-4-3.9-5.6C38.3,2,33.4,0,28.2,0c-1.4,0-2.8,0.2-4.2,0.5		c0,0,0,0,0,0C17,2,11.6,7.2,9.5,13.7c-0.3,0-0.5,0.1-0.8,0.1C8.5,13.9,8.2,14,8,14c-4.1,1.2-7.2,4.6-7.8,8.8c-0.7,4,1,8.1,4.2,10.5		c0.4,0.4,2.6,2.9,2.2,9.1c-0.1,1.2-0.6,3-1.1,4.7c-1.2,4-2.6,9-1.4,14.5c0.9,4.1,3.7,7.6,7.8,8.6c1.8,0.5,3.6,0.5,5.3,0.1		c2-0.4,3.9-1.5,5.4-3.2c0.6-0.5,2.9-2,7.3-3c1-0.2,2-0.4,3-0.5c4.6-0.6,6.7,1,7.1,1.4c2.7,3.1,6.9,4.4,10.8,3.6c1.5-0.3,3-1,4.3-2		c4.8-3.6,5.8-10.4,2.2-15.2c-1.5-2.1-5.5-9.4-4.6-15c0.6-3.6,1.4-5.2,1.7-5.7C58,27.7,59.4,22.4,57.4,17.9z"/></g><g id="Layer_1_copy">	<g>					<radialGradient id="SVGID_1_" cx="29.9719" cy="19.7182" r="8.5233" gradientTransform="matrix(0.9769 -0.2139 0.2139 0.9769 -5.3457 6.6688)" gradientUnits="userSpaceOnUse">			<stop  offset="0" style="stop-color:#FCEA0D"/>			<stop  offset="1" style="stop-color:#DCA200"/>		</radialGradient>		<circle class="st1" cx="28.1" cy="19.5" r="8.5"/>					<radialGradient id="SVGID_2_" cx="28.2156" cy="41.2919" r="20.0836" gradientTransform="matrix(0.9769 -0.2139 0.2139 0.9769 -5.3457 6.6688)" gradientUnits="userSpaceOnUse">			<stop  offset="0" style="stop-color:#FCEA0D"/>			<stop  offset="1" style="stop-color:#DCA200"/>		</radialGradient>		<path class="st2" d="M11,24.6c0,0,7.3,5,6.5,18.5c-0.3,5.7-3.8,11.4-2.8,16.2c0,0,5.1-5.1,16.7-6.5C43,51.5,48.1,58,48.1,58			s-8.3-11.6-6.5-23.2c1.9-11.6,6.7-12.9,5.6-12.5c-4.5,1.5-12.5,12.5-18.5,11.6C22.6,33,14.2,23.7,11,24.6z"/>	</g></g></svg>